<?xml version="1.0" encoding="utf-8"?>
<svg xmlns="http://www.w3.org/2000/svg" width="88" height="32" viewBox="0 0 88 32" fill="none">
<g clip-path="url(#clip0_2144_28553)">
<path d="M30.3195 10.154C30.7245 10.4728 31.1013 10.8102 31.4665 11.1736C31.8622 10.9935 32.1685 10.7741 32.502 10.4965C34.0712 9.26726 35.8604 8.84575 37.8388 9.00702C39.4488 9.23526 41.1144 9.9999 42.1923 11.2338C43.6154 13.1711 43.8691 15.004 43.8536 17.3398C43.8531 17.5523 43.8528 17.7647 43.8525 17.9772C43.8516 18.5324 43.8491 19.0876 43.8462 19.6428C43.8431 20.3112 43.842 20.9795 43.8405 21.6478C43.838 22.6595 43.8332 23.6711 43.8287 24.6828C42.4408 24.6828 41.053 24.6828 39.623 24.6828C39.6183 24.0139 39.6135 23.3449 39.6086 22.6556C39.6047 22.2305 39.6008 21.8053 39.5964 21.3802C39.5895 20.7062 39.583 20.0322 39.5789 19.3581C39.5755 18.8144 39.5704 18.2706 39.564 17.7269C39.5619 17.52 39.5604 17.3131 39.5596 17.1062C39.5545 15.9107 39.5313 14.9398 38.9061 13.8818C38.2391 13.2499 37.5379 13.0524 36.6281 13.0216C35.4039 13.0643 34.5505 13.5814 33.6331 14.3597C33.5663 14.407 33.4996 14.4542 33.4309 14.5028C33.1537 14.871 33.2007 15.2556 33.2073 15.698C33.2073 15.795 33.2072 15.892 33.2072 15.992C33.2074 16.3127 33.2104 16.6333 33.2134 16.954C33.2141 17.1763 33.2147 17.3986 33.215 17.6209C33.2165 18.2061 33.2203 18.7913 33.2245 19.3765C33.2284 19.9736 33.2301 20.5707 33.2321 21.1679C33.2362 22.3395 33.2429 23.5112 33.2507 24.6828C31.8629 24.6828 30.475 24.6828 29.045 24.6828C29.0388 24.0521 29.0325 23.4214 29.0261 22.7716C29.0216 22.3703 29.017 21.969 29.0122 21.5676C29.0045 20.9317 28.9971 20.2957 28.9913 19.6597C28.9865 19.1465 28.9806 18.6334 28.9739 18.1202C28.9716 17.9252 28.9696 17.7301 28.9681 17.5351C28.9912 15.5712 28.9912 15.5712 28.1529 13.85C27.3742 13.1312 26.682 13.0248 25.6478 13.0469C24.5759 13.1434 23.7292 13.6315 22.9451 14.3571C22.3893 15.1428 22.5033 16.1041 22.5204 17.0286C22.5199 17.2499 22.5189 17.4711 22.5173 17.6923C22.5147 18.2713 22.5196 18.85 22.5262 19.429C22.5315 20.0211 22.5296 20.6131 22.5284 21.2052C22.527 22.3645 22.5343 23.5236 22.5453 24.6828C21.1574 24.6828 19.7695 24.6828 18.3396 24.6828C18.3396 19.636 18.3396 14.5891 18.3396 9.38935C19.6854 9.38935 21.0313 9.38935 22.4179 9.38935C22.4809 9.83095 22.4809 9.83095 22.5453 10.2815C22.6255 10.2307 22.7056 10.1799 22.7882 10.1276C25.2194 8.62284 27.8684 8.63765 30.3195 10.154Z" fill="#131514"/>
<path d="M12.7285 10.2817C12.7706 9.98725 12.8127 9.69285 12.856 9.38953C14.2018 9.38953 15.5476 9.38953 16.9342 9.38953C16.9342 14.4364 16.9342 19.4832 16.9342 24.683C15.5884 24.683 14.2426 24.683 12.856 24.683C12.7929 24.1783 12.7929 24.1783 12.7285 23.6634C12.631 23.7374 12.631 23.7374 12.5314 23.8128C10.8942 24.9855 9.20939 25.114 7.24837 24.9379C5.27044 24.5872 3.47804 23.4255 2.32529 21.7796C1.39503 20.2743 0.929615 18.8308 0.947777 17.0602C0.948835 16.9262 0.949893 16.7923 0.950982 16.6543C0.997238 14.5191 1.75772 12.6288 3.24976 11.0737C5.92503 8.57884 9.66505 8.36767 12.7285 10.2817ZM5.97392 14.3599C5.25735 15.28 5.04961 16.3861 5.09723 17.5366C5.25367 18.6768 5.76361 19.5995 6.64301 20.3419C7.54566 20.984 8.5692 21.2502 9.66984 21.1145C10.8366 20.893 11.8316 20.3541 12.5896 19.4278C12.8293 19.0397 12.8271 18.6304 12.8266 18.1883C12.8289 18.045 12.8289 18.045 12.8312 17.8988C12.8333 17.6977 12.8337 17.4965 12.8326 17.2954C12.8321 16.9899 12.8404 16.6855 12.8493 16.3801C12.8744 15.1458 12.8744 15.1458 12.2541 14.1155C11.9829 13.8942 11.9829 13.8942 11.709 13.7227C11.59 13.6453 11.4711 13.5679 11.3485 13.4882C11.2467 13.442 11.1448 13.3959 11.0399 13.3483C10.9367 13.2998 10.8335 13.2514 10.7272 13.2015C8.91677 12.484 7.24502 12.9796 5.97392 14.3599Z" fill="#131514"/>
<path d="M84.8656 10.1538C86.6293 11.4897 87.6177 13.2087 88.0518 15.3791C88.0518 16.2623 88.0518 17.1455 88.0518 18.0555C84.5611 18.0555 81.0703 18.0555 77.4738 18.0555C78.0104 19.5312 78.3499 20.3529 79.6951 21.0898C80.7446 21.5762 81.7944 21.5939 82.9037 21.273C83.5768 21.0236 84.1535 20.6845 84.7372 20.2688C84.9849 20.1002 85.234 19.9709 85.5029 19.8397C85.8692 20.1876 86.2319 20.539 86.5941 20.8911C86.6985 20.9902 86.8029 21.0893 86.9105 21.1913C87.0577 21.3355 87.0577 21.3355 87.208 21.4826C87.3451 21.6147 87.3451 21.6147 87.485 21.7495C87.6695 22.0063 87.6695 22.0063 87.6494 22.2768C87.1645 23.357 85.7727 24.0065 84.7382 24.4277C84.6107 24.4805 84.4832 24.5332 84.3519 24.5876C82.2048 25.3354 79.6287 25.1572 77.5853 24.2127C75.5733 23.1436 74.3706 21.584 73.6823 19.4335C73.5321 18.893 73.4289 18.3609 73.3955 17.8006C73.3888 17.6912 73.3821 17.5817 73.3751 17.469C73.3048 15.2014 73.9731 13.0429 75.4476 11.2949C77.9466 8.72391 81.8198 8.22452 84.8656 10.1538ZM78.2902 13.6198C77.9452 14.0626 77.7287 14.4319 77.7287 14.9968C79.7474 14.9968 81.7662 14.9968 83.8461 14.9968C83.4203 13.7193 83.1001 13.1673 81.9344 12.5753C80.5727 12.1508 79.2378 12.5784 78.2902 13.6198Z" fill="#131514"/>
<path d="M44.9743 9.38965C46.3621 9.38965 47.75 9.38965 49.18 9.38965C49.1847 10.0387 49.1895 10.6878 49.1944 11.3566C49.1983 11.7696 49.2022 12.1825 49.2066 12.5955C49.2135 13.2499 49.22 13.9043 49.2241 14.5588C49.2275 15.0868 49.2326 15.6148 49.239 16.1429C49.2411 16.3436 49.2426 16.5443 49.2434 16.7451C49.2488 17.9832 49.2809 19.0561 49.9526 20.1349C50.5789 20.7079 51.3161 21.0051 52.167 21.0509C53.4721 20.9774 54.4961 20.3407 55.4248 19.4579C55.6145 19.0785 55.5751 18.6895 55.5784 18.2732C55.5797 18.1774 55.5809 18.0817 55.5822 17.983C55.5863 17.6658 55.5894 17.3486 55.5926 17.0314C55.5952 16.8118 55.5979 16.5921 55.6006 16.3725C55.6076 15.7938 55.6139 15.2151 55.6201 14.6364C55.6265 14.0461 55.6336 13.4558 55.6406 12.8655C55.6543 11.7069 55.6672 10.5483 55.6797 9.38965C57.0255 9.38965 58.3714 9.38965 59.758 9.38965C59.758 14.4365 59.758 19.4833 59.758 24.6831C58.4542 24.6831 57.1504 24.6831 55.8071 24.6831C55.7441 24.1784 55.7441 24.1784 55.6797 23.6636C55.6072 23.7143 55.5348 23.7651 55.4602 23.8174C53.7607 24.9835 51.9953 25.1998 49.968 24.8554C48.1989 24.3572 46.811 23.2924 45.9107 21.7006C45.0248 19.9931 44.9362 18.2976 44.9494 16.4091C44.9498 16.2056 44.9502 16.002 44.9505 15.7985C44.9514 15.268 44.9539 14.7375 44.9568 14.207C44.9599 13.5677 44.961 12.9284 44.9625 12.2891C44.9649 11.3226 44.9698 10.3562 44.9743 9.38965Z" fill="#131514"/>
<path d="M72.2201 10.3212C72.3581 10.4276 72.3581 10.4276 72.4989 10.5363C71.946 11.6101 71.2642 12.5972 70.5872 13.595C70.0275 13.4646 69.5439 13.2251 69.0265 12.9776C68.1891 12.626 67.3167 12.5706 66.4612 12.8781C66.004 13.0501 66.004 13.0501 65.7443 13.3401C65.6379 13.7058 65.6379 13.7058 65.7443 14.1047C66.4425 14.7295 67.4029 15.0039 68.2693 15.3075C69.9486 15.8964 71.6872 16.5479 72.5547 18.2149C73.0347 19.2566 73.0614 20.6273 72.7538 21.7276C72.2019 23.0882 71.1582 23.8688 69.8629 24.4552C67.8797 25.2833 65.3111 25.2201 63.3228 24.4278C62.3993 24.0194 61.5069 23.5551 60.6465 23.0259C60.8132 22.571 61.0128 22.1945 61.2887 21.7968C61.3626 21.6896 61.4365 21.5824 61.5127 21.4719C61.628 21.3067 61.628 21.3067 61.7457 21.1381C61.8236 21.0255 61.9014 20.9129 61.9817 20.7969C62.1733 20.5199 62.3655 20.2434 62.5582 19.9672C62.9907 20.0644 63.2786 20.2155 63.6494 20.4611C64.8742 21.2038 66.231 21.4448 67.656 21.2417C67.9862 21.0501 68.2777 20.8748 68.5481 20.6045C68.6121 20.2437 68.6121 20.2437 68.5481 19.8398C68.0629 19.2363 67.5577 19.0205 66.8515 18.7724C66.6464 18.6963 66.4415 18.6197 66.2367 18.5429C66.1334 18.5045 66.0302 18.4662 65.9238 18.4266C64.1984 17.7736 62.4635 17.0824 61.5844 15.3493C61.1972 14.4029 61.2631 13.1041 61.5944 12.1453C62.1801 10.9179 63.2086 9.98547 64.4644 9.49777C66.9581 8.63066 69.9711 8.83933 72.2201 10.3212Z" fill="#131514"/>
</g>
<defs>
<clipPath id="clip0_2144_28553">
<rect width="87" height="32" fill="white" transform="translate(0.947266)"/>
</clipPath>
</defs>
</svg>