<?xml version="1.0" encoding="utf-8"?>
<svg xmlns="http://www.w3.org/2000/svg" width="100" height="32" viewBox="0 0 100 32" fill="none">
<g clip-path="url(#clip0_3042_16057)">
<path d="M21.7726 3.17969C22.7378 3.17969 23.7031 3.17969 24.6976 3.17969C25.3411 6.07544 25.9846 8.97119 26.6476 11.9547C26.7548 9.05894 26.8621 6.16319 26.9726 3.17969C27.9378 3.17969 28.9031 3.17969 29.8976 3.17969C29.8976 11.3307 29.8976 19.4817 29.8976 27.8797C28.9323 27.8797 27.9671 27.8797 26.9726 27.8797C26.3291 24.8767 25.6856 21.8737 25.0226 18.7797C25.0355 21.653 25.0355 21.653 25.0519 24.5262C25.0527 24.8817 25.0535 25.2372 25.0543 25.6035C25.056 25.9694 25.0577 26.3353 25.0595 26.7123C25.0226 27.5547 25.0226 27.5547 24.6976 27.8797C23.7323 27.8797 22.7671 27.8797 21.7726 27.8797C21.7726 19.7287 21.7726 11.5777 21.7726 3.17969Z" fill="black"/>
<path d="M31.8478 3.17969C33.9928 3.17969 36.1378 3.17969 38.3478 3.17969C40.1764 5.00828 40.1764 5.00828 40.1831 6.93243C40.1882 7.35651 40.1933 7.78058 40.1986 8.21751C40.1957 8.67783 40.1923 9.13814 40.1886 9.59845C40.1897 10.0732 40.1913 10.5479 40.1933 11.0226C40.1957 12.016 40.1923 13.0091 40.1846 14.0025C40.1754 15.2736 40.1807 16.5442 40.1905 17.8153C40.1963 18.7951 40.1945 19.7747 40.1902 20.7545C40.1892 21.2231 40.1905 21.6916 40.1943 22.1601C40.1984 22.8158 40.191 23.4714 40.1831 24.127C40.1818 24.4995 40.1805 24.8721 40.1791 25.2559C39.9728 26.2547 39.9728 26.2547 38.3478 27.8797C36.2028 27.8797 34.0578 27.8797 31.8478 27.8797C31.8478 19.7287 31.8478 11.5777 31.8478 3.17969ZM35.0978 6.10469C35.0978 12.3252 35.0978 18.5457 35.0978 24.9547C35.7413 24.9547 36.3848 24.9547 37.0478 24.9547C37.0478 18.7342 37.0478 12.5137 37.0478 6.10469C36.4043 6.10469 35.7608 6.10469 35.0978 6.10469Z" fill="black"/>
<path d="M17.5475 3.17867C18.5786 3.71824 19.2946 4.39801 19.8225 5.45368C19.8523 6.16393 19.8607 6.87513 19.8594 7.58601C19.8594 7.80483 19.8595 8.02365 19.8595 8.2491C19.8593 8.97362 19.8567 9.69811 19.8542 10.4226C19.8536 10.9245 19.8531 11.4263 19.8528 11.9282C19.8516 13.25 19.8484 14.5719 19.8448 15.8937C19.8415 17.2422 19.84 18.5906 19.8383 19.9391C19.8348 22.5856 19.8293 25.2322 19.8225 27.8787C18.8572 27.8787 17.892 27.8787 16.8975 27.8787C16.8975 24.3395 16.8975 20.8002 16.8975 17.1537C16.254 17.1537 15.6105 17.1537 14.9475 17.1537C14.9475 20.693 14.9475 24.2322 14.9475 27.8787C13.875 27.8787 12.8025 27.8787 11.6975 27.8787C11.6748 25.0733 11.6575 22.2679 11.6469 19.4624C11.6419 18.1596 11.635 16.8569 11.6239 15.5541C11.6133 14.296 11.6075 13.0381 11.605 11.78C11.6032 11.3008 11.5996 10.8217 11.5944 10.3425C11.5873 9.66957 11.5863 8.99689 11.5868 8.32393C11.5846 7.94143 11.5824 7.55893 11.5802 7.16484C11.7424 5.69715 12.2249 4.59934 13.2742 3.55446C14.6196 2.83041 16.0701 2.94383 17.5475 3.17867ZM14.6225 6.10368C14.7297 8.67768 14.837 11.2517 14.9475 13.9037C15.591 13.9037 16.2345 13.9037 16.8975 13.9037C16.8975 11.3297 16.8975 8.75568 16.8975 6.10368C16.1467 6.10368 15.396 6.10368 14.6225 6.10368Z" fill="black"/>
<path d="M1.94739 3.17969C3.98514 3.17969 6.02289 3.17969 8.12239 3.17969C9.74739 4.80469 9.74739 4.80469 9.93187 5.8934C9.92336 6.2987 9.91485 6.704 9.90609 7.12159C9.90379 7.33983 9.90149 7.55807 9.89912 7.78293C9.89007 8.4765 9.86972 9.1692 9.84896 9.86251C9.8408 10.3295 9.83338 10.7965 9.82674 11.2635C9.8135 12.1203 9.79506 12.9764 9.77318 13.8331C9.7351 15.3787 9.76168 16.9194 9.7931 18.4649C9.80271 19.1469 9.81106 19.8289 9.81881 20.5109C9.82536 20.9818 9.83425 21.4527 9.84547 21.9236C9.86126 22.6056 9.86861 23.2874 9.87435 23.9696C9.88116 24.3766 9.88796 24.7836 9.89498 25.2029C9.72109 26.4422 9.42252 26.8013 8.44739 27.5547C6.50705 28.5249 4.11676 27.8797 1.94739 27.8797C1.94739 19.7287 1.94739 11.5777 1.94739 3.17969ZM4.87239 6.10469C4.87239 8.67869 4.87239 11.2527 4.87239 13.9047C5.51589 13.9047 6.15939 13.9047 6.82239 13.9047C6.82239 11.3307 6.82239 8.75669 6.82239 6.10469C6.17889 6.10469 5.53539 6.10469 4.87239 6.10469ZM4.87239 17.1547C4.87239 19.7287 4.87239 22.3027 4.87239 24.9547C5.51589 24.9547 6.15939 24.9547 6.82239 24.9547C6.82239 22.3807 6.82239 19.8067 6.82239 17.1547C6.17889 17.1547 5.53539 17.1547 4.87239 17.1547Z" fill="black"/>
<path d="M67.9228 3.17856C69.1202 3.86277 69.689 4.51604 70.1978 5.77856C70.2847 6.66206 70.2847 6.66206 70.2922 7.68524C70.2984 8.26126 70.2984 8.26126 70.3048 8.84891C70.3055 9.26262 70.3062 9.67634 70.307 10.1026C70.3091 10.529 70.3113 10.9553 70.3135 11.3946C70.3174 12.2967 70.3186 13.1987 70.3182 14.1008C70.3182 15.2534 70.327 16.4058 70.3382 17.5583C70.3472 18.6616 70.3468 19.7649 70.3476 20.8682C70.3523 21.2806 70.3569 21.693 70.3617 22.1179C70.3432 25.7041 70.3432 25.7041 68.8978 27.2286C67.4497 28.194 66.0461 28.0825 64.3478 27.8786C63.1504 27.1944 62.5816 26.5411 62.0728 25.2786C61.9859 24.3951 61.9859 24.3951 61.9784 23.3719C61.9742 22.9879 61.9701 22.6039 61.9658 22.2082C61.9651 21.7945 61.9643 21.3808 61.9636 20.9546C61.9614 20.5282 61.9593 20.1018 61.957 19.6626C61.9532 18.7605 61.952 17.8584 61.9523 16.9563C61.9524 15.8037 61.9435 14.6514 61.9323 13.4988C61.9233 12.3955 61.9237 11.2923 61.923 10.1889C61.9183 9.77652 61.9136 9.36412 61.9088 8.93923C61.9274 5.35306 61.9274 5.35306 63.3728 3.82856C64.8209 2.86314 66.2245 2.97466 67.9228 3.17856ZM64.9978 6.10356C64.9978 12.3241 64.9978 18.5446 64.9978 24.9536C65.6413 24.9536 66.2848 24.9536 66.9478 24.9536C66.9478 18.7331 66.9478 12.5126 66.9478 6.10356C66.3043 6.10356 65.6608 6.10356 64.9978 6.10356Z" fill="black"/>
<path d="M57.8476 3.17925C59.0412 3.77953 59.6943 4.49451 60.1226 5.77925C60.1563 6.40357 60.1709 7.02898 60.175 7.65419C60.1781 8.03928 60.1812 8.42437 60.1844 8.82112C60.1858 9.23753 60.1872 9.65394 60.1886 10.083C60.1905 10.5106 60.1923 10.9382 60.1942 11.3787C60.1976 12.2841 60.1995 13.1895 60.2007 14.0949C60.2025 15.2529 60.2103 16.4109 60.2195 17.5689C60.227 18.6757 60.2277 19.7824 60.2292 20.8893C60.2332 21.3043 60.2373 21.7194 60.2414 22.1471C60.2404 22.5342 60.2394 22.9214 60.2384 23.3202C60.2396 23.6601 60.2408 24 60.242 24.3501C60.069 25.6962 59.5128 26.5514 58.5471 27.4845C57.2178 28.2348 55.7487 28.0786 54.2726 27.8793C53.0752 27.1951 52.5064 26.5418 51.9976 25.2793C51.9107 24.3958 51.9107 24.3958 51.9032 23.3726C51.899 22.9886 51.8949 22.6046 51.8906 22.2089C51.8899 21.7952 51.8892 21.3815 51.8884 20.9553C51.8862 20.5289 51.8841 20.1025 51.8819 19.6633C51.878 18.7612 51.8768 17.8591 51.8771 16.957C51.8772 15.8044 51.8683 14.6521 51.8571 13.4995C51.8481 12.3962 51.8486 11.293 51.8478 10.1896C51.8431 9.77721 51.8384 9.36481 51.8336 8.93992C51.8522 5.35375 51.8522 5.35374 53.2976 3.82924C54.7475 2.86265 56.148 2.9368 57.8476 3.17925ZM54.9226 6.10424C54.9226 12.3248 54.9226 18.5453 54.9226 24.9543C55.6733 24.9543 56.4241 24.9543 57.1976 24.9543C57.1976 18.7338 57.1976 12.5133 57.1976 6.10424C56.4468 6.10424 55.6961 6.10424 54.9226 6.10424Z" fill="black"/>
<path d="M77.9972 3.17918C79.1894 3.86043 79.78 4.51301 80.2722 5.77918C80.3357 6.83036 80.3357 6.83036 80.3128 7.97294C80.307 8.35334 80.3011 8.73374 80.295 9.12567C80.2875 9.41558 80.28 9.70549 80.2722 10.0042C79.3069 10.0042 78.3417 10.0042 77.3472 10.0042C77.3472 8.71719 77.3472 7.43018 77.3472 6.10418C76.7037 6.21143 76.0602 6.31868 75.3972 6.42918C75.3972 12.4352 75.3972 18.4412 75.3972 24.6292C76.0407 24.7365 76.6842 24.8437 77.3472 24.9542C77.3472 22.3802 77.3472 19.8062 77.3472 17.1542C76.9182 17.047 76.4892 16.9397 76.0472 16.8292C76.0472 15.864 76.0472 14.8987 76.0472 13.9042C77.4414 13.9042 78.8357 13.9042 80.2722 13.9042C80.3044 15.4885 80.328 17.0725 80.3436 18.657C80.3501 19.1955 80.359 19.7339 80.3703 20.2722C80.3861 21.0484 80.3934 21.8242 80.3991 22.6005C80.4059 22.8393 80.4126 23.078 80.4195 23.324C80.4202 25.0035 80.0387 25.9424 78.9722 27.2292C77.5241 28.1947 76.1205 28.0831 74.4222 27.8792C73.2251 27.1952 72.6552 26.5419 72.1472 25.2792C72.0625 24.3935 72.0625 24.3935 72.0579 23.3674C72.0548 22.9823 72.0517 22.5973 72.0485 22.2005C72.0488 21.7858 72.0491 21.3711 72.0494 20.9438C72.0473 20.3031 72.0473 20.3031 72.0452 19.6494C72.0428 18.746 72.0429 17.8426 72.0446 16.9391C72.0465 15.7836 72.041 14.6283 72.0334 13.4728C72.0275 12.3678 72.0287 11.2628 72.0291 10.1578C72.0261 9.74373 72.0231 9.32965 72.0201 8.90303C72.0221 8.51694 72.0241 8.13086 72.0262 7.73307C72.026 7.39419 72.0258 7.0553 72.0256 6.70615C72.2019 5.36255 72.7582 4.50582 73.7227 3.57401C75.052 2.82372 76.5211 2.97989 77.9972 3.17918Z" fill="black"/>
<path d="M41.923 3.17969C44.6042 3.17969 47.2855 3.17969 50.048 3.17969C50.048 7.20173 50.048 7.20173 49.6355 8.76127C49.5454 9.11026 49.4554 9.45926 49.3626 9.81883C49.2148 10.364 49.2148 10.364 49.0641 10.9201C48.9138 11.4945 48.9138 11.4945 48.7604 12.0805C48.4421 13.2923 48.1177 14.5024 47.7933 15.7125C47.5765 16.5362 47.36 17.3599 47.1439 18.1837C46.749 19.6819 46.3537 21.18 45.9526 22.6766C45.8324 23.126 45.8324 23.126 45.7098 23.5844C45.498 24.3047 45.498 24.3047 45.173 24.9547C45.8165 24.9547 46.46 24.9547 47.123 24.9547C47.123 23.2387 47.123 21.5227 47.123 19.7547C48.0882 19.7547 49.0535 19.7547 50.048 19.7547C50.048 22.436 50.048 25.1172 50.048 27.8797C47.3667 27.8797 44.6855 27.8797 41.923 27.8797C41.923 24.2233 41.923 24.2233 42.3355 22.6302C42.4255 22.2747 42.5156 21.9192 42.6084 21.5529C42.7069 21.1807 42.8054 20.8085 42.9069 20.425C43.0071 20.0344 43.1073 19.6438 43.2106 19.2414C43.5293 18.0032 43.8535 16.7665 44.1777 15.5297C44.395 14.6891 44.6109 13.8481 44.827 13.0072C45.2222 11.4769 45.6176 9.9466 46.0184 8.41778C46.0985 8.11148 46.1786 7.80518 46.2612 7.48959C46.473 6.75469 46.473 6.75469 46.798 6.10469C46.2617 6.21194 45.7255 6.31919 45.173 6.42969C45.1768 6.75438 45.1805 7.07906 45.1844 7.41358C45.1873 7.83295 45.1903 8.25231 45.1933 8.68438C45.1971 9.10291 45.2008 9.52144 45.2047 9.95267C45.173 10.9797 45.173 10.9797 44.848 11.3047C43.8827 11.3047 42.9175 11.3047 41.923 11.3047C41.923 8.62344 41.923 5.94219 41.923 3.17969Z" fill="black"/>
<path d="M94.7818 3.02108C95.0551 3.02631 95.3285 3.03155 95.6102 3.03695C96.0315 3.05737 96.0315 3.05737 96.4614 3.0782C96.7486 3.08554 97.0357 3.09287 97.3316 3.10042C98.0371 3.11949 98.7423 3.14863 99.4473 3.17977C99.4473 4.14502 99.4473 5.11027 99.4473 6.10477C97.8386 6.10477 96.2298 6.10477 94.5723 6.10477C94.5723 8.67877 94.5723 11.2527 94.5723 13.9047C95.8593 13.9047 97.1463 13.9047 98.4723 13.9047C98.4723 14.9772 98.4723 16.0498 98.4723 17.1548C97.1853 17.1548 95.8983 17.1548 94.5723 17.1548C94.5723 19.7288 94.5723 22.3028 94.5723 24.9548C96.1811 24.9548 97.7898 24.9548 99.4473 24.9548C99.4473 25.9201 99.4473 26.8852 99.4473 27.8797C98.4515 27.9237 97.4577 27.9559 96.4614 27.9813C96.1805 27.9949 95.8996 28.0086 95.6102 28.0226C95.3368 28.0279 95.0634 28.0331 94.7818 28.0385C94.4065 28.0513 94.4065 28.0513 94.0236 28.0643C92.8723 27.7816 92.3966 27.1534 91.6473 26.2547C91.441 25.2559 91.441 25.256 91.437 24.1271C91.4319 23.703 91.4268 23.2788 91.4215 22.8419C91.4244 22.3816 91.4278 21.9214 91.4315 21.4611C91.4304 20.9864 91.4288 20.5116 91.4268 20.0369C91.4244 19.0435 91.4279 18.0504 91.4355 17.0571C91.4447 15.7859 91.4394 14.5154 91.4297 13.2443C91.4238 12.2645 91.4257 11.2848 91.4299 10.305C91.4309 9.83644 91.4296 9.36789 91.4258 8.89937C91.4217 8.24375 91.4291 7.58809 91.437 6.9325C91.439 6.37368 91.439 6.37368 91.441 5.80357C91.806 4.03673 92.9642 2.95925 94.7818 3.02108Z" fill="black"/>
<path d="M82.2228 3.17969C83.188 3.17969 84.1533 3.17969 85.1478 3.17969C85.1478 10.3655 85.1478 17.5512 85.1478 24.9547C85.7913 24.9547 86.4348 24.9547 87.0978 24.9547C87.0978 23.2387 87.0978 21.5227 87.0978 19.7547C88.1703 19.7547 89.2428 19.7547 90.3478 19.7547C90.3478 22.436 90.3478 25.1172 90.3478 27.8797C87.6665 27.8797 84.9853 27.8797 82.2228 27.8797C82.2228 19.7287 82.2228 11.5777 82.2228 3.17969Z" fill="black"/>
</g>
<defs>
<clipPath id="clip0_3042_16057">
<rect width="99" height="32" fill="white" transform="translate(0.947388)"/>
</clipPath>
</defs>
</svg>