<?xml version="1.0" encoding="utf-8"?>
<svg xmlns="http://www.w3.org/2000/svg" width="43" height="32" viewBox="0 0 43 32" fill="none">
<g clip-path="url(#clip0_2144_28499)">
<path d="M18.6067 -0.000488281C19.1295 0.00246293 19.6077 0.0681877 20.1148 0.193701C20.1907 0.212312 20.2665 0.230922 20.3446 0.250097C22.3487 0.766617 24.1475 1.9256 25.271 3.68842C26.3636 5.54562 26.6451 7.53049 26.634 9.65432C26.634 9.81944 26.6342 9.98456 26.6345 10.1497C26.6349 10.5926 26.6338 11.0355 26.6324 11.4784C26.6311 11.9433 26.6312 12.4083 26.6311 12.8732C26.6308 13.652 26.6296 14.4307 26.6277 15.2094C26.6253 16.2101 26.6244 17.2108 26.6241 18.2115C26.6237 19.0727 26.6227 19.9339 26.6215 20.7951C26.6212 21.0719 26.6209 21.3488 26.6207 21.6256C26.6203 22.0589 26.6195 22.4921 26.6183 22.9253C26.6179 23.0847 26.6176 23.244 26.6176 23.4034C26.6174 23.6198 26.6168 23.8363 26.616 24.0527C26.616 24.1166 26.6161 24.1804 26.6162 24.2462C26.6138 24.6785 26.6138 24.6785 26.5209 24.7713C24.5174 24.8542 22.4143 24.0422 20.9429 22.6932C19.1974 21.0298 18.2829 18.7387 18.18 16.3397C18.1771 16.1532 18.1765 15.9669 18.177 15.7804C18.1768 15.7098 18.1767 15.6392 18.1766 15.5665C18.1762 15.3324 18.1764 15.0984 18.1767 14.8643C18.1766 14.6961 18.1765 14.5278 18.1763 14.3596C18.1761 13.9055 18.1765 13.4514 18.177 12.9974C18.1774 12.7143 18.1776 12.4313 18.1777 12.1482C18.1798 9.37999 18.1915 6.61186 18.2168 3.84377C18.219 3.58389 18.221 3.324 18.2229 3.06412C18.2259 2.6577 18.2297 2.25129 18.2343 1.84489C18.2358 1.69594 18.2371 1.54699 18.2381 1.39803C18.2394 1.19587 18.2418 0.993741 18.2445 0.79159C18.2447 0.732277 18.2449 0.672965 18.2451 0.611855C18.2549 0.0459989 18.2549 0.0459989 18.6067 -0.000488281Z" fill="black"/>
<path d="M27.453 8.22998C29.393 8.27407 31.2611 9.04973 32.6886 10.3546C32.7586 10.4169 32.8287 10.4792 32.9008 10.5434C34.183 11.7459 34.9245 13.3198 35.2719 15.0212C35.2961 15.1361 35.2961 15.1361 35.3207 15.2533C35.5983 17.4085 35.1319 19.6527 33.8327 21.4147C32.4363 23.2162 30.5634 24.3656 28.3046 24.7371C28.0604 24.7664 27.825 24.7847 27.5793 24.7866C27.4741 24.7884 27.4741 24.7884 27.3668 24.7902C27.1887 24.771 27.1887 24.771 27.0221 24.6043C27.0054 24.3929 26.9993 24.1906 27.0003 23.9791C27 23.9139 26.9997 23.8486 26.9994 23.7814C26.9985 23.5616 26.9988 23.3418 26.9992 23.122C26.9988 22.9649 26.9984 22.8077 26.9979 22.6506C26.9968 22.223 26.9967 21.7953 26.9969 21.3676C26.997 21.011 26.9966 20.6544 26.9962 20.2978C26.9953 19.4566 26.9953 18.6154 26.9958 17.7743C26.9963 16.9057 26.9952 16.0371 26.9935 15.1685C26.992 14.4235 26.9915 13.6786 26.9918 12.9337C26.9919 12.4884 26.9917 12.0431 26.9905 11.5979C26.9895 11.1791 26.9896 10.7604 26.9907 10.3417C26.9909 10.1878 26.9907 10.034 26.99 9.88012C26.9891 9.6704 26.9898 9.46074 26.9909 9.25102C26.9903 9.18985 26.9896 9.12868 26.989 9.06566C26.9918 8.80517 27.0083 8.62901 27.1377 8.40017C27.2721 8.27132 27.2721 8.27132 27.453 8.22998Z" fill="black"/>
<path d="M17.1645 8.24577C17.2414 8.24265 17.3184 8.23954 17.3976 8.23633C17.602 8.27181 17.602 8.27181 17.7378 8.40076C17.8936 8.67957 17.8866 8.93307 17.8838 9.24406C17.8841 9.30876 17.8845 9.37347 17.8849 9.44013C17.8859 9.65714 17.8851 9.8741 17.8844 10.0911C17.8847 10.2466 17.8851 10.4021 17.8857 10.5576C17.8868 10.9801 17.8864 11.4026 17.8856 11.8251C17.885 12.2669 17.8855 12.7087 17.8859 13.1506C17.8864 13.8926 17.8858 14.6346 17.8846 15.3766C17.8832 16.2349 17.8837 17.0931 17.8851 17.9514C17.8862 18.6879 17.8864 19.4243 17.8857 20.1607C17.8853 20.6008 17.8853 21.0408 17.8861 21.4809C17.8868 21.8946 17.8863 22.3082 17.8849 22.7219C17.8845 22.8739 17.8846 23.0258 17.8852 23.1778C17.8859 23.385 17.885 23.5921 17.8838 23.7992C17.8843 23.8596 17.8849 23.92 17.8854 23.9823C17.8825 24.2364 17.8637 24.4161 17.7442 24.6425C17.602 24.7715 17.602 24.7715 17.2947 24.8079C15.0473 24.6952 13.0699 23.6523 11.5396 22.0372C10.211 20.4985 9.48144 18.5749 9.49281 16.5425C9.49322 16.455 9.49363 16.3676 9.49405 16.2775C9.52376 14.2975 10.2642 12.3994 11.6021 10.9384C11.6664 10.8674 11.7306 10.7964 11.7968 10.7233C13.1607 9.2865 15.1677 8.29935 17.1645 8.24577Z" fill="black"/>
<path d="M8.54286 8.25065C8.62922 8.2485 8.71559 8.24635 8.80457 8.24414C8.87633 8.25316 8.94808 8.26219 9.02201 8.27148C9.22561 8.57688 9.21221 8.80421 9.2104 9.15727C9.21088 9.25533 9.21088 9.25533 9.21137 9.35537C9.21223 9.57512 9.21189 9.79486 9.21156 10.0146C9.21193 10.1719 9.21236 10.3291 9.21285 10.4864C9.21397 10.9141 9.21402 11.3417 9.21381 11.7694C9.21372 12.126 9.21412 12.4826 9.21452 12.8393C9.21545 13.6803 9.21549 14.5214 9.21498 15.3624C9.21448 16.2311 9.21551 17.0997 9.21728 17.9684C9.21875 18.7134 9.21925 19.4584 9.21898 20.2034C9.21882 20.6487 9.21905 21.094 9.2202 21.5393C9.22125 21.9579 9.22109 22.3765 9.22 22.7951C9.2198 22.949 9.22003 23.1028 9.22072 23.2567C9.22159 23.4663 9.22092 23.6758 9.21986 23.8854C9.22048 23.9467 9.22109 24.0081 9.22172 24.0713C9.21915 24.3111 9.21541 24.4806 9.08126 24.6839C8.51747 25.0288 7.53847 24.6655 6.93872 24.5212C5.74644 24.2008 4.72762 23.6284 3.77212 22.8545C3.71755 22.8127 3.66298 22.7709 3.60676 22.7279C2.04169 21.4823 1.14205 19.4092 0.881879 17.4708C0.658493 15.0743 1.36797 12.8853 2.89128 11.024C4.27625 9.40093 6.38529 8.28318 8.54286 8.25065Z" fill="black"/>
<path d="M37.2671 21.438C37.7407 21.8906 37.9896 22.2639 38.0431 22.9276C38.0247 23.5312 37.7863 24.0211 37.3504 24.4379C36.8508 24.7565 36.3524 24.8605 35.7671 24.7713C35.2084 24.619 34.8312 24.3401 34.5172 23.8546C34.2736 23.3454 34.2728 22.7824 34.4495 22.2505C34.6615 21.7512 35.0573 21.4562 35.5172 21.188C36.0654 20.99 36.7966 21.1138 37.2671 21.438Z" fill="black"/>
<path d="M35.9387 27.771C38.1007 27.771 38.1007 27.771 38.5148 28.1776C38.6802 28.5006 38.6498 28.8345 38.6053 29.1876C38.4803 29.448 38.4803 29.448 38.3553 29.6043C38.4086 29.6679 38.4619 29.7315 38.5168 29.797C38.786 30.1478 38.8019 30.4201 38.772 30.8543C38.6323 31.1616 38.4743 31.3424 38.1887 31.5209C37.9288 31.6075 37.7491 31.6138 37.4768 31.6124C37.3559 31.6121 37.3559 31.6121 37.2326 31.6118C37.1304 31.611 37.0283 31.6102 36.9231 31.6095C36.4358 31.6069 36.4358 31.6069 35.9387 31.6043C35.9387 30.3393 35.9387 29.0743 35.9387 27.771ZM36.3554 28.1877C36.3554 28.6001 36.3554 29.0126 36.3554 29.4376C36.5968 29.4489 36.8377 29.4572 37.0793 29.4637C37.1474 29.4672 37.2154 29.4707 37.2855 29.4742C37.6535 29.4817 37.8076 29.4732 38.1119 29.2466C38.3004 29.026 38.3004 29.026 38.2772 28.7189C38.2116 28.4447 38.2116 28.4447 38.0647 28.2961C37.7444 28.1302 37.4392 28.1612 37.0845 28.172C36.9795 28.1737 36.9795 28.1737 36.8723 28.1754C36.7 28.1784 36.5277 28.1829 36.3554 28.1877ZM36.3554 29.771C36.3554 30.2659 36.3554 30.7609 36.3554 31.2709C36.5633 31.2761 36.7713 31.2812 36.9856 31.2865C37.0499 31.2888 37.1142 31.2911 37.1804 31.2934C37.6047 31.2985 37.8961 31.2207 38.272 31.0209C38.4051 30.7547 38.3977 30.4766 38.3553 30.1876C38.1714 29.9402 38.0648 29.8686 37.772 29.771C37.6607 29.7643 37.5492 29.762 37.4377 29.7628C37.3808 29.763 37.3239 29.7632 37.2653 29.7634C37.1936 29.7642 37.1219 29.765 37.0481 29.7657C36.8195 29.7675 36.5909 29.7692 36.3554 29.771Z" fill="black"/>
<path d="M28.853 27.771C30.9832 27.771 30.9832 27.771 31.3894 28.1043C31.5772 28.4648 31.5876 28.7891 31.5196 29.1876C31.353 29.448 31.353 29.448 31.1863 29.6043C31.2533 29.6593 31.3204 29.7143 31.3894 29.771C31.6519 30.0782 31.7128 30.2885 31.6863 30.6876C31.5672 31.0699 31.4576 31.3215 31.103 31.5209C30.8431 31.6075 30.6634 31.6138 30.3911 31.6124C30.2702 31.6121 30.2702 31.6121 30.1469 31.6118C30.0447 31.611 29.9426 31.6102 29.8374 31.6095C29.3501 31.6069 29.3501 31.6069 28.853 31.6043C28.853 30.3393 28.853 29.0743 28.853 27.771ZM29.1864 28.1877C29.1864 28.6001 29.1864 29.0126 29.1864 29.4376C29.4277 29.4444 29.6689 29.4493 29.9103 29.4533C29.9783 29.4553 30.0464 29.4574 30.1165 29.4596C30.5114 29.4644 30.7886 29.4563 31.103 29.1876C31.2144 28.908 31.2144 28.908 31.1863 28.6043C31.0169 28.3622 30.8863 28.2088 30.5869 28.1545C30.3738 28.1466 30.1649 28.1513 29.952 28.1616C29.8783 28.1635 29.8047 28.1654 29.7288 28.1673C29.5479 28.1722 29.3671 28.1797 29.1864 28.1877ZM29.1864 29.771C29.1864 30.2659 29.1864 30.7609 29.1864 31.2709C29.5241 31.2761 29.5241 31.2761 29.8686 31.2813C29.9739 31.2836 29.9739 31.2836 30.0813 31.2859C30.5075 31.2891 30.8493 31.2688 31.1707 30.9584C31.3039 30.706 31.31 30.5531 31.2696 30.2709C31.083 29.9667 31.083 29.9667 30.7793 29.8017C30.6022 29.7708 30.4402 29.7615 30.2606 29.7628C30.1755 29.7631 30.1755 29.7631 30.0888 29.7634C30.0178 29.7642 29.9469 29.765 29.8738 29.7657C29.647 29.7675 29.4201 29.7692 29.1864 29.771Z" fill="black"/>
<path d="M23.8577 27.771C25.9307 27.771 25.9307 27.771 26.6356 28.4422C27.0027 28.8714 27.0685 29.3476 27.0474 29.9002C26.9839 30.4608 26.7692 30.8213 26.383 31.2257C25.5737 31.7675 24.8278 31.6043 23.8577 31.6043C23.8577 30.3393 23.8577 29.0743 23.8577 27.771ZM24.191 28.1877C24.191 29.2051 24.191 30.2226 24.191 31.2709C25.3597 31.2967 25.3597 31.2967 26.3107 30.7553C26.5973 30.2394 26.7731 29.7921 26.6073 29.2052C26.3729 28.6849 26.0472 28.3968 25.5243 28.1877C25.0843 28.1877 24.6443 28.1877 24.191 28.1877Z" fill="black"/>
<path d="M22.1857 27.8654C22.601 28.1011 22.8921 28.3403 23.1027 28.771C23.1027 28.8535 23.1027 28.936 23.1027 29.021C22.9152 29.0522 22.9152 29.0522 22.686 29.021C22.6362 28.9454 22.5863 28.8697 22.535 28.7918C22.3021 28.4459 22.0799 28.3117 21.686 28.1877C21.2144 28.107 20.8296 28.1815 20.4133 28.4146C20.1119 28.6375 19.9686 28.9232 19.8527 29.271C19.7919 29.8325 19.8299 30.3159 20.1861 30.771C20.52 31.0939 20.8493 31.2154 21.311 31.2397C21.769 31.2174 22.098 31.0813 22.436 30.771C22.4824 30.6936 22.5288 30.6163 22.5766 30.5366C22.6127 30.4764 22.6488 30.4163 22.686 30.3543C22.91 30.3283 22.91 30.3283 23.1027 30.3543C23.0676 30.7515 22.8921 31.0088 22.6027 31.2709C22.1475 31.5906 21.6557 31.7093 21.1027 31.6876C20.4836 31.5777 20.0659 31.3722 19.6704 30.8751C19.3328 30.2696 19.2852 29.6932 19.4361 29.021C19.6579 28.4975 20.0282 28.0952 20.5418 27.8459C21.0655 27.6736 21.6695 27.6702 22.1857 27.8654Z" fill="black"/>
<path d="M33.5246 27.771C33.6896 27.771 33.8546 27.771 34.0246 27.771C34.0612 27.8588 34.0977 27.9466 34.1354 28.0371C34.2719 28.365 34.4084 28.6928 34.5449 29.0207C34.6039 29.1622 34.6628 29.3037 34.7217 29.4452C34.8067 29.6494 34.8917 29.8536 34.9767 30.0577C35.0028 30.1203 35.0288 30.183 35.0557 30.2475C35.0807 30.3075 35.1057 30.3675 35.1315 30.4293C35.1672 30.5155 35.1672 30.5155 35.2037 30.6033C35.2509 30.7148 35.2992 30.8257 35.3487 30.9362C35.4556 31.175 35.5246 31.3391 35.5246 31.6043C35.3871 31.6043 35.2496 31.6043 35.1079 31.6043C35.0379 31.443 34.9686 31.2815 34.8996 31.1199C34.8609 31.03 34.8223 30.9401 34.7824 30.8474C34.6913 30.6043 34.6913 30.6043 34.6913 30.3543C34.0863 30.3543 33.4813 30.3543 32.858 30.3543C32.7755 30.6293 32.693 30.9043 32.608 31.1876C32.5548 31.3274 32.5008 31.467 32.4413 31.6043C32.3038 31.6043 32.1663 31.6043 32.0247 31.6043C32.0838 31.1901 32.2453 30.8252 32.4049 30.4418C32.4488 30.3351 32.4488 30.3351 32.4936 30.2262C32.5869 29.9997 32.6808 29.7733 32.7746 29.547C32.8378 29.3938 32.901 29.2405 32.9641 29.0872C33.0795 28.8075 33.1949 28.5278 33.3108 28.2483C33.334 28.1922 33.3573 28.1361 33.3812 28.0783C33.4256 27.9743 33.4741 27.8721 33.5246 27.771ZM33.6913 28.3543C33.4713 28.9043 33.2513 29.4543 33.0246 30.021C33.5196 30.021 34.0146 30.021 34.5246 30.021C34.3046 29.471 34.0846 28.921 33.858 28.3543C33.803 28.3543 33.748 28.3543 33.6913 28.3543Z" fill="black"/>
<path d="M38.9409 27.7707C39.1336 27.7496 39.1336 27.7496 39.3576 27.7707C39.4927 27.912 39.4927 27.912 39.6082 28.1082C39.6509 28.1785 39.6935 28.2488 39.7375 28.3213C39.7805 28.3957 39.8236 28.4701 39.868 28.5467C39.9547 28.6924 40.0417 28.8379 40.129 28.9832C40.1859 29.0807 40.1859 29.0807 40.244 29.1802C40.3516 29.3449 40.4632 29.4712 40.6076 29.604C40.6382 29.5484 40.6688 29.4929 40.7004 29.4357C40.8397 29.1853 40.9814 28.9363 41.1232 28.6873C41.1954 28.5562 41.1954 28.5562 41.2692 28.4223C41.3167 28.3396 41.3642 28.2569 41.4132 28.1717C41.4564 28.0949 41.4996 28.0181 41.5441 27.939C41.6909 27.7707 41.6909 27.7707 41.9165 27.7456C41.9796 27.7539 42.0426 27.7621 42.1075 27.7707C42.054 28.0781 41.9184 28.2852 41.7455 28.5425C40.8203 29.9618 40.8203 29.9618 40.6909 31.6039C40.5809 31.6039 40.4709 31.6039 40.3576 31.6039C40.367 31.5208 40.3765 31.4376 40.3862 31.352C40.4572 30.0595 39.7645 29.1515 39.062 28.1313C38.9409 27.9373 38.9409 27.9373 38.9409 27.7707Z" fill="black"/>
</g>
<defs>
<clipPath id="clip0_2144_28499">
<rect width="42.9474" height="32" fill="white"/>
</clipPath>
</defs>
</svg>