<?xml version="1.0" encoding="utf-8"?>
<svg xmlns="http://www.w3.org/2000/svg" width="102" height="32" viewBox="0 0 102 32" fill="none">
<g clip-path="url(#clip0_3042_16145)">
<mask id="mask0_3042_16145" style="mask-type:luminance" maskUnits="userSpaceOnUse" x="1" y="0" width="101" height="32">
<path d="M101.895 0H1.89465V32H101.895V0Z" fill="white"/>
</mask>
<g mask="url(#mask0_3042_16145)">
<path d="M1.94739 6.03223C10.7565 6.03223 10.7565 6.03223 12.0247 6.3549C12.0828 6.3694 12.1409 6.38391 12.2008 6.39885C13.8348 6.8212 15.3849 7.55547 16.6101 8.73216C16.752 8.87007 16.752 8.87007 16.9042 8.98813C17.1096 9.15289 17.2686 9.34693 17.4356 9.5497C17.4791 9.60235 17.5225 9.65501 17.5673 9.70926C18.5181 10.9015 19.1284 12.2854 19.4603 13.7692C19.4775 13.8455 19.4775 13.8455 19.4951 13.9233C19.6697 14.7423 19.7268 15.5579 19.7227 16.3931C19.7225 16.4595 19.7225 16.4595 19.7224 16.5272C19.7194 17.2752 19.6763 18.0044 19.5348 18.7405C19.5253 18.7902 19.5159 18.8398 19.5062 18.891C19.0226 21.34 17.6606 23.5341 15.5924 24.9484C15.397 25.0785 15.1979 25.2016 14.9961 25.3216C14.9636 25.3409 14.9311 25.3603 14.8976 25.3802C11.117 27.596 5.89225 26.8534 1.94739 26.8534C1.94739 19.9824 1.94739 13.1114 1.94739 6.03223ZM6.31586 10.4007C6.31586 14.3885 6.31586 18.3763 6.31586 22.4849C8.61526 22.5556 8.61526 22.5556 10.9042 22.2438C10.9531 22.2315 11.0019 22.2193 11.0523 22.2067C11.998 21.9609 12.8403 21.5436 13.5777 20.8963C13.6202 20.8593 13.6627 20.8222 13.7065 20.784C14.8571 19.71 15.2714 18.1786 15.3471 16.6542C15.377 14.9029 14.8855 13.2915 13.6664 12.0034C11.7049 10.1223 8.79011 10.4007 6.31586 10.4007Z" fill="black"/>
<path d="M91.6 6.00062C91.6914 6.00098 91.6914 6.00098 91.7847 6.00135C92.6921 6.00635 93.5496 6.04707 94.4225 6.3162C94.4705 6.33017 94.5184 6.34415 94.5678 6.35855C95.985 6.77907 97.3413 7.49266 98.4506 8.47206C98.5051 8.51975 98.5597 8.56743 98.6159 8.61656C100.492 10.2802 101.886 12.6883 102.095 15.2195C102.116 15.6226 102.116 16.0254 102.113 16.4289C102.113 16.4898 102.113 16.5508 102.112 16.6136C102.107 17.5205 102.068 18.3792 101.797 19.2514C101.783 19.3015 101.768 19.3515 101.752 19.4031C101.562 20.0313 101.309 20.6197 100.998 21.1974C100.953 21.2832 100.908 21.3699 100.864 21.4567C99.6349 23.8344 97.3454 25.6272 94.8196 26.4495C94.7747 26.4643 94.7298 26.4792 94.6836 26.4945C93.6755 26.8044 92.6782 26.8945 91.6284 26.8856C91.5675 26.8853 91.5065 26.8851 91.4437 26.8849C90.5365 26.8799 89.6785 26.8396 88.8059 26.57C88.7574 26.5557 88.7088 26.5415 88.6588 26.5267C85.8888 25.6965 83.6058 23.7885 82.2355 21.2542C81.9206 20.6441 81.6676 20.0066 81.466 19.3507C81.4532 19.3093 81.4403 19.2679 81.4271 19.2252C81.1623 18.3116 81.1144 17.4178 81.1185 16.4715C81.1186 16.41 81.1187 16.3485 81.1188 16.2851C81.1221 15.3729 81.1588 14.5122 81.4306 13.6348C81.4454 13.5847 81.4603 13.5347 81.4757 13.4831C81.6772 12.8187 81.9512 12.2017 82.2816 11.5924C82.3019 11.5541 82.3222 11.5157 82.3432 11.4763C83.6163 9.082 85.7894 7.34883 88.3379 6.47221C88.4147 6.44521 88.4147 6.44521 88.493 6.41767C89.5148 6.08004 90.53 5.99151 91.6 6.00062ZM89.9973 10.4577C89.9281 10.477 89.8588 10.4963 89.7874 10.5162C88.9396 10.7742 88.2352 11.1983 87.5578 11.7626C87.5069 11.8041 87.4561 11.8455 87.4038 11.8882C86.2157 12.9005 85.5228 14.4579 85.389 15.9958C85.2919 17.6353 85.8138 19.1939 86.877 20.4428C86.914 20.488 86.951 20.5332 86.9891 20.5798C87.9385 21.6949 89.398 22.4385 90.8483 22.5987C91.6506 22.6342 92.4546 22.6545 93.2311 22.4285C93.3004 22.4092 93.3698 22.3899 93.4412 22.37C94.2553 22.122 94.9581 21.7223 95.6139 21.1803C95.6712 21.1331 95.7284 21.0858 95.7874 21.0372C96.2239 20.664 96.5537 20.2446 96.862 19.762C96.8828 19.7299 96.9036 19.6978 96.925 19.6647C97.7875 18.3116 98.0407 16.6836 97.7037 15.1201C97.3122 13.4608 96.3093 12.062 94.8675 11.1547C93.4432 10.2919 91.6089 9.98362 89.9973 10.4577Z" fill="black"/>
<path d="M64.4111 6.03223C65.8527 6.03223 67.2943 6.03223 68.7796 6.03223C68.7796 8.7282 68.7796 11.4241 68.7796 14.2018C71.513 14.2018 74.2464 14.2018 77.0627 14.2018C77.0627 15.6434 77.0627 17.085 77.0627 18.5703C74.3293 18.5703 71.5959 18.5703 68.7796 18.5703C68.7796 21.285 68.7796 23.9997 68.7796 26.7966C67.338 26.7966 65.8964 26.7966 64.4111 26.7966C64.4111 24.0819 64.4111 21.3672 64.4111 18.5703C61.6777 18.5703 58.9443 18.5703 56.1281 18.5703C56.1281 17.1287 56.1281 15.6871 56.1281 14.2018C58.8615 14.2018 61.5949 14.2018 64.4111 14.2018C64.4111 11.5058 64.4111 8.8099 64.4111 6.03223Z" fill="black"/>
<path d="M40.5264 6.03223C41.968 6.03223 43.4096 6.03223 44.8948 6.03223C44.8948 8.7282 44.8948 11.4241 44.8948 14.2018C47.6283 14.2018 50.3617 14.2018 53.1779 14.2018C53.1779 15.6434 53.1779 17.085 53.1779 18.5703C50.4445 18.5703 47.7111 18.5703 44.8948 18.5703C44.8948 21.285 44.8948 23.9997 44.8948 26.7966C43.4533 26.7966 42.0117 26.7966 40.5264 26.7966C40.5264 24.0819 40.5264 21.3672 40.5264 18.5703C37.793 18.5703 35.0595 18.5703 32.2433 18.5703C32.2433 17.1287 32.2433 15.6871 32.2433 14.2018C34.9767 14.2018 37.7101 14.2018 40.5264 14.2018C40.5264 11.5058 40.5264 8.8099 40.5264 6.03223Z" fill="black"/>
<path d="M23.8458 6.03223C25.2874 6.03223 26.729 6.03223 28.2143 6.03223C28.2143 12.8845 28.2143 19.7367 28.2143 26.7966C26.7727 26.7966 25.3311 26.7966 23.8458 26.7966C23.8458 19.9444 23.8458 13.0921 23.8458 6.03223Z" fill="black"/>
</g>
</g>
<defs>
<clipPath id="clip0_3042_16145">
<rect width="101" height="32" fill="white" transform="translate(0.947388)"/>
</clipPath>
</defs>
</svg>