<svg xmlns="http://www.w3.org/2000/svg" version="1.1" xmlns:xlink="http://www.w3.org/1999/xlink" width="128" height="128"><svg width="128" height="128" viewBox="0 0 128 128" fill="none" xmlns="http://www.w3.org/2000/svg">
<g clip-path="url(#clip0_8477_57310)">
<path d="M127.996 62.1197C127.996 79.5271 120.419 94.4515 109.58 100.865C108.998 101.21 108.316 101.376 107.638 101.376H87.7917C87.1137 101.376 86.4444 101.21 85.8495 100.865C79.7999 97.2843 74.7608 91.0286 71.4975 83.1905C71.3313 82.7883 70.7496 82.832 70.6533 83.2604C68.8774 90.5434 66.2003 96.4143 62.9808 100.073C62.246 100.904 61.1918 101.372 60.0807 101.372H50.5185C49.3944 101.372 48.3402 100.904 47.6053 100.06C43.5372 95.4045 40.3309 87.1686 38.708 77.0834C38.6249 76.5589 37.8769 76.5851 37.82 77.1097C36.7921 86.6702 34.7799 94.5739 32.2297 99.3127C31.5517 100.572 30.2438 101.372 28.8178 101.372H24.4041C22.9738 101.372 21.6833 100.598 21.001 99.3433C18.7263 95.1422 16.8804 88.4538 15.7825 80.3315C15.7125 79.7938 14.9339 79.82 14.8814 80.3577C14.1858 88.139 13.0617 94.5739 11.6619 98.8056C11.1501 100.353 9.66286 101.376 8.02688 101.376H7.69443C5.98847 101.376 4.50121 100.353 3.98942 98.7924C1.5967 91.5663 9.06372e-05 77.8572 9.06372e-05 62.1197C-0.0130322 47.2696 1.39986 34.2381 3.56512 26.7366C4.03754 25.106 5.56416 24 7.25701 24H8.35495C10.0609 24 11.5875 25.1191 12.06 26.7497C13.2673 30.9507 14.2383 36.8785 14.8639 43.8686C14.9032 44.4063 15.695 44.4194 15.765 43.8948C16.7492 36.6119 18.3327 30.4786 20.288 26.2645C20.9397 24.883 22.3001 24 23.8136 24H29.3952C30.9087 24 32.2691 24.8699 32.9077 26.2382C35.143 31.0731 36.8927 38.4129 37.8332 47.1297C37.89 47.6543 38.638 47.6674 38.7211 47.156C40.1909 37.9933 42.9817 30.3387 46.5205 25.53C47.2378 24.5508 48.3927 24 49.6131 24H61.0212C62.2416 24 63.392 24.5508 64.1138 25.5344C66.8215 29.2109 69.1092 34.5704 70.6621 40.9834C70.7583 41.4118 71.3444 41.4555 71.5107 41.0533C74.4108 34.0895 78.6976 28.3846 83.8636 24.6776C84.5023 24.2229 85.2809 24 86.0726 24H109.387C110.179 24 110.958 24.2229 111.596 24.6907C121.338 31.6939 128 45.8183 128 62.1197" fill="#EB512F"></path>
</g>
<defs>
<clipPath id="SvgjsClipPath1002">
<rect width="128" height="128" fill="white"></rect>
</clipPath>
</defs>
</svg><style>@media (prefers-color-scheme: light) { :root { filter: none; } }
@media (prefers-color-scheme: dark) { :root { filter: none; } }
</style></svg>