<?xml version="1.0" encoding="utf-8"?>
<svg xmlns="http://www.w3.org/2000/svg" width="141" height="32" viewBox="0 0 141 32" fill="none">
<g clip-path="url(#clip0_2144_28602)">
<path d="M85.6462 6.0101C86.5303 6.0101 87.4143 6.0101 88.3252 6.0101C88.4961 6.69398 88.4961 6.69398 88.5638 6.99492C88.5716 7.02967 88.5795 7.06442 88.5876 7.10022C88.6134 7.21433 88.6391 7.32845 88.6648 7.44257C88.6835 7.52533 88.7022 7.60809 88.721 7.69084C88.7715 7.91466 88.822 8.1385 88.8725 8.36234C88.9208 8.57658 88.9692 8.7908 89.0176 9.00502C89.4326 10.843 89.8461 12.6813 90.2594 14.5196C90.6139 16.096 90.9688 17.6723 91.3242 19.2485C91.3586 19.401 91.3929 19.5534 91.4273 19.7058C91.5203 20.1185 91.6134 20.5312 91.7067 20.9438C91.7341 21.0652 91.7615 21.1867 91.7889 21.3081C91.82 21.446 91.8511 21.5839 91.8824 21.7218C91.8989 21.7949 91.9154 21.868 91.9318 21.9411C91.9415 21.9838 91.9512 22.0265 91.9612 22.0705C91.9695 22.1075 91.9779 22.1444 91.9865 22.1825C92.0054 22.2696 92.0054 22.2696 92.0459 22.344C92.2088 21.5634 92.3716 20.7829 92.5343 20.0023C92.5405 19.9724 92.5467 19.9426 92.5531 19.9119C92.9468 18.0231 93.339 16.1339 93.7296 14.2445C93.8215 13.7995 93.9135 13.3544 94.0056 12.9094C94.0112 12.8821 94.0168 12.8549 94.0226 12.8268C94.2875 11.5458 94.5537 10.265 94.8202 8.98434C94.8254 8.95949 94.8305 8.93463 94.8359 8.90903C94.9258 8.47696 95.0157 8.04489 95.1057 7.61283C95.1137 7.57444 95.1217 7.53604 95.1299 7.49648C95.1454 7.42191 95.161 7.34735 95.1766 7.27279C95.2173 7.07742 95.2577 6.88197 95.2976 6.68641C95.3061 6.64498 95.3146 6.60355 95.3234 6.56086C95.3397 6.48109 95.356 6.4013 95.3721 6.32148C95.3794 6.28605 95.3867 6.25062 95.3942 6.21411C95.4006 6.18272 95.4069 6.15133 95.4135 6.11898C95.4318 6.04731 95.4318 6.04731 95.469 6.0101C95.5432 6.0066 95.6175 6.00573 95.6918 6.00587C95.7395 6.00588 95.7872 6.00588 95.8363 6.00588C95.8887 6.00607 95.9411 6.00627 95.9935 6.00646C96.0469 6.00653 96.1002 6.00659 96.1536 6.00662C96.2942 6.00677 96.4348 6.00713 96.5754 6.00754C96.7188 6.00792 96.8622 6.00809 97.0056 6.00828C97.2872 6.00868 97.5687 6.00933 97.8503 6.0101C97.9479 6.39056 98.0372 6.77153 98.1162 7.15638C98.1271 7.20884 98.1379 7.26131 98.1488 7.31377C98.1782 7.45553 98.2075 7.59732 98.2367 7.73912C98.2681 7.89152 98.2997 8.0439 98.3312 8.19627C98.3854 8.45796 98.4395 8.71966 98.4935 8.98138C98.5791 9.39578 98.6648 9.81015 98.7505 10.2245C98.7796 10.3648 98.8086 10.5051 98.8376 10.6453C98.8448 10.6801 98.852 10.7149 98.8594 10.7507C98.9105 10.9977 98.9616 11.2447 99.0127 11.4917C99.1868 12.3336 99.3611 13.1754 99.536 14.0172C99.5438 14.055 99.5438 14.055 99.5518 14.0937C99.6187 14.4157 99.6857 14.7378 99.7526 15.0599C99.8027 15.3009 99.8528 15.542 99.9029 15.783C99.9728 16.1196 100.043 16.4562 100.113 16.7928C100.26 17.5014 100.407 18.21 100.554 18.9186C100.56 18.9471 100.566 18.9756 100.572 19.0049C100.631 19.2874 100.689 19.5699 100.748 19.8523C100.821 20.2041 100.894 20.556 100.967 20.9078C100.973 20.933 100.978 20.9583 100.983 20.9844C101.009 21.107 101.034 21.2296 101.06 21.3523C101.105 21.5728 101.151 21.7934 101.197 22.014C101.212 22.086 101.227 22.1581 101.242 22.2301C101.252 22.2805 101.263 22.3309 101.273 22.3812C101.499 21.467 101.705 20.5489 101.91 19.63C101.959 19.4112 102.008 19.1924 102.057 18.9736C102.067 18.929 102.077 18.8844 102.087 18.8384C102.107 18.7474 102.128 18.6564 102.148 18.5654C102.179 18.427 102.21 18.2885 102.241 18.1501C102.447 17.2309 102.654 16.312 102.861 15.3932C102.899 15.222 102.938 15.0508 102.976 14.8796C103.054 14.5347 103.132 14.1897 103.21 13.8447C103.39 13.0463 103.569 12.2479 103.749 11.4495C103.808 11.1882 103.867 10.9269 103.926 10.6657C104.107 9.86155 104.288 9.05742 104.468 8.25312C104.516 8.04101 104.564 7.8289 104.611 7.6168C104.655 7.42164 104.699 7.22645 104.742 7.03124C104.769 6.9139 104.795 6.79657 104.821 6.67924C104.833 6.6255 104.845 6.57174 104.857 6.51798C104.873 6.44552 104.89 6.37309 104.906 6.30066C104.915 6.2604 104.924 6.22015 104.933 6.17867C104.957 6.08451 104.957 6.08451 104.994 6.0101C105.878 6.0101 106.762 6.0101 107.673 6.0101C107.631 6.34496 107.631 6.34496 107.597 6.48421C107.586 6.5318 107.586 6.5318 107.574 6.58035C107.565 6.61421 107.557 6.64807 107.548 6.68296C107.539 6.71961 107.531 6.75626 107.521 6.79402C107.492 6.91572 107.462 7.03737 107.432 7.15901C107.411 7.24561 107.389 7.33221 107.368 7.41881C107.323 7.60376 107.278 7.78869 107.233 7.97359C107.161 8.26598 107.089 8.55842 107.018 8.85088C107.006 8.90018 106.994 8.94947 106.982 8.99877C106.964 9.0728 106.946 9.14683 106.928 9.22086C106.891 9.36947 106.855 9.51807 106.819 9.66667C106.616 10.4958 106.415 11.3252 106.215 12.155C106.152 12.416 106.089 12.677 106.026 12.938C106.011 13.0032 105.995 13.0684 105.979 13.1336C105.797 13.8909 105.613 14.648 105.43 15.4051C105.101 16.7615 104.773 18.118 104.445 19.4745C104.411 19.6179 104.376 19.7612 104.341 19.9046C104.118 20.8283 103.895 21.7521 103.673 22.6761C103.646 22.7888 103.619 22.9015 103.592 23.0141C103.574 23.0861 103.557 23.1582 103.54 23.2302C103.527 23.2822 103.527 23.2822 103.514 23.3353C103.466 23.5365 103.418 23.7376 103.369 23.9388C103.341 24.0597 103.311 24.1807 103.282 24.3016C103.269 24.3568 103.256 24.4121 103.243 24.4674C103.225 24.5417 103.207 24.6159 103.189 24.6902C103.179 24.7314 103.169 24.7727 103.159 24.8151C103.134 24.9113 103.134 24.9113 103.097 24.9857C102.004 24.9857 100.911 24.9857 99.7851 24.9857C99.6987 24.6404 99.6133 24.2978 99.5402 23.9499C99.5317 23.9097 99.5232 23.8695 99.5144 23.8281C99.4863 23.6956 99.4584 23.5631 99.4304 23.4306C99.4102 23.3348 99.3899 23.2391 99.3696 23.1434C99.3261 22.9381 99.2827 22.7328 99.2394 22.5275C99.176 22.2272 99.1124 21.9269 99.0488 21.6266C99.019 21.4858 98.9892 21.345 98.9594 21.2042C98.9535 21.176 98.9475 21.1479 98.9414 21.1189C98.8987 20.9172 98.856 20.7155 98.8133 20.5138C98.6509 19.7457 98.4882 18.9776 98.3253 18.2095C98.3198 18.1839 98.3144 18.1583 98.3088 18.1319C98.2543 17.8748 98.1997 17.6178 98.1452 17.3607C98.0806 17.0563 98.016 16.7518 97.9514 16.4474C97.5212 14.4193 97.0905 12.3913 96.6596 10.3633C96.6078 10.5119 96.5667 10.6582 96.5344 10.8121C96.5202 10.879 96.5202 10.879 96.5057 10.9472C96.4955 10.9963 96.4852 11.0454 96.475 11.0945C96.4639 11.1468 96.4529 11.1992 96.4418 11.2515C96.4115 11.3949 96.3814 11.5383 96.3514 11.6817C96.3191 11.8356 96.2866 11.9894 96.2542 12.1432C96.191 12.4431 96.128 12.743 96.065 13.0428C95.9917 13.3922 95.9181 13.7415 95.8446 14.0909C95.6643 14.9476 95.4843 15.8043 95.3044 16.6611C95.2834 16.761 95.2624 16.861 95.2414 16.961C94.9637 18.2835 94.6862 19.606 94.4089 20.9285C94.4036 20.9539 94.3982 20.9793 94.3928 21.0055C94.2741 21.5712 94.1556 22.1369 94.0371 22.7027C93.978 22.9846 93.9189 23.2665 93.8597 23.5484C93.822 23.7282 93.7844 23.908 93.7468 24.0878C93.7199 24.216 93.693 24.3443 93.666 24.4725C93.6521 24.5393 93.6521 24.5393 93.6379 24.6075C93.6254 24.667 93.6254 24.667 93.6126 24.7277C93.6055 24.7617 93.5983 24.7957 93.591 24.8308C93.5714 24.9113 93.5714 24.9113 93.5342 24.9857C92.4414 24.9857 91.3487 24.9857 90.2228 24.9857C90.1144 24.5955 90.0068 24.2076 89.9127 23.8141C89.9057 23.7849 89.8987 23.7557 89.8915 23.7257C89.8843 23.6955 89.877 23.6653 89.8696 23.6342C89.8539 23.569 89.8382 23.5039 89.8224 23.4388C89.7889 23.2996 89.7554 23.1603 89.7219 23.0211C89.6679 22.7964 89.6138 22.5718 89.5596 22.3472C89.5027 22.111 89.4458 21.8748 89.3889 21.6386C89.2636 21.1183 89.1379 20.598 89.0119 20.0779C88.9993 20.0258 88.9993 20.0258 88.9864 19.9727C88.9438 19.7965 88.9011 19.6203 88.8584 19.444C88.7696 19.0779 88.681 18.7117 88.5923 18.3456C88.5832 18.308 88.5741 18.2704 88.5647 18.2316C88.4096 17.5909 88.2547 16.9501 88.0999 16.3093C88.0887 16.263 88.0775 16.2166 88.066 16.1688C87.9742 15.789 87.8824 15.4091 87.7906 15.0292C87.494 13.8016 87.1971 12.5741 86.8994 11.3467C86.7822 10.8639 86.6652 10.3811 86.5482 9.89825C86.4588 9.52934 86.3694 9.16045 86.2798 8.79158C86.1991 8.45918 86.1185 8.12674 86.0381 7.79427C85.9965 7.62241 85.9549 7.45057 85.9131 7.27876C85.8748 7.12136 85.8367 6.96393 85.7987 6.80646C85.7848 6.74913 85.7709 6.69182 85.7569 6.63452C85.7379 6.55667 85.7191 6.47877 85.7004 6.40085C85.6899 6.35743 85.6793 6.31401 85.6685 6.26928C85.6462 6.15893 85.6462 6.15893 85.6462 6.0101Z" fill="#131313"/>
<path d="M54.3157 6.00977C55.0892 6.00977 55.8628 6.00977 56.6597 6.00977C56.672 8.2567 56.6843 10.5036 56.697 12.8187C56.7952 12.7204 56.8934 12.6222 56.9946 12.521C57.0566 12.459 57.1186 12.397 57.1806 12.335C57.2081 12.3062 57.2081 12.3062 57.2361 12.2769C57.3913 12.1166 57.5537 11.9813 57.7364 11.8536C57.7639 11.8344 57.7913 11.8152 57.8196 11.7954C59.12 10.9059 60.7547 10.7207 62.282 10.9968C63.3453 11.2073 64.2407 11.6646 65.0314 12.4094C65.0557 12.4313 65.08 12.4531 65.105 12.4757C66.0788 13.3894 66.5634 14.7648 66.7918 16.0464C66.8 16.0924 66.8 16.0924 66.8084 16.1393C66.9122 16.7737 66.9432 17.4113 66.9406 18.0532C66.9405 18.1065 66.9405 18.1065 66.9404 18.1609C66.9376 19.0317 66.8434 19.8606 66.6313 20.7066C66.6209 20.749 66.6209 20.749 66.6102 20.7923C66.3361 21.8767 65.783 22.8678 65.0065 23.669C64.9643 23.7127 64.9231 23.7574 64.8822 23.8023C64.0493 24.6911 62.7191 25.2095 61.5156 25.2535C61.3638 25.2573 61.2121 25.258 61.0603 25.2576C60.9671 25.2575 60.874 25.2583 60.7809 25.2593C60.2369 25.2614 59.7062 25.1961 59.1852 25.0342C59.1391 25.0201 59.1391 25.0201 59.0921 25.0057C58.7846 24.9073 58.5041 24.7695 58.2225 24.6133C58.1823 24.5918 58.1422 24.5703 58.1008 24.5482C57.8311 24.3986 57.5987 24.2204 57.3667 24.018C57.3344 23.9903 57.3021 23.9625 57.2689 23.934C57.0576 23.7488 56.8874 23.5625 56.697 23.3483C56.6847 23.8885 56.6724 24.4288 56.6597 24.9854C55.8862 24.9854 55.1127 24.9854 54.3157 24.9854C54.3157 18.7234 54.3157 12.4615 54.3157 6.00977ZM57.7252 14.1253C56.6281 15.3872 56.4599 17.281 56.5596 18.874C56.6619 20.1934 57.046 21.5576 58.0364 22.4925C58.8932 23.2139 59.9422 23.4304 61.0391 23.34C61.8033 23.2594 62.5536 23.0143 63.1338 22.4925C63.1666 22.4631 63.1995 22.4338 63.2333 22.4036C64.2959 21.3996 64.5326 19.8277 64.5813 18.4355C64.6213 16.8139 64.3821 15.0241 63.2237 13.7956C62.5604 13.1557 61.6555 12.8939 60.7526 12.8559C60.7077 12.8536 60.7077 12.8536 60.662 12.8512C59.5022 12.8199 58.5019 13.2782 57.7252 14.1253Z" fill="#131313"/>
<path d="M50.5633 12.0005C50.5931 12.0267 50.6228 12.0529 50.6534 12.08C51.4606 12.8382 51.7757 13.945 51.9028 15.0142C51.9061 15.041 51.9093 15.0678 51.9127 15.0953C51.9493 15.439 51.9457 15.7827 51.9459 16.1279C51.946 16.1986 51.9462 16.2692 51.9464 16.3399C51.9469 16.4915 51.9472 16.643 51.9474 16.7945C51.9478 17.0342 51.9486 17.2739 51.9494 17.5136C51.9517 18.195 51.9537 18.8764 51.9549 19.5578C51.9556 19.9347 51.9567 20.3115 51.9582 20.6884C51.959 20.8876 51.9596 21.0868 51.9597 21.286C51.9597 21.4731 51.9603 21.6603 51.9613 21.8475C51.9616 21.9161 51.9617 21.9846 51.9615 22.0532C51.9614 22.147 51.9619 22.2408 51.9626 22.3346C51.9624 22.3616 51.9622 22.3885 51.962 22.4163C51.965 22.6504 52.0112 22.8617 52.1818 23.0324C52.5036 23.1702 52.7644 23.0753 53.0934 22.9766C53.0934 23.6273 53.0934 24.2781 53.0934 24.9485C52.4239 25.2163 51.6161 25.4371 50.9116 25.1439C50.4725 24.9113 50.0944 24.4902 49.9308 24.0184C49.864 23.7614 49.821 23.4994 49.782 23.237C49.7652 23.2618 49.7485 23.2866 49.7312 23.3121C49.007 24.3499 47.8385 24.8671 46.6286 25.1276C46.0611 25.2252 45.5036 25.2592 44.9283 25.2579C44.8149 25.2578 44.7016 25.2587 44.5882 25.2596C43.3148 25.2638 42.2074 24.9113 41.2882 24.0095C40.5251 23.2101 40.1947 22.1179 40.2118 21.0294C40.2464 20.0163 40.6536 19.1604 41.3802 18.4537C42.4793 17.4983 44.0705 17.2943 45.4575 17.1282C47.6351 16.9183 47.6351 16.9183 49.4471 15.8235C49.6891 15.4908 49.5834 14.8312 49.5308 14.4375C49.4483 14.0124 49.1922 13.6874 48.8378 13.4399C47.7304 12.7633 46.1087 12.7509 44.8729 13.033C44.2383 13.1902 43.6716 13.4867 43.3079 14.0469C43.0721 14.4501 42.935 14.8612 42.8595 15.3206C42.8528 15.3608 42.8462 15.401 42.8394 15.4424C42.8344 15.473 42.8293 15.5036 42.8242 15.5351C42.5474 15.4988 42.2707 15.4624 41.9939 15.4259C41.8998 15.4135 41.8057 15.4011 41.7116 15.3888C41.5761 15.371 41.4408 15.3531 41.3054 15.3353C41.2634 15.3298 41.2214 15.3243 41.1781 15.3186C41.1387 15.3134 41.0992 15.3082 41.0586 15.3028C41.024 15.2983 40.9895 15.2937 40.9539 15.2891C40.8452 15.2737 40.7371 15.2559 40.6289 15.2375C40.6495 14.2988 41.0699 13.3766 41.6707 12.6702C41.6913 12.6446 41.7119 12.6191 41.7331 12.5927C41.9111 12.3773 42.1201 12.2083 42.3405 12.0377C42.3723 12.0123 42.4041 11.9869 42.4368 11.9608C42.7192 11.7439 43.0229 11.5901 43.3451 11.4424C43.3878 11.4224 43.4306 11.4025 43.4746 11.3819C44.0845 11.1172 44.7675 10.9745 45.4287 10.9215C45.454 10.9194 45.4793 10.9174 45.5053 10.9153C47.128 10.7891 49.2692 10.8577 50.5633 12.0005ZM49.4251 17.9976C48.2862 18.5592 46.9839 18.7303 45.7377 18.8907C45.2405 18.9549 44.7517 19.0181 44.2753 19.1814C44.2501 19.1899 44.225 19.1984 44.1991 19.2071C43.8835 19.3163 43.6041 19.4521 43.3451 19.6651C43.3215 19.6836 43.298 19.7022 43.2737 19.7212C42.9018 20.048 42.7589 20.5579 42.7219 21.0325C42.6895 21.5802 42.8177 22.0924 43.1808 22.516C43.7769 23.1034 44.5912 23.3032 45.4069 23.3124C46.5667 23.3002 47.6733 23.0171 48.5541 22.2324C48.585 22.205 48.6159 22.1776 48.6477 22.1494C49.3715 21.4689 49.6412 20.5576 49.6742 19.5895C49.6792 19.3139 49.6772 19.0384 49.675 18.7629C49.6746 18.6802 49.6743 18.5976 49.674 18.5149C49.6732 18.3154 49.6719 18.1159 49.6703 17.9164C49.5744 17.9164 49.5097 17.9559 49.4251 17.9976Z" fill="#131313"/>
<path d="M5.76836 6.00012C5.80067 6.00027 5.83299 6.00042 5.86629 6.00057C5.9003 6.00044 5.9343 6.00031 5.96934 6.00018C6.08213 5.99985 6.19491 6.00007 6.3077 6.00032C6.38583 6.00027 6.46396 6.0002 6.54209 6.0001C6.70599 5.99999 6.86989 6.00015 7.03379 6.0005C7.24425 6.00092 7.4547 6.00068 7.66516 6.00023C7.82654 5.99997 7.98792 6.00005 8.1493 6.00024C8.22692 6.00029 8.30453 6.00023 8.38215 6.00006C8.49048 5.99987 8.59881 6.00016 8.70714 6.00057C8.73946 6.00042 8.77178 6.00027 8.80508 6.00012C9.02696 6.0017 9.02696 6.0017 9.10988 6.08462C9.1176 6.19178 9.12069 6.29545 9.12056 6.40269C9.12082 6.43561 9.12107 6.46852 9.12133 6.50244C9.12184 6.57404 9.12218 6.64565 9.12237 6.71725C9.12267 6.83044 9.12344 6.94362 9.12432 7.0568C9.12642 7.33791 9.12773 7.61902 9.12907 7.90014C9.13023 8.13758 9.13169 8.37501 9.13354 8.61245C9.13429 8.7242 9.1346 8.83595 9.13489 8.94771C9.13538 9.01594 9.13588 9.08416 9.13641 9.15238C9.13637 9.18366 9.13633 9.21493 9.1363 9.24716C9.13108 9.4136 9.13108 9.4136 9.2215 9.54487C9.31349 9.55218 9.40132 9.55483 9.49335 9.55423C9.52169 9.55434 9.55004 9.55445 9.57924 9.55457C9.67473 9.55485 9.77021 9.55461 9.8657 9.55438C9.93396 9.55448 10.0022 9.55461 10.0705 9.55478C10.2177 9.55509 10.365 9.55517 10.5122 9.55508C10.745 9.55498 10.9778 9.55551 11.2106 9.55616C11.8726 9.55791 12.5346 9.5588 13.1967 9.55904C13.5621 9.55918 13.9275 9.55985 14.2929 9.56109C14.5244 9.56185 14.7558 9.56193 14.9873 9.56153C15.1313 9.56143 15.2753 9.56195 15.4193 9.56265C15.4861 9.56285 15.5529 9.56279 15.6198 9.56246C15.7109 9.56205 15.8021 9.56255 15.8933 9.56327C15.9198 9.56293 15.9462 9.56259 15.9735 9.56224C16.0976 9.56416 16.1786 9.5817 16.2888 9.63999C16.3911 9.76151 16.3911 9.86184 16.3884 10.0139C16.3887 10.0568 16.3887 10.0568 16.3891 10.1006C16.3896 10.1967 16.3889 10.2927 16.3881 10.3887C16.3882 10.4576 16.3884 10.5264 16.3887 10.5952C16.3892 10.7434 16.3891 10.8916 16.3885 11.0398C16.3876 11.274 16.388 11.5081 16.3886 11.7423C16.3895 12.1546 16.3893 12.567 16.3888 12.9794C16.3882 13.6006 16.3883 14.2218 16.3896 14.843C16.39 15.076 16.3899 15.309 16.3892 15.5419C16.3889 15.6866 16.3891 15.8312 16.3894 15.9759C16.3894 16.0432 16.3892 16.1104 16.3889 16.1777C16.3884 16.2693 16.3886 16.3608 16.389 16.4523C16.3886 16.4792 16.3883 16.5061 16.388 16.5338C16.3875 16.6154 16.3875 16.6154 16.4025 16.7258C16.5465 16.8218 16.6661 16.8111 16.8331 16.8109C16.8656 16.8112 16.8982 16.8114 16.9317 16.8117C17.0024 16.8122 17.0731 16.8125 17.1439 16.8127C17.2556 16.813 17.3674 16.8138 17.4792 16.8147C17.7568 16.8168 18.0343 16.8181 18.3119 16.8194C18.5465 16.8206 18.7811 16.8221 19.0156 16.8239C19.126 16.8247 19.2363 16.825 19.3467 16.8253C19.4141 16.8257 19.4814 16.8263 19.5488 16.8268C19.5796 16.8267 19.6105 16.8267 19.6423 16.8267C19.8544 16.829 19.8544 16.829 19.9372 16.9119C19.9448 17.0211 19.9478 17.1269 19.9475 17.2362C19.9478 17.2866 19.9478 17.2866 19.948 17.338C19.9486 17.4494 19.9485 17.5607 19.9484 17.6721C19.9486 17.7494 19.9487 17.8266 19.9489 17.9038C19.9492 18.0658 19.9492 18.2277 19.949 18.3897C19.9488 18.5976 19.9494 18.8055 19.9503 19.0133C19.9508 19.1728 19.9509 19.3323 19.9507 19.4918C19.9508 19.5685 19.951 19.6451 19.9513 19.7218C19.9518 19.8289 19.9515 19.9359 19.9511 20.043C19.9514 20.0748 19.9517 20.1067 19.952 20.1395C19.9501 20.3513 19.9501 20.3513 19.8979 20.4361C19.7875 20.5089 19.6756 20.4991 19.5476 20.4979C19.5191 20.4981 19.4905 20.4983 19.4611 20.4985C19.3651 20.4989 19.2692 20.4985 19.1732 20.4982C19.1045 20.4983 19.0358 20.4985 18.9671 20.4988C18.7803 20.4993 18.5935 20.4991 18.4067 20.4987C18.2114 20.4985 18.0161 20.4987 17.8209 20.4989C17.4928 20.4991 17.1648 20.4988 16.8368 20.4983C16.4574 20.4977 16.0779 20.4979 15.6985 20.4985C15.373 20.499 15.0475 20.4991 14.722 20.4988C14.5274 20.4986 14.3329 20.4986 14.1384 20.499C13.9555 20.4993 13.7726 20.4991 13.5897 20.4984C13.5225 20.4983 13.4553 20.4983 13.3881 20.4986C13.2965 20.4989 13.2049 20.4985 13.1133 20.4979C13.0866 20.4982 13.0599 20.4984 13.0324 20.4987C12.9244 20.4974 12.8391 20.4874 12.7397 20.4444C12.6527 20.3359 12.6614 20.2284 12.6632 20.0953C12.6629 20.0527 12.6629 20.0527 12.6626 20.0092C12.6621 19.9136 12.6627 19.8181 12.6633 19.7225C12.6631 19.6542 12.6629 19.5858 12.6626 19.5174C12.6622 19.37 12.6622 19.2226 12.6626 19.0752C12.6632 18.8423 12.6627 18.6094 12.662 18.3765C12.6608 17.9241 12.6608 17.4718 12.6609 17.0195C12.6609 16.4437 12.6605 15.868 12.659 15.2922C12.6585 15.0605 12.6585 14.8289 12.659 14.5972C12.6591 14.4532 12.6589 14.3093 12.6584 14.1653C12.6584 14.0984 12.6585 14.0315 12.6588 13.9646C12.6592 13.8734 12.6589 13.7823 12.6584 13.6912C12.6587 13.6646 12.659 13.6379 12.6593 13.6104C12.6582 13.5098 12.6539 13.4314 12.6052 13.3422C12.4929 13.281 12.3808 13.2875 12.2561 13.2887C12.2277 13.2885 12.1993 13.2884 12.17 13.2882C12.0744 13.2878 11.9789 13.2881 11.8834 13.2885C11.815 13.2883 11.7466 13.2881 11.6782 13.2879C11.5308 13.2874 11.3834 13.2873 11.236 13.2875C11.0031 13.2878 10.7702 13.2872 10.5373 13.2865C10.0429 13.285 9.54847 13.2846 9.05407 13.2842C8.52038 13.2838 7.9867 13.2832 7.45301 13.2816C7.22132 13.2809 6.98963 13.2807 6.75794 13.281C6.61398 13.2811 6.47003 13.2806 6.32608 13.2801C6.25916 13.28 6.19225 13.28 6.12534 13.2803C6.03421 13.2806 5.94312 13.2802 5.85199 13.2797C5.82532 13.2799 5.79865 13.2802 5.77117 13.2804C5.67071 13.2793 5.59217 13.2748 5.50293 13.2265C5.44124 13.1129 5.44835 12.9986 5.44963 12.8727C5.44948 12.8437 5.44933 12.8148 5.44918 12.785C5.44882 12.6879 5.44926 12.5907 5.4497 12.4935C5.44961 12.424 5.44947 12.3544 5.44929 12.2849C5.44894 12.0958 5.44929 11.9067 5.44978 11.7176C5.4502 11.52 5.45005 11.3224 5.44998 11.1248C5.44995 10.7929 5.45036 10.4611 5.45104 10.1293C5.45183 9.74519 5.45196 9.3611 5.45173 8.97702C5.45152 8.60804 5.45173 8.23907 5.45215 7.87009C5.45232 7.71282 5.45235 7.55555 5.45227 7.39829C5.4522 7.21325 5.4525 7.02822 5.45309 6.84318C5.45325 6.77511 5.45328 6.70704 5.45318 6.63898C5.45306 6.54638 5.4534 6.45379 5.45385 6.36119C5.45371 6.33398 5.45357 6.30677 5.45343 6.27873C5.45565 6.02509 5.5225 6.00187 5.76836 6.00012Z" fill="#131313"/>
<path d="M74.3759 10.8798C76.0648 10.8422 77.6427 11.3567 78.8749 12.5215C80.1583 13.7737 80.7472 15.729 80.7759 17.4865C80.7776 17.6412 80.7777 17.796 80.7774 17.9508C80.7772 18.0476 80.7774 18.1444 80.7776 18.2412C80.7776 18.3031 80.7775 18.365 80.7774 18.4269C80.7775 18.4557 80.7776 18.4844 80.7777 18.5141C80.7771 18.6463 80.7676 18.7546 80.7353 18.8839C77.2973 18.8839 73.8594 18.8839 70.3172 18.8839C70.5642 20.16 70.794 21.1794 71.6939 22.1209C71.7167 22.1465 71.7395 22.172 71.7629 22.1984C72.439 22.9292 73.4999 23.2025 74.4599 23.2454C75.4604 23.274 76.451 23.0368 77.214 22.3646C77.6383 21.9547 77.9255 21.4411 78.1164 20.8875C78.168 20.7814 78.168 20.7814 78.2332 20.755C78.3322 20.7422 78.4167 20.75 78.5158 20.7627C78.5754 20.7702 78.5754 20.7702 78.6362 20.7778C78.6789 20.7835 78.7216 20.7891 78.7656 20.795C78.8097 20.8006 78.8537 20.8063 78.8991 20.8121C78.9922 20.8241 79.0852 20.8363 79.1783 20.8486C79.3208 20.8674 79.4634 20.8856 79.606 20.9037C79.6964 20.9155 79.7868 20.9273 79.8772 20.9391C79.9199 20.9446 79.9626 20.95 80.0066 20.9556C80.0464 20.9609 80.0861 20.9662 80.127 20.9717C80.162 20.9763 80.1969 20.9809 80.2328 20.9856C80.3248 21.0044 80.3936 21.033 80.4748 21.0791C80.1023 22.4891 79.3122 23.6805 78.0467 24.435C77.1499 24.9546 76.1277 25.2486 75.0885 25.2538C75.0545 25.2541 75.0205 25.2543 74.9854 25.2545C74.9136 25.2548 74.8418 25.2551 74.77 25.2552C74.663 25.2556 74.556 25.2567 74.449 25.2579C72.7858 25.2674 71.2227 24.7331 70.0196 23.572C69.9883 23.543 69.957 23.5141 69.9248 23.4843C68.6734 22.2947 68.1403 20.518 67.9731 18.8467C68.7467 18.8467 69.5202 18.8467 70.3172 18.8467C70.3172 18.2328 70.3172 17.6188 70.3172 16.9863C69.5559 16.9863 68.7947 16.9863 68.0104 16.9863C68.0349 16.6671 68.064 16.3747 68.1313 16.0654C68.1396 16.0267 68.1479 15.988 68.1565 15.9482C68.4519 14.6058 69.0469 13.4569 70.0196 12.4843C70.0383 12.4638 70.0571 12.4433 70.0764 12.4222C71.0422 11.3815 72.6801 10.9509 74.0502 10.8902C74.1587 10.8865 74.2673 10.8841 74.3759 10.8798ZM71.4845 14.1744C70.8236 14.9329 70.4533 15.9601 70.3544 16.9491C73.0188 16.9491 75.6833 16.9491 78.4284 16.9491C78.404 16.4395 78.404 16.4395 78.3284 15.9422C78.322 15.9112 78.3155 15.8802 78.3088 15.8483C78.0936 14.8745 77.5581 13.9947 76.7122 13.447C75.0523 12.4649 72.7873 12.7476 71.4845 14.1744Z" fill="#131313"/>
<path d="M113.514 10.8841C113.547 10.8856 113.58 10.8872 113.614 10.8887C115.454 10.9812 117.067 11.58 118.331 12.9577C119.576 14.3578 119.97 16.2642 119.962 18.0883C119.962 18.1391 119.962 18.1391 119.962 18.191C119.96 18.7507 119.935 19.2983 119.839 19.851C119.833 19.887 119.827 19.9231 119.82 19.9602C119.523 21.6189 118.695 23.1401 117.309 24.1298C116.26 24.8466 115.002 25.2476 113.729 25.2536C113.694 25.2538 113.658 25.254 113.621 25.2542C113.546 25.2546 113.471 25.2548 113.395 25.255C113.283 25.2553 113.171 25.2565 113.058 25.2577C111.274 25.2674 109.674 24.6688 108.379 23.4369C107.461 22.4918 106.946 21.2901 106.695 20.0115C106.69 19.9828 106.684 19.9542 106.678 19.9247C106.569 19.3238 106.542 18.7281 106.544 18.1186C106.544 18.0809 106.544 18.0433 106.545 18.0045C106.546 17.4347 106.564 16.8781 106.668 16.3163C106.674 16.2807 106.68 16.2451 106.687 16.2084C107 14.5089 107.828 12.9735 109.27 11.9767C110.509 11.1522 112.037 10.8134 113.514 10.8841ZM110.5 13.8235C110.473 13.8446 110.446 13.8657 110.419 13.8874C109.677 14.4911 109.277 15.4371 109.056 16.3419C109.049 16.3715 109.041 16.401 109.034 16.4314C108.909 16.9758 108.886 17.5162 108.888 18.0721C108.888 18.1057 108.889 18.1393 108.889 18.1739C108.89 18.6656 108.903 19.1462 109.012 19.6278C109.018 19.6577 109.025 19.6876 109.032 19.7185C109.212 20.5172 109.529 21.2629 110.053 21.8974C110.084 21.935 110.115 21.9725 110.147 22.0112C110.829 22.8083 111.833 23.2135 112.862 23.296C113.943 23.3683 115.07 23.1527 115.921 22.4469C116.013 22.3649 116.103 22.2806 116.193 22.1951C116.23 22.1622 116.23 22.1622 116.268 22.1286C117.21 21.2587 117.568 19.8589 117.644 18.6232C117.707 16.9715 117.448 15.3411 116.313 14.0794C115.6 13.3153 114.604 12.9412 113.571 12.8887C112.45 12.854 111.365 13.0668 110.5 13.8235Z" fill="#131313"/>
<path d="M128.323 11.2193C128.695 11.2064 129.067 11.1965 129.439 11.1904C129.612 11.1875 129.784 11.1836 129.957 11.1772C130.124 11.1711 130.291 11.1678 130.458 11.1664C130.521 11.1654 130.585 11.1634 130.648 11.1603C131.131 11.1382 131.131 11.1382 131.287 11.2733C131.401 11.4061 131.484 11.5527 131.562 11.7086C131.613 11.8085 131.675 11.9002 131.738 11.993C131.782 12.0599 131.826 12.1268 131.869 12.1937C131.905 12.2483 131.905 12.2483 131.941 12.3039C132.113 12.5679 132.284 12.8319 132.456 13.0961C132.61 13.3326 132.764 13.569 132.918 13.8052C133.092 14.0717 133.265 14.3383 133.439 14.6052C133.618 14.8805 133.797 15.1557 133.976 15.4307C133.999 15.4658 134.022 15.501 134.045 15.5372C134.078 15.5877 134.078 15.5877 134.112 15.6393C134.133 15.6717 134.154 15.7041 134.176 15.7374C134.256 15.8599 134.339 15.9808 134.422 16.1015C134.462 16.1679 134.462 16.1679 134.462 16.2423C134.613 16.1083 134.708 15.9478 134.813 15.7772C134.853 15.7133 134.893 15.6495 134.933 15.5856C134.963 15.5363 134.963 15.5363 134.995 15.486C135.095 15.3261 135.198 15.1679 135.301 15.0098C135.332 14.9633 135.332 14.9633 135.363 14.9159C135.403 14.8543 135.443 14.7928 135.483 14.7312C135.572 14.594 135.661 14.4566 135.75 14.3191C135.767 14.2933 135.784 14.2674 135.801 14.2407C135.834 14.1891 135.868 14.1375 135.901 14.0858C135.949 14.0114 135.998 13.937 136.046 13.8626C136.222 13.5906 136.398 13.3181 136.572 13.0449C136.798 12.6906 137.026 12.3368 137.255 11.9844C137.288 11.9333 137.288 11.9333 137.322 11.8811C137.343 11.8485 137.364 11.8159 137.386 11.7822C137.405 11.7543 137.423 11.7263 137.442 11.6974C137.465 11.6624 137.489 11.6275 137.513 11.5914C137.527 11.5606 137.541 11.5297 137.556 11.498C137.618 11.3805 137.671 11.3048 137.773 11.2193C137.994 11.1665 138.209 11.1759 138.434 11.183C138.498 11.1837 138.563 11.1842 138.628 11.1846C138.797 11.186 138.967 11.1897 139.137 11.1938C139.31 11.1976 139.483 11.1993 139.657 11.2012C139.996 11.2051 140.336 11.2115 140.676 11.2193C140.513 11.5054 140.513 11.5054 140.423 11.6282C140.405 11.6541 140.386 11.68 140.366 11.7067C140.346 11.7339 140.326 11.7611 140.306 11.7891C140.263 11.8486 140.219 11.9081 140.176 11.9677C140.154 11.9979 140.132 12.0281 140.109 12.0592C140.006 12.2006 139.904 12.3425 139.801 12.4844C139.68 12.6523 139.559 12.8202 139.437 12.988C139.241 13.2593 139.045 13.5312 138.852 13.8052C138.64 14.1076 138.424 14.4075 138.207 14.7069C138.105 14.8465 138.005 14.9863 137.904 15.1261C137.781 15.2953 137.659 15.4645 137.537 15.6336C137.34 15.9063 137.143 16.1792 136.948 16.4533C136.841 16.6033 136.733 16.7527 136.625 16.9019C136.409 17.2004 136.196 17.5007 135.987 17.805C136.038 17.9116 136.095 18.0046 136.165 18.0994C136.185 18.1274 136.206 18.1554 136.227 18.1842C136.249 18.2141 136.272 18.2439 136.294 18.2747C136.318 18.306 136.341 18.3374 136.365 18.3696C136.542 18.6087 136.724 18.844 136.908 19.0784C137.087 19.3076 137.26 19.5411 137.432 19.7758C137.632 20.0486 137.837 20.3172 138.043 20.5853C138.381 21.0248 138.716 21.4659 139.044 21.9127C139.207 22.135 139.374 22.3539 139.543 22.5719C139.877 23.0054 140.207 23.442 140.531 23.8836C140.735 24.1617 140.945 24.4347 141.157 24.7069C141.178 24.7338 141.199 24.7606 141.22 24.7883C141.237 24.8107 141.255 24.8331 141.272 24.8562C141.308 24.9115 141.308 24.9115 141.308 24.986C140.925 24.9955 140.542 25.0027 140.159 25.0072C139.981 25.0093 139.804 25.0122 139.626 25.0168C139.454 25.0213 139.282 25.0237 139.11 25.0248C139.045 25.0255 138.98 25.027 138.914 25.0292C138.403 25.0459 138.403 25.0459 138.229 24.8998C138.152 24.7955 138.092 24.6924 138.034 24.5767C138.006 24.5369 137.978 24.4971 137.95 24.456C137.917 24.4076 137.917 24.4076 137.883 24.3581C137.858 24.3211 137.833 24.284 137.807 24.2459C137.782 24.2077 137.756 24.1695 137.729 24.1302C137.687 24.0686 137.646 24.0069 137.604 23.9453C137.562 23.8841 137.521 23.8228 137.479 23.7616C137.37 23.6004 137.26 23.4397 137.15 23.2791C137.131 23.2507 137.111 23.2224 137.091 23.1932C137.053 23.1367 137.014 23.0803 136.975 23.0238C136.678 22.5893 136.381 22.1544 136.084 21.7191C135.933 21.4972 135.781 21.2753 135.629 21.0536C135.61 21.025 135.59 20.9964 135.57 20.9669C135.469 20.8197 135.369 20.6726 135.268 20.5256C135.226 20.4652 135.185 20.4048 135.143 20.3444C135.123 20.3153 135.103 20.2862 135.083 20.2563C134.987 20.1159 134.892 19.9751 134.798 19.8331C134.781 19.8071 134.764 19.781 134.746 19.7543C134.714 19.7055 134.682 19.6567 134.651 19.6078C134.575 19.4865 134.575 19.4865 134.462 19.4049C134.452 19.4324 134.442 19.46 134.431 19.4884C134.39 19.5842 134.346 19.6587 134.286 19.7431C134.266 19.7718 134.245 19.8006 134.224 19.8302C134.202 19.861 134.18 19.8918 134.157 19.9235C134.11 19.9906 134.062 20.0577 134.015 20.1249C133.99 20.1596 133.966 20.1943 133.94 20.23C133.823 20.3979 133.707 20.5676 133.592 20.7374C133.4 21.02 133.206 21.3013 133.011 21.5815C132.817 21.8594 132.625 22.1384 132.434 22.4187C132.244 22.699 132.051 22.9779 131.857 23.2558C131.636 23.5732 131.417 23.892 131.199 24.2122C131.158 24.2733 131.116 24.334 131.073 24.3943C130.999 24.5024 130.999 24.5024 130.937 24.6256C130.748 24.9604 130.748 24.9604 130.532 25.0284C130.368 25.048 130.205 25.0405 130.04 25.0332C129.98 25.0323 129.919 25.0316 129.859 25.0311C129.701 25.0293 129.543 25.0245 129.385 25.0192C129.223 25.0142 129.061 25.012 128.9 25.0096C128.583 25.0044 128.267 24.9962 127.951 24.986C127.998 24.865 128.044 24.7634 128.121 24.6588C128.14 24.6326 128.159 24.6065 128.179 24.5795C128.2 24.5517 128.22 24.5239 128.241 24.4953C128.285 24.4351 128.329 24.3749 128.373 24.3148C128.407 24.2688 128.407 24.2688 128.442 24.2219C128.546 24.0794 128.65 23.9362 128.753 23.793C128.773 23.7653 128.793 23.7376 128.814 23.7091C128.949 23.5217 129.083 23.3333 129.216 23.1442C129.468 22.785 129.726 22.4294 129.984 22.0737C130.201 21.7744 130.417 21.4746 130.63 21.1722C130.842 20.87 131.058 20.5704 131.275 20.2712C131.379 20.1282 131.482 19.9852 131.585 19.8421C131.606 19.8141 131.626 19.7861 131.647 19.7572C131.782 19.5699 131.917 19.3821 132.051 19.1939C132.158 19.0439 132.265 18.8945 132.374 18.7453C132.59 18.4468 132.803 18.1465 133.011 17.8422C132.849 17.5732 132.671 17.3226 132.481 17.0729C132.345 16.893 132.213 16.7108 132.083 16.526C131.87 16.2218 131.653 15.9205 131.435 15.6197C131.314 15.4522 131.193 15.2845 131.072 15.1169C130.97 14.9768 130.869 14.8368 130.768 14.6969C130.553 14.3997 130.339 14.1013 130.128 13.8012C129.933 13.5251 129.735 13.2515 129.537 12.978C129.436 12.8383 129.335 12.6986 129.234 12.5588C129.11 12.3865 128.986 12.2143 128.861 12.0421C128.839 12.0122 128.818 11.9823 128.796 11.9515C128.755 11.8947 128.714 11.8379 128.673 11.7811C128.636 11.7299 128.599 11.6787 128.562 11.6274C128.526 11.5779 128.49 11.5287 128.454 11.4797C128.323 11.3017 128.323 11.3017 128.323 11.2193ZM134.499 16.3539C134.279 16.5707 134.061 16.786 133.861 17.0215C133.773 17.1191 133.681 17.2108 133.588 17.3027C133.425 17.4639 133.27 17.6294 133.123 17.805C133.173 17.9177 133.229 17.9942 133.317 18.08C133.341 18.1031 133.364 18.1263 133.389 18.1502C133.414 18.1744 133.439 18.1986 133.464 18.2236C133.516 18.274 133.567 18.3245 133.618 18.375C133.641 18.3976 133.664 18.4201 133.688 18.4433C133.778 18.5354 133.862 18.6322 133.945 18.7308C134.12 18.9268 134.312 19.1086 134.499 19.2933C134.656 19.1707 134.785 19.0403 134.914 18.8889C135.031 18.7537 135.155 18.6252 135.278 18.4956C135.481 18.281 135.682 18.0656 135.876 17.8422C135.661 17.5861 135.434 17.3426 135.206 17.0981C135.184 17.0738 135.161 17.0495 135.138 17.0245C135.068 16.9498 134.999 16.8751 134.929 16.8004C134.908 16.7772 134.886 16.7541 134.864 16.7302C134.745 16.6023 134.624 16.4768 134.499 16.3539Z" fill="#131313"/>
<path d="M1.3995 14.1106C1.43273 14.1103 1.46595 14.1101 1.50018 14.1098C1.61018 14.1091 1.72016 14.109 1.83015 14.1089C1.90647 14.1087 1.98279 14.1084 2.05911 14.1081C2.21913 14.1077 2.37914 14.1076 2.53916 14.1076C2.74449 14.1076 2.94981 14.1066 3.15513 14.1053C3.31275 14.1045 3.47036 14.1043 3.62798 14.1044C3.70369 14.1043 3.77941 14.104 3.85513 14.1034C3.96088 14.1027 4.06658 14.1029 4.17233 14.1033C4.21948 14.1027 4.21948 14.1027 4.26758 14.1021C4.47871 14.1043 4.47871 14.1043 4.56131 14.1795C4.62611 14.3026 4.62449 14.4143 4.62317 14.5501C4.62334 14.5784 4.6235 14.6067 4.62368 14.6359C4.62411 14.7308 4.62375 14.8257 4.6234 14.9206C4.62355 14.9887 4.62375 15.0567 4.624 15.1247C4.62444 15.2712 4.62453 15.4177 4.62436 15.5642C4.62411 15.7957 4.6247 16.0272 4.62542 16.2587C4.62695 16.7919 4.62737 17.3251 4.62778 17.8583C4.62817 18.347 4.6288 18.8357 4.63032 19.3244C4.631 19.5547 4.63114 19.785 4.63088 20.0153C4.63082 20.1584 4.63122 20.3014 4.63175 20.4445C4.6319 20.511 4.63185 20.5775 4.63161 20.644C4.6313 20.7345 4.63167 20.825 4.63221 20.9156C4.63195 20.9421 4.63169 20.9686 4.63143 20.9959C4.6326 21.0961 4.63716 21.174 4.68568 21.2629C4.79793 21.3242 4.91009 21.3175 5.03473 21.3162C5.06316 21.3163 5.09159 21.3165 5.12088 21.3166C5.21643 21.317 5.31196 21.3165 5.40752 21.3161C5.4759 21.3162 5.54429 21.3163 5.61267 21.3165C5.76007 21.3168 5.90746 21.3168 6.05486 21.3165C6.28778 21.3161 6.52069 21.3165 6.75361 21.3171C7.33213 21.3185 7.91066 21.3187 8.48918 21.3186C8.93874 21.3185 9.3883 21.3188 9.83787 21.3201C10.0696 21.3207 10.3012 21.3207 10.5329 21.3201C10.6769 21.3198 10.8208 21.3202 10.9648 21.3208C11.0317 21.321 11.0986 21.3208 11.1655 21.3204C11.2567 21.32 11.3478 21.3204 11.4389 21.321C11.4656 21.3206 11.4922 21.3203 11.5197 21.3199C11.6372 21.3216 11.6998 21.325 11.7879 21.406C11.8508 21.5376 11.8425 21.6716 11.8412 21.8143C11.8413 21.8472 11.8415 21.8801 11.8416 21.9139C11.8419 22.0225 11.8414 22.1311 11.8408 22.2397C11.8408 22.3151 11.8408 22.3905 11.8409 22.466C11.8409 22.624 11.8405 22.782 11.8398 22.9401C11.839 23.1429 11.839 23.3456 11.8392 23.5484C11.8393 23.7041 11.8391 23.8599 11.8387 24.0156C11.8386 24.0904 11.8385 24.1652 11.8386 24.2399C11.8386 24.3443 11.8382 24.4487 11.8375 24.5531C11.8377 24.5997 11.8377 24.5997 11.8378 24.6471C11.8365 24.7917 11.8349 24.8628 11.7529 24.9859C11.675 24.9998 11.675 24.9998 11.5766 24.9998C11.5205 25.0002 11.5205 25.0002 11.4632 25.0006C11.4218 25.0003 11.3803 25.0001 11.3377 24.9998C11.2939 24.9999 11.2501 25.0001 11.205 25.0002C11.0831 25.0005 10.9613 25.0003 10.8394 24.9999C10.7081 24.9996 10.5769 24.9999 10.4456 25.0001C10.1883 25.0005 9.93093 25.0002 9.67361 24.9998C9.3742 24.9993 9.07478 24.9993 8.77537 24.9994C8.24129 24.9995 7.70721 24.9991 7.17313 24.9984C6.6544 24.9977 6.13568 24.9974 5.61695 24.9976C5.05265 24.9978 4.48834 24.9978 3.92403 24.9974C3.8639 24.9974 3.80378 24.9973 3.74365 24.9973C3.69927 24.9972 3.69927 24.9972 3.65399 24.9972C3.44508 24.9971 3.23618 24.9971 3.02727 24.9971C2.77283 24.9972 2.51838 24.997 2.26394 24.9965C2.13402 24.9962 2.0041 24.9961 1.87417 24.9962C1.73359 24.9964 1.59301 24.996 1.45243 24.9956C1.411 24.9957 1.36957 24.9958 1.32689 24.996C1.28946 24.9958 1.25203 24.9956 1.21347 24.9953C1.18099 24.9953 1.1485 24.9953 1.11503 24.9952C1.03717 24.9859 1.03717 24.9859 0.962753 24.9114C0.953383 24.8336 0.953383 24.8336 0.953285 24.7351C0.953068 24.6977 0.952851 24.6603 0.952627 24.6217C0.952768 24.5803 0.952909 24.5389 0.953053 24.4962C0.952911 24.4524 0.952769 24.4087 0.952622 24.3636C0.952304 24.2417 0.952321 24.1198 0.95248 23.998C0.952571 23.8667 0.952237 23.7354 0.951958 23.6041C0.951482 23.3468 0.951417 23.0895 0.951504 22.8322C0.95157 22.6231 0.951505 22.4141 0.951347 22.205C0.951325 22.1753 0.951302 22.1456 0.95128 22.115C0.951234 22.0546 0.951189 21.9943 0.951144 21.9339C0.950739 21.3676 0.95082 20.8012 0.951047 20.2348C0.951239 19.7161 0.95082 19.1974 0.950113 18.6787C0.949393 18.1467 0.949084 17.6147 0.949224 17.0826C0.949296 16.7837 0.949202 16.4848 0.948677 16.1859C0.948235 15.9315 0.94818 15.677 0.948632 15.4226C0.948852 15.2926 0.948889 15.1627 0.948446 15.0328C0.94806 14.8922 0.948355 14.7516 0.94883 14.6111C0.948555 14.5696 0.948281 14.5282 0.947998 14.4855C0.948266 14.4481 0.948534 14.4107 0.948811 14.3721C0.948809 14.3396 0.948806 14.3071 0.948804 14.2737C0.953408 14.248 0.958011 14.2223 0.962753 14.1958C1.10807 14.0989 1.23088 14.1104 1.3995 14.1106Z" fill="#131313"/>
<path d="M27.1187 6.00977C27.9659 6.00977 28.8131 6.00977 29.686 6.00977C29.686 11.535 29.686 17.0603 29.686 22.753C32.8784 22.753 36.0708 22.753 39.3599 22.753C39.3599 23.4897 39.3599 24.2264 39.3599 24.9854C36.1552 24.9854 32.9505 24.9854 29.6488 24.9854C29.6488 24.261 29.6488 23.5365 29.6488 22.7902C28.8138 22.7902 27.9789 22.7902 27.1187 22.7902C27.1187 17.2526 27.1187 11.7151 27.1187 6.00977Z" fill="#131313"/>
<path d="M82.073 6.00977C82.8465 6.00977 83.6201 6.00977 84.4171 6.00977C84.4171 12.2717 84.4171 18.5337 84.4171 24.9854C83.6435 24.9854 82.87 24.9854 82.073 24.9854C82.073 18.7234 82.073 12.4615 82.073 6.00977Z" fill="#131313"/>
<path d="M121.294 11.2192C123.32 11.2192 125.346 11.2192 127.433 11.2192C127.433 11.8454 127.433 12.4716 127.433 13.1168C126.181 13.1168 124.928 13.1168 123.638 13.1168C123.638 17.0336 123.638 20.9504 123.638 24.9859C122.864 24.9859 122.091 24.9859 121.294 24.9859C121.294 20.4429 121.294 15.8999 121.294 11.2192Z" fill="#131313"/>
<path d="M5.76836 6.00012C5.80067 6.00027 5.83299 6.00042 5.86629 6.00057C5.9003 6.00044 5.9343 6.00031 5.96934 6.00018C6.08213 5.99985 6.19491 6.00007 6.3077 6.00032C6.38583 6.00027 6.46396 6.0002 6.54209 6.0001C6.70599 5.99999 6.86989 6.00015 7.03379 6.0005C7.24425 6.00092 7.4547 6.00068 7.66516 6.00023C7.82654 5.99997 7.98792 6.00005 8.1493 6.00024C8.22692 6.00029 8.30453 6.00023 8.38215 6.00006C8.49048 5.99987 8.59881 6.00016 8.70714 6.00057C8.73946 6.00042 8.77178 6.00027 8.80508 6.00012C9.02696 6.0017 9.02696 6.0017 9.10988 6.08462C9.11689 6.19223 9.11925 6.29625 9.11833 6.40387C9.11834 6.43691 9.11835 6.46994 9.11836 6.50398C9.11831 6.6135 9.11773 6.72301 9.11715 6.83254C9.11701 6.90834 9.1169 6.98415 9.11683 7.05995C9.11655 7.25973 9.11581 7.4595 9.11499 7.65927C9.11423 7.86303 9.11389 8.06678 9.11352 8.27053C9.11272 8.67051 9.11145 9.07048 9.10988 9.47046C9.0976 9.47046 9.08533 9.47046 9.07267 9.47046C9.0721 9.40766 9.0721 9.40766 9.07151 9.34358C9.06788 8.94991 9.06406 8.55623 9.06005 8.16256C9.05799 7.96015 9.056 7.75774 9.05417 7.55532C9.0524 7.36015 9.05045 7.16499 9.04838 6.96982C9.04762 6.89518 9.04692 6.82055 9.04629 6.74591C9.0454 6.64175 9.04428 6.5376 9.04311 6.43344C9.04289 6.40226 9.04268 6.37108 9.04246 6.33896C9.05384 6.20045 9.05384 6.20045 8.99826 6.08462C8.89488 6.08068 8.79241 6.07915 8.689 6.07921C8.65657 6.07909 8.62414 6.07896 8.59073 6.07883C8.48293 6.07848 8.37514 6.07841 8.26734 6.07837C8.19267 6.07825 8.118 6.07812 8.04333 6.07799C7.88653 6.07777 7.72973 6.0777 7.57292 6.07772C7.37185 6.07772 7.17079 6.07722 6.96972 6.07658C6.81539 6.07616 6.66107 6.07609 6.50674 6.07611C6.43261 6.07606 6.35848 6.0759 6.28435 6.07561C6.18066 6.07525 6.07698 6.07535 5.97329 6.07558C5.94257 6.07537 5.91185 6.07516 5.8802 6.07494C5.73174 6.07576 5.62987 6.08667 5.50076 6.15903C5.50301 7.05943 5.50589 7.95982 5.50953 8.86022C5.5112 9.27826 5.51267 9.69631 5.51365 10.1144C5.5145 10.4786 5.51574 10.8429 5.51745 11.2072C5.51835 11.4002 5.51904 11.5931 5.51927 11.7861C5.5195 11.9676 5.52024 12.1491 5.52138 12.3306C5.52171 12.3973 5.52185 12.464 5.52178 12.5308C5.52172 12.6217 5.52234 12.7125 5.52313 12.8034C5.52295 12.83 5.52277 12.8566 5.52258 12.884C5.52404 12.9845 5.52875 13.0627 5.57751 13.1518C5.68925 13.2129 5.80066 13.2063 5.92474 13.205C5.95299 13.2051 5.98125 13.2053 6.01035 13.2054C6.1053 13.2058 6.20024 13.2053 6.29519 13.2049C6.36314 13.205 6.4311 13.2051 6.49906 13.2053C6.64554 13.2056 6.79202 13.2056 6.93851 13.2053C7.17003 13.2049 7.40155 13.2053 7.63307 13.2059C8.20816 13.2073 8.78325 13.2075 9.35834 13.2074C9.80518 13.2073 10.252 13.2076 10.6988 13.2089C10.9291 13.2095 11.1593 13.2095 11.3896 13.2089C11.5327 13.2087 11.6759 13.2091 11.819 13.2096C11.8855 13.2098 11.952 13.2096 12.0185 13.2093C12.1091 13.2088 12.1997 13.2092 12.2903 13.2098C12.3167 13.2095 12.3431 13.2091 12.3704 13.2087C12.488 13.2104 12.5611 13.2226 12.661 13.2863C12.7397 13.4097 12.7392 13.5175 12.7369 13.6592C12.737 13.6878 12.7372 13.7163 12.7373 13.7457C12.7375 13.8414 12.7367 13.9371 12.7359 14.0328C12.7359 14.1014 12.7359 14.1699 12.736 14.2385C12.736 14.4248 12.7351 14.611 12.7341 14.7973C12.7332 14.9919 12.7331 15.1865 12.7329 15.3811C12.7324 15.7496 12.7312 16.1182 12.7297 16.4868C12.7281 16.9063 12.7272 17.3259 12.7265 17.7455C12.7249 18.6086 12.7223 19.4718 12.719 20.3349C12.7067 20.3349 12.6944 20.3349 12.6818 20.3349C12.6817 20.2816 12.6817 20.2816 12.6815 20.2272C12.6793 19.3627 12.6765 18.4982 12.673 17.6337C12.6714 17.2157 12.6699 16.7976 12.6689 16.3796C12.6681 16.0153 12.6668 15.651 12.6651 15.2868C12.6642 15.0938 12.6635 14.9008 12.6633 14.7079C12.6631 14.5264 12.6623 14.3449 12.6612 14.1634C12.6608 14.0967 12.6607 14.0299 12.6608 13.9632C12.6608 13.8723 12.6602 13.7814 12.6594 13.6906C12.6597 13.6507 12.6597 13.6507 12.66 13.6099C12.6585 13.5095 12.6538 13.4312 12.6052 13.3422C12.4929 13.2809 12.3807 13.2875 12.2562 13.2887C12.2277 13.2885 12.1993 13.2884 12.17 13.2882C12.0744 13.2878 11.9789 13.2881 11.8834 13.2885C11.815 13.2883 11.7466 13.2881 11.6782 13.2879C11.5308 13.2874 11.3834 13.2873 11.236 13.2875C11.0031 13.2878 10.7702 13.2872 10.5373 13.2865C10.0429 13.285 9.54847 13.2846 9.05407 13.2842C8.52038 13.2838 7.9867 13.2832 7.45301 13.2816C7.22132 13.2809 6.98963 13.2807 6.75794 13.281C6.61398 13.2811 6.47003 13.2806 6.32608 13.2801C6.25916 13.28 6.19225 13.28 6.12534 13.2803C6.03421 13.2806 5.94312 13.2802 5.85199 13.2797C5.82532 13.2799 5.79865 13.2802 5.77117 13.2804C5.67071 13.2793 5.59217 13.2748 5.50293 13.2265C5.44124 13.1129 5.44835 12.9986 5.44963 12.8727C5.44948 12.8437 5.44933 12.8148 5.44918 12.785C5.44882 12.6879 5.44926 12.5907 5.4497 12.4935C5.44961 12.424 5.44947 12.3544 5.44929 12.2849C5.44894 12.0958 5.44929 11.9067 5.44978 11.7176C5.4502 11.52 5.45005 11.3224 5.44998 11.1248C5.44995 10.7929 5.45036 10.4611 5.45104 10.1293C5.45183 9.74519 5.45196 9.3611 5.45173 8.97702C5.45152 8.60804 5.45173 8.23907 5.45215 7.87009C5.45232 7.71282 5.45235 7.55555 5.45227 7.39829C5.4522 7.21325 5.4525 7.02822 5.45309 6.84318C5.45325 6.77511 5.45328 6.70704 5.45318 6.63898C5.45306 6.54638 5.4534 6.45379 5.45385 6.36119C5.45371 6.33398 5.45357 6.30677 5.45343 6.27873C5.45565 6.02509 5.5225 6.00187 5.76836 6.00012Z" fill="#131313"/>
</g>
<defs>
<clipPath id="clip0_2144_28602">
<rect width="140" height="32" fill="white" transform="translate(0.947266)"/>
</clipPath>
</defs>
</svg>