<svg xmlns="http://www.w3.org/2000/svg" xmlns:xlink="http://www.w3.org/1999/xlink" id="Layer_1" x="0px" y="0px" viewBox="0 0 3831.8 850.4" style="enable-background:new 0 0 3831.8 850.4;" xml:space="preserve"> <style type="text/css"> .st0{fill:url(#SVGID_1_);} .st1{fill:url(#SVGID_2_);} .st2{fill:url(#SVGID_3_);} .st3{fill:#FFFFFF;} .st4{fill:#06D960;} .st5{fill:url(#SVGID_4_);} </style> <linearGradient id="SVGID_1_" gradientUnits="userSpaceOnUse" x1="221.6885" y1="296.8979" x2="529.6925" y2="92.8452"> <stop offset="0" style="stop-color:#008D01"></stop> <stop offset="0.18" style="stop-color:#009C16"></stop> <stop offset="1" style="stop-color:#01DD73"></stop> </linearGradient> <path class="st0" d="M294.2,83.1c-2.6-4-3.6-8.9-2.3-13.5c0.7-3.8,3.5-6.1,6.8-7.4c1.2-0.5,2.4-0.9,3.7-1.1c0.3-0.1,0.5-0.1,0.8-0.1 c6.5-1.2,13.3-0.1,13.3-0.1c53.6,6,157.8,17.7,191.6,21.5c18,2,26,11.8,26.7,26.2c-0.1,3.3-0.7,7-2.1,11.2 c-7.1,22.1-30.3,94.8-45.2,141.8c-7,21.5-14.3,43.6-17.3,51.4c0,0,0,0,0,0.1c-1.7,3-4,6.2-6.8,7.9c-0.1,0-0.1,0.1-0.2,0.1 c-1.2,0.7-2.5,1.2-3.8,1.3c-0.1,0-0.1,0-0.2,0c-6,0.7-11.4-2.8-14.6-7.6c0,0-5-7.8-9.9-15.2c-4.8-7.4-14.6-9.6-22.1-5 c-18.4,11.4-49.4,30.5-51.4,31.7l-17.9,11.8l0,0c-0.2-0.1-0.4-0.2-0.6-0.3c-36.9-17.7-73.8-35.2-111.1-52.3 c-6.2-2.7-12.2-5.9-18-9.5c-30.5-19.9-35.7-64.5-11.2-91.3l18.1-10.6l79.8-54.3c6.7-4.6,8.6-13.7,4.2-20.6L294.2,83.1z"></path> <linearGradient id="SVGID_2_" gradientUnits="userSpaceOnUse" x1="792.52" y1="678.8396" x2="-140.9633" y2="210.1062"> <stop offset="0" style="stop-color:#008D01"></stop> <stop offset="0.1126" style="stop-color:#009C16"></stop> <stop offset="1" style="stop-color:#01DD73"></stop> </linearGradient> <path class="st1" d="M510.8,513.8c0.1,53.2-26.3,102.9-70.3,132.7c-0.8,0.6-1.6,1.1-2.4,1.6l-41.4,27.3l-2.5,1.8l2-3.9 c28.1-55,27.4-83.2-43-116.5l-87.4-41.3l-56.9-26.9c-5.1-2-10.1-4.3-15-6.8c-1.7-0.8-3.3-1.7-5-2.6c-52.6-26.3-93.6-79.5-93.6-142.3 c0-46.6,16.6-88.9,55.6-117.9l42.3-28.2l10.1-6.6c-2.5,2.8-4.8,5.8-6.7,9c-1.6,2.5-2.9,5.2-4.1,8c-0.6,1.5-1.2,2.9-1.7,4.4 c-1.2,3.6-2.1,7.2-2.6,11c-0.4,2.8-0.6,5.7-0.6,8.5c0,9,2,17.9,5.8,26.1c4.6,9.9,11.8,18.4,20.9,24.4c5.8,3.6,11.8,6.7,18,9.5 c11.1,4.7,21.9,10.2,32.8,15.3c10.9,5.1,21.5,9.8,32.2,14.9c15.4,7.3,30.7,14.8,46.1,22.1c0.2,0.1,0.4,0.2,0.6,0.3l0,0l2.2,1l16.9,8 l15.8,7.5l14,6.6l11.6,5.5l8.7,4.1l5.2,2.4l1.2,0.6h0.1C472.6,399.4,510.8,450.9,510.8,513.8z"></path> <linearGradient id="SVGID_3_" gradientUnits="userSpaceOnUse" x1="441.9956" y1="525.8608" x2="90.1127" y2="751.5971"> <stop offset="0" style="stop-color:#008D01"></stop> <stop offset="0.17" style="stop-color:#00960E"></stop> <stop offset="0.4245" style="stop-color:#00AE30"></stop> <stop offset="0.91" style="stop-color:#01D467"></stop> <stop offset="1" style="stop-color:#01DD73"></stop> </linearGradient> <path class="st2" d="M397,673l-2,3.9l0,0l-121.9,80.5l-2.1,1.4l-0.3,0.2l-0.6,0.4h-0.1c-47.6,31.8-111.9,19-143.7-28.5 c-31.8-47.6-19-111.9,28.5-143.7c0.7-0.5,1.4-0.9,2.1-1.4c2.3-1.4,4.6-2.8,6.9-4l2.5-1.6l29-18.7l71.4-46.2l87.4,41.3 C424.4,589.7,425.1,618,397,673z"></path> <g> <path class="st3" d="M757.3,549.8c-51.4,0-91.1-26.9-91.8-73.8h53.2c1.4,19.9,14.5,33,37.6,33c23.4,0,37.2-12.4,37.2-30.1 c0-53.5-127.7-21.3-127.3-111c0-44.7,36.2-71.6,87.2-71.6c50.7,0,85.5,25.9,88.6,70.6h-54.6c-1.1-16.3-14.2-29.1-35.5-29.4 c-19.5-0.7-34,8.9-34,29.1c0,49.6,126.9,22,126.9,109.2C844.9,514.7,813.7,549.8,757.3,549.8z"></path> <path class="st3" d="M995.6,549.8c-69.9,0-126.9-52.5-126.9-126.9c0-74.1,57.1-126.6,126.9-126.6c70.6,0,126.6,52.5,126.6,126.6 C1122.2,497.3,1065.8,549.8,995.6,549.8z M995.6,505.5c44.7,0,75.5-32.3,75.5-82.6c0-50.4-30.8-81.9-75.5-81.9 c-45,0-75.9,31.6-75.9,81.9C919.7,473.2,950.6,505.5,995.6,505.5z"></path> <path class="st3" d="M1151.3,299.8h49.6V453c0,34,18.4,51.8,50,51.8c31.9,0,50.4-17.7,50.4-51.8V299.8h50v152.8 c0,65.2-46.8,97.2-101.1,97.2c-54.3,0-98.9-31.9-98.9-97.2V299.8z"></path> <path class="st3" d="M1603.7,299.4v247.9h-49.6l-112.4-169.8v169.8H1392V299.4h49.6l112.4,170.2V299.4H1603.7z"></path> <path class="st3" d="M1862.5,423.9c0,74.8-51.4,123.4-130.5,123.4h-86.5V299.8h86.5C1811.1,299.8,1862.5,348.7,1862.5,423.9z M1730.3,505.1c52.1,0,81.6-29.8,81.6-81.2c0-51.4-29.4-82.3-81.6-82.3h-35.1v163.5H1730.3z"></path> <path class="st4" d="M2006.1,296.6c55,0,99.6,29.4,116.3,80.1h-57.1c-11.7-23.8-33-35.5-59.6-35.5c-43.3,0-74.1,31.6-74.1,81.9 c0,50,30.8,81.9,74.1,81.9c26.6,0,47.9-11.7,59.6-35.8h57.1c-16.7,51.1-61.3,80.1-116.3,80.1c-71.3,0-125.5-52.1-125.5-126.2 C1880.6,349.1,1934.9,296.6,2006.1,296.6z"></path> <path class="st4" d="M2309.7,500.1h-98.6l-16.3,47.2h-52.1l89-247.9h57.8l89,247.9H2326L2309.7,500.1z M2260.4,356.9l-35.8,103.5 h71.6L2260.4,356.9z"></path> <path class="st4" d="M2404.7,299.8h56.4l78.7,184l78.7-184h56v247.5h-49.6v-161l-66.3,161H2521l-66.7-161v161h-49.6V299.8z"></path> <path class="st4" d="M2807.5,452.3H2766v95h-49.6V299.8h91.1c59.6,0,89.4,33.7,89.4,76.6C2896.8,414,2871.3,452.3,2807.5,452.3z M2805.3,412.2c28,0,40.4-13.8,40.4-35.8c0-22.7-12.4-36.2-40.4-36.2H2766v72H2805.3z"></path> <path class="st4" d="M3076.6,500.1H2978l-16.3,47.2h-52.1l89-247.9h57.8l89,247.9h-52.5L3076.6,500.1z M3027.3,356.9l-35.8,103.5 h71.6L3027.3,356.9z"></path> <path class="st4" d="M3171.6,299.8h49.6v247.5h-49.6V299.8z"></path> <path class="st4" d="M3492.5,374.3h-57.1c-11.3-20.9-31.9-31.9-58.2-31.9c-44.3,0-75.2,31.6-75.2,80.8c0,50.4,31.2,81.6,77.3,81.6 c38.3,0,62.8-22,70.2-57.1h-85.1v-37.9h134V453c-9.9,50.4-55,96.4-120.9,96.4c-72,0-126.6-52.1-126.6-126.2 c0-74.1,54.6-126.6,126.2-126.6C3432.6,296.6,3476.6,324.6,3492.5,374.3z"></path> <path class="st4" d="M3740,299.4v247.9h-49.6L3578,377.5v169.8h-49.6V299.4h49.6l112.4,170.2V299.4H3740z"></path> </g> <linearGradient id="SVGID_4_" gradientUnits="userSpaceOnUse" x1="531.1019" y1="95.0616" x2="531.1019" y2="95.0616"> <stop offset="0" style="stop-color:#008D01"></stop> <stop offset="0.18" style="stop-color:#009C16"></stop> <stop offset="1" style="stop-color:#01DD73"></stop> </linearGradient> <path class="st5" d="M531.1,95.1"></path> </svg>