<?xml version="1.0" encoding="utf-8"?>
<svg xmlns="http://www.w3.org/2000/svg" width="151" height="32" viewBox="0 0 151 32" fill="none">
<g clip-path="url(#clip0_629_50213)">
<path d="M56.7597 26.9098C54.7693 26.9098 53.0299 26.4583 51.5428 25.5539C50.0544 24.6495 48.8985 23.3844 48.0749 21.7573C47.25 20.1302 46.8389 18.2508 46.8389 16.122C46.8389 13.9932 47.2405 12.1844 48.045 10.5166C48.8496 8.84881 50.0395 7.52813 51.6188 6.55322C53.1968 5.57966 55.122 5.09152 57.3933 5.09152C59.8667 5.09152 61.9168 5.68406 63.5449 6.86915C65.1744 8.05423 66.2287 9.6922 66.7117 11.7817H62.3998C62.0783 10.7973 61.4948 10.0285 60.6509 9.47661C59.807 8.92474 58.7202 8.64813 57.3946 8.64813C55.9877 8.64813 54.791 8.94915 53.806 9.55254C52.8209 10.1559 52.072 11.0142 51.5591 12.1288C51.0463 13.2434 50.7898 14.5844 50.7898 16.1519C50.7898 17.7193 51.0463 19.0197 51.5591 20.1152C52.072 21.2108 52.806 22.0447 53.7598 22.6169C54.715 23.1891 55.8357 23.4753 57.1219 23.4753C58.9319 23.4753 60.3185 23.0129 61.2832 22.0895C62.2479 21.1661 62.8611 19.9403 63.123 18.4122H56.3988V15.1566H67.1038V26.5492H63.5449L63.2437 23.7763C62.5599 24.781 61.7051 25.5539 60.6808 26.0963C59.655 26.6386 58.3485 26.9098 56.761 26.9098" fill="#EB512F"/>
<path d="M69.4266 26.5478V11.6H73.2568V13.8305C73.7792 12.9871 74.4426 12.3444 75.2472 11.901C76.0504 11.459 76.9459 11.238 77.9309 11.238V15.2759H76.9052C75.6787 15.2759 74.7642 15.5675 74.1604 16.1491C73.5566 16.7322 73.2554 17.7058 73.2554 19.0725V26.5464H69.4252L69.4266 26.5478Z" fill="#EB512F"/>
<path d="M86.1924 23.5647C86.9956 23.5647 87.6943 23.3586 88.2872 22.9478C88.8802 22.5356 89.3482 21.9824 89.6901 21.2895C90.0321 20.5966 90.203 19.8386 90.203 19.0142C90.203 18.0705 90.0171 17.2664 89.6454 16.6034C89.2736 15.9403 88.7865 15.4386 88.1828 15.0969C87.579 14.7553 86.9155 14.5844 86.1924 14.5844C85.4081 14.5844 84.7189 14.7756 84.126 15.1566C83.5331 15.539 83.0704 16.0664 82.738 16.739C82.4069 17.4129 82.2401 18.1912 82.2401 19.0753C82.2401 19.9593 82.4151 20.743 82.7678 21.4264C83.1193 22.1098 83.5968 22.6373 84.2006 23.0088C84.8044 23.3803 85.4678 23.5661 86.191 23.5661M86.1327 26.9098C84.6253 26.9098 83.2834 26.583 82.1071 25.9308C80.9308 25.2786 80.0109 24.3593 79.3474 23.1729C78.6839 21.9878 78.3515 20.6224 78.3515 19.0739C78.3515 17.4468 78.7083 16.0447 79.422 14.8692C80.1357 13.6936 81.0909 12.7946 82.2862 12.1722C83.4815 11.5498 84.8044 11.238 86.2521 11.238C87.6998 11.238 89.1067 11.5647 90.2926 12.2183C91.4784 12.8719 92.4187 13.7803 93.112 14.9451C93.8053 16.1112 94.1526 17.4875 94.1526 19.0739C94.1526 20.6603 93.8107 21.9268 93.1269 23.1119C92.4431 24.2983 91.5028 25.2271 90.3075 25.8997C89.1108 26.5722 87.7187 26.9085 86.1313 26.9085" fill="#EB512F"/>
<path d="M103.14 23.5647C103.943 23.5647 104.642 23.3586 105.235 22.9478C105.828 22.5356 106.296 21.9824 106.638 21.2895C106.98 20.5966 107.151 19.8386 107.151 19.0142C107.151 18.0705 106.965 17.2664 106.593 16.6034C106.221 15.9403 105.734 15.4386 105.13 15.0969C104.527 14.7553 103.863 14.5844 103.14 14.5844C102.356 14.5844 101.666 14.7756 101.075 15.1566C100.482 15.539 100.019 16.0664 99.6869 16.739C99.3559 17.4129 99.189 18.1912 99.189 19.0753C99.189 19.9593 99.364 20.743 99.7168 21.4264C100.068 22.1098 100.546 22.6373 101.15 23.0088C101.753 23.3803 102.417 23.5661 103.14 23.5661M103.08 26.9098C101.573 26.9098 100.231 26.583 99.0547 25.9308C97.8783 25.2786 96.9584 24.3593 96.295 23.1729C95.6315 21.9878 95.2991 20.6224 95.2991 19.0739C95.2991 17.4468 95.6559 16.0447 96.3696 14.8692C97.0833 13.6936 98.0384 12.7946 99.2351 12.1722C100.43 11.5498 101.753 11.238 103.201 11.238C104.649 11.238 106.056 11.5647 107.242 12.2183C108.427 12.8719 109.368 13.7803 110.061 14.9451C110.754 16.1112 111.102 17.4875 111.102 19.0739C111.102 20.6603 110.76 21.9268 110.076 23.1119C109.392 24.2983 108.452 25.2271 107.256 25.8997C106.06 26.5722 104.668 26.9085 103.08 26.9085" fill="#EB512F"/>
<path d="M116.227 26.5478L110.619 11.6H114.72L118.58 23.082L122.41 11.6H126.481L120.872 26.5478H116.227Z" fill="#EB512F"/>
<path d="M129.919 17.6569H137.126C137.106 16.6522 136.739 15.859 136.026 15.2759C135.312 14.6929 134.472 14.4027 133.507 14.4027C132.683 14.4027 131.919 14.659 131.216 15.1715C130.512 15.6841 130.08 16.5125 129.919 17.6583M133.628 26.9098C132.06 26.9098 130.708 26.5681 129.571 25.8847C128.436 25.2014 127.555 24.2671 126.933 23.082C126.31 21.8969 125.998 20.5614 125.998 19.0739C125.998 17.4861 126.319 16.1112 126.962 14.9451C127.605 13.7803 128.501 12.8705 129.646 12.2183C130.793 11.5661 132.119 11.238 133.627 11.238C135.134 11.238 136.416 11.5593 137.532 12.202C138.647 12.8447 139.522 13.7288 140.156 14.8542C140.789 15.9797 141.105 17.2759 141.105 18.7417C141.105 19.0034 141.095 19.2597 141.076 19.5105C141.055 19.7614 141.025 19.9973 140.985 20.2183H129.888C129.947 20.922 130.133 21.5403 130.445 22.0719C130.757 22.6047 131.179 23.0169 131.712 23.3071C132.244 23.5986 132.854 23.7437 133.537 23.7437C134.221 23.7437 134.849 23.5932 135.362 23.2922C135.875 22.9912 136.282 22.5288 136.583 21.9064H140.715C140.433 22.7905 139.981 23.6149 139.358 24.3769C138.735 25.1403 137.946 25.7532 136.99 26.2156C136.035 26.678 134.914 26.9085 133.628 26.9085" fill="#EB512F"/>
<path d="M142.555 26.5478V11.6H146.385V13.8305C146.907 12.9871 147.571 12.3444 148.375 11.901C149.178 11.459 150.074 11.238 151.059 11.238V15.2759H150.033C148.807 15.2759 147.892 15.5675 147.288 16.1491C146.685 16.7322 146.383 17.7058 146.383 19.0725V26.5464H142.553L142.555 26.5478Z" fill="#EB512F"/>
<path d="M39.7009 15.8237C39.7009 21.223 37.3509 25.8522 33.9888 27.8414C33.8084 27.9485 33.5967 28 33.3864 28H27.2307C27.0204 28 26.8128 27.9485 26.6283 27.8414C24.7518 26.7308 23.1888 24.7905 22.1767 22.3593C22.1251 22.2346 21.9446 22.2481 21.9148 22.381C21.3639 24.64 20.5336 26.461 19.535 27.5959C19.3071 27.8536 18.9801 27.9986 18.6355 27.9986H15.6695C15.3208 27.9986 14.9938 27.8536 14.7659 27.5919C13.5041 26.1478 12.5096 23.5932 12.0062 20.4651C11.9804 20.3024 11.7484 20.3105 11.7308 20.4732C11.4119 23.4386 10.7878 25.8902 9.99681 27.36C9.78651 27.7505 9.38083 27.9986 8.93852 27.9986H7.56952C7.12585 27.9986 6.7256 27.7586 6.51394 27.3695C5.80842 26.0664 5.23586 23.9919 4.8953 21.4725C4.87359 21.3058 4.63209 21.3139 4.61581 21.4807C4.40008 23.8942 4.05138 25.8902 3.61721 27.2027C3.45847 27.6827 2.99716 28 2.48973 28H2.38661C1.85746 28 1.39616 27.6827 1.23741 27.1986C0.495254 24.9573 2.81133e-05 20.7051 2.81133e-05 15.8237C-0.00404224 11.2176 0.434199 7.17559 1.10581 4.84881C1.25234 4.34305 1.72586 4 2.25093 4H2.59148C3.12063 4 3.59415 4.34712 3.74068 4.85288C4.11515 6.15593 4.41636 7.99458 4.61038 10.1627C4.62259 10.3295 4.86817 10.3336 4.88988 10.1708C5.19515 7.91186 5.68631 6.00949 6.29279 4.70237C6.49495 4.2739 6.91691 4 7.38636 4H9.11761C9.58706 4 10.009 4.26983 10.2071 4.69424C10.9004 6.1939 11.4431 8.47051 11.7348 11.1742C11.7525 11.3369 11.9845 11.341 12.0103 11.1824C12.4662 8.34034 13.3318 5.9661 14.4294 4.47458C14.6519 4.17085 15.0101 4 15.3887 4H18.9272C19.3057 4 19.6625 4.17085 19.8864 4.47593C20.7263 5.61627 21.4358 7.27864 21.9175 9.2678C21.9474 9.40068 22.1292 9.41424 22.1807 9.28949C23.0803 7.12949 24.4099 5.36 26.0123 4.21017C26.2104 4.06915 26.4519 4 26.6975 4H33.9291C34.1747 4 34.4162 4.06915 34.6143 4.21424C37.6358 6.38644 39.7022 10.7675 39.7022 15.8237" fill="#EB512F"/>
</g>
<defs>
<clipPath id="clip0_629_50213">
<rect width="151" height="32" fill="white"/>
</clipPath>
</defs>
</svg>