<svg viewBox="0 0 113 32" fill="none" xmlns="http://www.w3.org/2000/svg">
<path d="M31.9989 15.5299C31.9989 19.8818 30.1048 23.6129 27.395 25.2161C27.2495 25.3025 27.0789 25.344 26.9094 25.344H21.9479C21.7784 25.344 21.6111 25.3025 21.4624 25.2161C19.95 24.3211 18.6902 22.7572 17.8744 20.7976C17.8328 20.6971 17.6874 20.708 17.6633 20.8151C17.2193 22.6358 16.5501 24.1036 15.7452 25.0183C15.5615 25.226 15.2979 25.3429 15.0202 25.3429H12.6296C12.3486 25.3429 12.085 25.226 11.9013 25.015C10.8843 23.8511 10.0827 21.7921 9.677 19.2709C9.65623 19.1397 9.46923 19.1463 9.45501 19.2774C9.19802 21.6675 8.69498 23.6435 8.05743 24.8282C7.88793 25.1429 7.56095 25.3429 7.20445 25.3429H6.10104C5.74344 25.3429 5.42084 25.1495 5.25024 24.8358C4.68158 23.7856 4.2201 22.1134 3.94561 20.0829C3.92812 19.9484 3.73346 19.955 3.72034 20.0894C3.54646 22.0348 3.26542 23.6435 2.91547 24.7014C2.78753 25.0883 2.41571 25.344 2.00672 25.344H1.92361C1.49712 25.344 1.1253 25.0883 0.997356 24.6981C0.399174 22.8916 2.26593e-05 19.4643 2.26593e-05 15.5299C-0.00325804 11.8174 0.349964 8.55953 0.89128 6.68414C1.00939 6.2765 1.39104 6 1.81425 6H2.08874C2.51523 6 2.89688 6.27978 3.01499 6.68742C3.31681 7.73768 3.55959 9.21963 3.71597 10.9671C3.72581 11.1016 3.92374 11.1048 3.94124 10.9737C4.18729 9.15296 4.58316 7.61965 5.07199 6.56611C5.23493 6.22076 5.57503 6 5.9534 6H7.3488C7.72717 6 8.06727 6.21748 8.22693 6.55956C8.78575 7.76828 9.22317 9.60323 9.45829 11.7824C9.47251 11.9136 9.65951 11.9169 9.68028 11.789C10.0477 9.49831 10.7454 7.58468 11.6301 6.38251C11.8095 6.1377 12.0982 6 12.4033 6H15.2553C15.5604 6 15.848 6.1377 16.0284 6.3836C16.7054 7.30271 17.2773 8.64259 17.6655 10.2458C17.6896 10.3529 17.8361 10.3639 17.8777 10.2633C18.6027 8.52237 19.6744 7.09616 20.9659 6.1694C21.1256 6.05574 21.3202 6 21.5182 6H27.3469C27.5448 6 27.7395 6.05574 27.8991 6.17268C30.3345 7.92347 32 11.4546 32 15.5299" fill="#EB512F"/>
<path d="M43.2752 24C41.8156 24 40.54 23.6689 39.4496 23.0057C38.3581 22.3424 37.5104 21.4147 36.9064 20.2215C36.3015 19.0283 36 17.6501 36 16.089C36 14.5279 36.2945 13.2014 36.8845 11.9784C37.4745 10.7553 38.3471 9.78684 39.5053 9.0719C40.6624 8.35796 42.0743 8 43.7399 8C45.5537 8 47.0571 8.43453 48.2511 9.30359C49.446 10.1726 50.2191 11.3738 50.5733 12.9061H47.4113C47.1755 12.1842 46.7477 11.6204 46.1288 11.2157C45.5099 10.811 44.7129 10.6082 43.7409 10.6082C42.7091 10.6082 41.8315 10.8289 41.1092 11.2714C40.3868 11.7139 39.8376 12.3433 39.4615 13.1606C39.0854 13.978 38.8974 14.9614 38.8974 16.1109C38.8974 17.2603 39.0854 18.2139 39.4615 19.0173C39.8376 19.8208 40.3759 20.4323 41.0753 20.8519C41.7758 21.2715 42.5976 21.4813 43.5409 21.4813C44.8682 21.4813 45.885 21.1423 46.5924 20.4651C47.2999 19.788 47.7496 18.8891 47.9416 17.7684H43.0106V15.381H50.8609V23.7355H48.2511L48.0302 21.7021C47.5287 22.4389 46.9019 23.0057 46.1507 23.4034C45.3985 23.8011 44.4403 24 43.2762 24" fill="white"/>
<path d="M52.5642 23.7345V12.7729H55.373V14.4086C55.7561 13.7901 56.2426 13.3187 56.8327 12.9936C57.4217 12.6694 58.0784 12.5074 58.8007 12.5074V15.4685H58.0485C57.1491 15.4685 56.4784 15.6823 56.0357 16.1089C55.5929 16.5364 55.372 17.2504 55.372 18.2527V23.7335H52.5632L52.5642 23.7345Z" fill="white"/>
<path d="M64.8591 21.547C65.4481 21.547 65.9605 21.3958 66.3953 21.0945C66.8301 20.7922 67.1734 20.3866 67.4241 19.8784C67.6748 19.3703 67.8002 18.8145 67.8002 18.2099C67.8002 17.5179 67.6639 16.9282 67.3913 16.442C67.1186 15.9558 66.7615 15.5878 66.3187 15.3373C65.8759 15.0867 65.3894 14.9614 64.8591 14.9614C64.284 14.9614 63.7785 15.1016 63.3437 15.381C62.9089 15.6614 62.5696 16.0482 62.3259 16.5414C62.0831 17.0356 61.9607 17.6064 61.9607 18.2547C61.9607 18.903 62.0891 19.4777 62.3478 19.9789C62.6055 20.48 62.9557 20.8668 63.3985 21.1393C63.8412 21.4117 64.3278 21.5479 64.8581 21.5479M64.8153 24C63.7099 24 62.7259 23.7604 61.8632 23.2821C61.0006 22.8038 60.326 22.1296 59.8395 21.2596C59.3529 20.3905 59.1091 19.3892 59.1091 18.2537C59.1091 17.0605 59.3708 16.0323 59.8942 15.1702C60.4175 14.3081 61.118 13.6489 61.9946 13.1925C62.8711 12.7361 63.8412 12.5074 64.9028 12.5074C65.9645 12.5074 66.9963 12.747 67.8659 13.2263C68.7355 13.7055 69.425 14.3718 69.9334 15.2259C70.4418 16.081 70.6965 17.0903 70.6965 18.2537C70.6965 19.4171 70.4458 20.3458 69.9444 21.2148C69.4429 22.0849 68.7534 22.766 67.8768 23.2592C66.9992 23.7524 65.9784 23.999 64.8143 23.999" fill="white"/>
<path d="M77.2872 21.547C77.8762 21.547 78.3887 21.3958 78.8235 21.0945C79.2583 20.7922 79.6015 20.3866 79.8523 19.8784C80.103 19.3703 80.2284 18.8145 80.2284 18.2099C80.2284 17.5179 80.092 16.9282 79.8194 16.442C79.5468 15.9558 79.1896 15.5878 78.7468 15.3373C78.3041 15.0867 77.8175 14.9614 77.2872 14.9614C76.7121 14.9614 76.2067 15.1016 75.7729 15.381C75.3381 15.6614 74.9988 16.0482 74.755 16.5414C74.5123 17.0356 74.3899 17.6064 74.3899 18.2547C74.3899 18.903 74.5182 19.4777 74.7769 19.9789C75.0346 20.48 75.3848 20.8668 75.8276 21.1393C76.2704 21.4117 76.7569 21.5479 77.2872 21.5479M77.2434 24C76.138 24 75.154 23.7604 74.2914 23.2821C73.4287 22.8038 72.7541 22.1296 72.2676 21.2596C71.7811 20.3905 71.5373 19.3892 71.5373 18.2537C71.5373 17.0605 71.799 16.0323 72.3223 15.1702C72.8457 14.3081 73.5461 13.6489 74.4237 13.1925C75.3003 12.7361 76.2704 12.5074 77.332 12.5074C78.3936 12.5074 79.4254 12.747 80.295 13.2263C81.1646 13.7055 81.8541 14.3718 82.3626 15.2259C82.871 16.081 83.1257 17.0903 83.1257 18.2537C83.1257 19.4171 82.875 20.3458 82.3735 21.2148C81.872 22.0849 81.1825 22.766 80.306 23.2592C79.4284 23.7524 78.4076 23.999 77.2434 23.999" fill="white"/>
<path d="M86.8847 23.7345L82.7715 12.7729H85.7793L88.61 21.193L91.4188 12.7729H94.4037L90.2905 23.7345H86.8847Z" fill="white"/>
<path d="M96.9249 17.2146H102.21C102.195 16.4778 101.927 15.8961 101.403 15.4685C100.88 15.041 100.264 14.8282 99.5566 14.8282C98.9517 14.8282 98.3915 15.0161 97.8761 15.392C97.3597 15.7678 97.0433 16.3754 96.9249 17.2156M99.6452 24C98.495 24 97.504 23.7494 96.6702 23.2483C95.8374 22.7471 95.1917 22.062 94.735 21.193C94.2783 20.3239 94.0495 19.3445 94.0495 18.2537C94.0495 17.0893 94.2853 16.081 94.7569 15.2259C95.2285 14.3718 95.8852 13.7046 96.7249 13.2263C97.5657 12.748 98.5388 12.5074 99.6442 12.5074C100.75 12.5074 101.69 12.743 102.508 13.2143C103.326 13.6857 103.967 14.334 104.432 15.1593C104.897 15.9846 105.128 16.9352 105.128 18.0101C105.128 18.202 105.12 18.3899 105.107 18.5739C105.092 18.7578 105.07 18.9308 105.04 19.0929H96.902C96.9458 19.609 97.0821 20.0624 97.311 20.4522C97.5398 20.843 97.8493 21.1452 98.2403 21.358C98.6303 21.5718 99.077 21.6782 99.5785 21.6782C100.08 21.6782 100.541 21.5678 100.917 21.3471C101.293 21.1263 101.591 20.7873 101.812 20.3309H104.842C104.635 20.9792 104.304 21.5837 103.847 22.1426C103.39 22.7024 102.811 23.1518 102.111 23.4909C101.41 23.83 100.588 23.999 99.6452 23.999" fill="white"/>
<path d="M106.191 23.7345V12.7729H109V14.4086C109.383 13.7901 109.869 13.3187 110.459 12.9936C111.049 12.6694 111.705 12.5074 112.428 12.5074V15.4685H111.675C110.776 15.4685 110.105 15.6823 109.663 16.1089C109.22 16.5364 108.999 17.2504 108.999 18.2527V23.7335H106.19L106.191 23.7345Z" fill="white"/>
</svg>
