<?xml version="1.0" encoding="utf-8"?>
<svg xmlns="http://www.w3.org/2000/svg" width="75" height="32" viewBox="0 0 75 32" fill="none">
<g clip-path="url(#clip0_3028_37965)">
<path d="M41.7445 18.3672C42.6975 18.3672 43.6505 18.3672 44.6324 18.3672C44.6324 20.874 44.6324 23.3808 44.6324 25.9636C46.0205 25.9636 47.4086 25.9636 48.8387 25.9636C48.8387 23.4568 48.8387 20.95 48.8387 18.3672C49.8125 18.3672 50.7862 18.3672 51.7894 18.3672C51.7894 22.78 51.7894 27.1929 51.7894 31.7394C50.8157 31.7394 49.842 31.7394 48.8387 31.7394C48.8387 30.6207 48.8387 29.5019 48.8387 28.3493C47.4507 28.3493 46.0626 28.3493 44.6324 28.3493C44.6324 29.468 44.6324 30.5868 44.6324 31.7394C43.6794 31.7394 42.7264 31.7394 41.7445 31.7394C41.7445 30.6207 41.7445 29.5019 41.7445 28.3493C28.2988 28.3493 14.8531 28.3493 1 28.3493C1 27.562 1 26.7747 1 25.9636C14.4457 25.9636 27.8914 25.9636 41.7445 25.9636C41.7445 23.4568 41.7445 20.95 41.7445 18.3672Z" fill="#131313"/>
<path d="M50.6056 1.42121C51.7551 2.6388 51.7894 4.02177 51.7894 5.62211C50.8571 5.62211 49.9248 5.62211 48.9643 5.62211C48.9228 5.20776 48.8814 4.79341 48.8387 4.3665C48.6722 3.70064 48.4866 3.13107 47.897 2.73421C47.4141 2.50389 46.9174 2.46816 46.406 2.62434C45.872 2.82587 45.5631 3.15016 45.3196 3.6563C45.0977 4.1991 45.007 4.77151 44.9745 5.35382C44.9719 5.40013 44.9693 5.44643 44.9666 5.49414C44.9386 6.02584 44.9338 6.55727 44.9345 7.08961C44.9346 7.14031 44.9346 7.19101 44.9347 7.24325C44.8991 9.23645 44.8991 9.23645 45.7625 10.9585C46.1828 11.3148 46.6305 11.4147 47.1711 11.394C47.6723 11.3429 48.0326 11.1855 48.3561 10.7937C48.9515 9.91458 48.9158 8.83827 48.9643 7.81943C57.4999 7.81943 66.0355 7.81943 74.8298 7.81943C74.8298 8.6067 74.8298 9.39396 74.8298 10.2051C67.2058 10.2051 59.5817 10.2051 51.7266 10.2051C51.6852 10.4123 51.6437 10.6194 51.6011 10.8329C51.5302 11.007 51.4602 11.1661 51.3735 11.3312C51.3512 11.3742 51.329 11.4172 51.3061 11.4614C50.714 12.5793 49.8484 13.2752 48.6594 13.6823C47.2947 14.0933 45.6551 13.9607 44.3997 13.2889C44.0379 13.0559 43.7388 12.7726 43.4396 12.4652C43.4016 12.4271 43.3637 12.389 43.3246 12.3497C42.072 10.998 41.9082 8.92574 41.9165 7.17668C41.9172 7.00757 41.9165 6.8385 41.9157 6.66939C41.9149 5.74507 41.9594 4.81737 42.1958 3.91919C42.2092 3.8674 42.2226 3.81561 42.2364 3.76226C42.4564 2.95245 42.7826 2.25826 43.314 1.60416C43.3751 1.52465 43.3751 1.52465 43.4374 1.44353C44.1485 0.590518 45.2976 0.167916 46.3746 0.0464198C47.9698 -0.0393463 49.4303 0.277943 50.6056 1.42121Z" fill="#131313"/>
<path d="M1 0.286133C2.32592 0.286133 3.65185 0.286133 5.01795 0.286133C5.22984 0.921791 5.22984 0.921791 5.28403 1.14142C5.29651 1.19153 5.309 1.24164 5.32186 1.29327C5.33478 1.34611 5.3477 1.39895 5.36101 1.4534C5.37523 1.51076 5.38944 1.56812 5.40409 1.62722C5.4507 1.81546 5.49698 2.00378 5.54325 2.19211C5.57599 2.32468 5.60875 2.45725 5.64153 2.58981C5.71016 2.86756 5.77864 3.14535 5.847 3.42316C5.93369 3.77544 6.02062 4.12766 6.10764 4.47986C6.19164 4.81984 6.27552 5.15985 6.35939 5.49986C6.37496 5.56292 6.39052 5.62598 6.40655 5.69095C6.61746 6.54609 6.82419 7.40214 7.02693 8.25925C7.25723 7.45031 7.46622 6.63764 7.66479 5.82038C7.69469 5.69787 7.7246 5.57536 7.75453 5.45286C7.81674 5.19811 7.87882 4.94334 7.94081 4.68854C8.01952 4.36504 8.09842 4.0416 8.17739 3.71817C8.25378 3.40528 8.33009 3.09237 8.40638 2.77945C8.42053 2.72144 8.43468 2.66343 8.44926 2.60367C8.49011 2.43608 8.53092 2.26848 8.57169 2.10087C8.59087 2.02203 8.59087 2.02203 8.61045 1.94159C8.67317 1.68309 8.73499 1.42442 8.79522 1.16532C8.80674 1.1158 8.81826 1.06629 8.83013 1.01527C8.8517 0.9222 8.87313 0.829099 8.89439 0.735959C8.96628 0.425386 8.96628 0.425386 9.0359 0.286133C10.2997 0.286133 11.5634 0.286133 12.8655 0.286133C12.8655 4.69897 12.8655 9.11181 12.8655 13.6584C11.9747 13.6584 11.0838 13.6584 10.166 13.6584C10.1452 10.6336 10.1245 7.60885 10.1032 4.49243C9.87139 5.41047 9.63961 6.32852 9.40081 7.27439C8.86322 9.40305 8.32453 11.5314 7.78029 13.6584C7.17948 13.6584 6.57867 13.6584 5.95966 13.6584C5.68854 12.7057 5.44613 11.7466 5.20687 10.7855C5.15699 10.5853 5.10695 10.3851 5.05692 10.1849C4.91167 9.6032 4.76667 9.02147 4.62165 8.43975C4.29664 7.13713 3.97164 5.83452 3.63678 4.49243C3.61606 7.51719 3.59535 10.542 3.574 13.6584C2.72458 13.6584 1.87516 13.6584 1 13.6584C1 9.24554 1 4.8327 1 0.286133Z" fill="#131313"/>
<path d="M65.6639 18.3672C72.316 18.3672 72.316 18.3672 73.4626 19.4364C74.0879 20.129 74.2763 20.9899 74.2805 21.8907C74.2824 21.9934 74.2824 21.9934 74.2844 22.0982C74.2883 22.9111 74.0526 23.5809 73.5036 24.1901C73.1767 24.4993 72.742 24.6925 72.3186 24.8336C72.3755 24.8557 72.4324 24.8778 72.491 24.9005C73.3856 25.2631 74.047 25.752 74.4504 26.654C74.6118 27.1188 74.6643 27.5604 74.6611 28.0511C74.6608 28.1088 74.6604 28.1666 74.66 28.2261C74.6432 29.177 74.3762 29.9686 73.7152 30.6682C71.7484 32.4743 67.5655 31.7394 65.6639 31.7394C65.6639 27.3266 65.6639 22.9138 65.6639 18.3672ZM68.4262 20.6901C68.4262 21.7259 68.4262 22.7618 68.4262 23.8291C68.724 23.8343 69.0219 23.8394 69.3287 23.8448C69.4213 23.8471 69.5139 23.8494 69.6093 23.8517C70.1924 23.8566 70.6594 23.8027 71.1219 23.4289C71.4644 22.9929 71.5504 22.5502 71.5025 22.0085C71.4068 21.5349 71.2718 21.2129 70.8668 20.9294C70.0844 20.5635 69.2851 20.6901 68.4262 20.6901ZM68.4262 26.0892C68.4262 27.1872 68.4262 28.2852 68.4262 29.4166C68.8555 29.4204 68.8555 29.4204 69.2934 29.4244C69.4265 29.4261 69.4265 29.4261 69.5624 29.4279C70.2441 29.4308 70.8917 29.4253 71.4397 28.9771C71.7955 28.6119 71.8391 28.2165 71.8399 27.7293C71.8422 27.6573 71.8422 27.6573 71.8446 27.5839C71.8467 27.1662 71.7268 26.8543 71.4645 26.5294C70.8617 26.0249 70.2006 26.0654 69.4582 26.0774C68.9474 26.0832 68.9474 26.0832 68.4262 26.0892Z" fill="#131313"/>
<path d="M53.8611 18.3672C54.8142 18.3672 55.7672 18.3672 56.749 18.3672C56.75 18.638 56.7509 18.9088 56.7518 19.1879C56.755 20.085 56.7592 20.982 56.7638 21.8791C56.7667 22.4227 56.7691 22.9664 56.7708 23.51C56.7722 23.9843 56.7743 24.4585 56.7772 24.9327C56.7787 25.1834 56.7799 25.4342 56.7803 25.6849C56.7807 25.9217 56.7819 26.1585 56.7838 26.3953C56.7846 26.522 56.7845 26.6487 56.7844 26.7755C56.7923 27.5555 56.8493 28.4216 57.3769 29.0399C57.7878 29.4057 58.3207 29.5115 58.8593 29.4945C59.4085 29.4388 59.845 29.287 60.202 28.8515C60.588 28.22 60.5976 27.5165 60.5987 26.7986C60.5993 26.7064 60.5999 26.6142 60.6006 26.5219C60.6023 26.273 60.6032 26.0242 60.6041 25.7753C60.605 25.5146 60.6067 25.254 60.6083 24.9933C60.6113 24.5004 60.6136 24.0075 60.6157 23.5145C60.6181 22.9531 60.6212 22.3916 60.6243 21.8302C60.6308 20.6758 60.6363 19.5215 60.6414 18.3672C61.5944 18.3672 62.5475 18.3672 63.5293 18.3672C63.5336 19.6044 63.5371 20.8416 63.5391 22.0788C63.5401 22.6534 63.5414 23.2279 63.5435 23.8024C63.5454 24.3035 63.5466 24.8046 63.5471 25.3057C63.5473 25.5708 63.5479 25.8358 63.5493 26.1008C63.5505 26.3509 63.5509 26.601 63.5506 26.8512C63.5507 26.9423 63.5511 27.0335 63.5518 27.1246C63.5622 28.4927 63.184 29.7672 62.2369 30.7776C61.2343 31.7413 59.8502 32.0133 58.5044 31.9999C57.1896 31.9506 55.9872 31.5682 55.054 30.6094C54.0294 29.4872 53.8388 27.9872 53.8469 26.5278C53.8469 26.438 53.8469 26.3482 53.8468 26.2583C53.8468 26.0178 53.8475 25.7772 53.8484 25.5367C53.8492 25.2841 53.8493 25.0314 53.8494 24.7788C53.8498 24.3019 53.8508 23.825 53.8521 23.3481C53.8535 22.8046 53.8542 22.261 53.8548 21.7175C53.8561 20.6007 53.8584 19.484 53.8611 18.3672Z" fill="#131313"/>
<path d="M15.0001 0.286133C15.9324 0.286133 16.8647 0.286133 17.8252 0.286133C17.8271 0.665225 17.8271 0.665225 17.829 1.05198C17.8332 1.89042 17.838 2.72885 17.8432 3.56729C17.8464 4.07524 17.8493 4.58319 17.8517 5.09114C17.8538 5.5344 17.8563 5.97766 17.8593 6.42091C17.8608 6.65513 17.8622 6.88935 17.8631 7.12357C17.7715 9.07669 17.7715 9.07669 18.4059 10.8607C18.8893 11.3112 19.4304 11.3643 20.0654 11.3524C20.5289 11.332 20.8765 11.1975 21.2075 10.8686C21.7432 10.1939 21.727 9.26312 21.7305 8.44675C21.7311 8.35762 21.7317 8.26849 21.7324 8.17936C21.734 7.93839 21.7354 7.69742 21.7366 7.45645C21.738 7.20424 21.7397 6.95204 21.7414 6.69984C21.7445 6.22271 21.7474 5.74558 21.7501 5.26844C21.7532 4.72505 21.7566 4.18166 21.7601 3.63827C21.7672 2.5209 21.7739 1.40352 21.7804 0.286133C22.7334 0.286133 23.6864 0.286133 24.6683 0.286133C24.6725 1.47916 24.676 2.67219 24.678 3.86522C24.679 4.41927 24.6803 4.97332 24.6825 5.52737C24.6844 6.01075 24.6856 6.49412 24.686 6.9775C24.6862 7.23302 24.6868 7.48853 24.6882 7.74405C24.6977 9.5684 24.6515 11.2782 23.3268 12.6904C22.357 13.5811 21.1389 13.8724 19.8499 13.8663C19.7723 13.866 19.6947 13.8657 19.6148 13.8654C18.3375 13.849 17.1955 13.5048 16.2439 12.6186C15.2417 11.5655 14.9782 10.1597 14.9858 8.75322C14.9859 8.66033 14.9858 8.56744 14.9858 8.47455C14.9857 8.22478 14.9865 7.97501 14.9873 7.72524C14.9881 7.46332 14.9882 7.2014 14.9883 6.93948C14.9887 6.44457 14.9898 5.94966 14.991 5.45475C14.9924 4.89086 14.9931 4.32696 14.9938 3.76307C14.9951 2.60409 14.9974 1.44511 15.0001 0.286133Z" fill="#131313"/>
<path d="M33.8565 1.01885C34.6864 1.74942 35.1266 2.70862 35.2585 3.80179C35.2807 4.15691 35.2781 4.51324 35.2781 4.86906C34.408 4.86906 33.5379 4.86906 32.6413 4.86906C32.6206 4.57901 32.5999 4.28896 32.5786 3.99013C32.4627 3.49206 32.2965 3.09323 31.9429 2.71882C31.3619 2.36517 30.7458 2.24375 30.0776 2.39928C29.6316 2.55399 29.3742 2.80247 29.1649 3.22107C29.0638 3.74649 29.0743 4.22553 29.3768 4.68071C29.6791 4.96624 30.0107 5.13129 30.4009 5.26143C30.5057 5.29842 30.6105 5.33546 30.7153 5.37253C30.7719 5.39224 30.8286 5.41196 30.887 5.43227C34.3349 6.63702 34.3349 6.63702 35.1094 8.04339C35.6186 9.13253 35.5719 10.426 35.1722 11.5434C35.0111 11.9086 34.7749 12.2195 34.5248 12.5283C34.4756 12.5895 34.4756 12.5895 34.4254 12.6519C33.7469 13.4078 32.6105 13.7923 31.6229 13.8607C30.0825 13.9126 28.6508 13.7688 27.4414 12.7237C26.6828 11.9856 26.2525 11.0093 26.175 9.95428C26.175 9.64351 26.175 9.33275 26.175 9.01257C27.0244 9.01257 27.8738 9.01257 28.749 9.01257C28.8111 9.4062 28.8733 9.79984 28.9373 10.2054C29.0966 10.5994 29.2357 10.8739 29.5651 11.1471C29.6182 11.1911 29.6713 11.2352 29.726 11.2805C30.3244 11.6069 30.9739 11.662 31.6297 11.5056C31.8274 11.4392 31.9714 11.3326 32.1391 11.2099C32.1805 11.2099 32.222 11.2099 32.2647 11.2099C32.5385 10.7043 32.6584 10.2631 32.5536 9.69261C32.442 9.31805 32.2047 9.10225 31.888 8.88701C31.2265 8.55882 30.4987 8.35367 29.7979 8.1263C28.5658 7.72534 27.3888 7.22431 26.7022 6.05551C26.2018 5.01841 26.1536 3.76654 26.4889 2.67174C26.9022 1.58873 27.6039 0.848889 28.6582 0.373875C30.315 -0.257096 32.4482 -0.119848 33.8565 1.01885Z" fill="#131313"/>
<path d="M37.1616 0.286133C38.1353 0.286133 39.109 0.286133 40.1122 0.286133C40.1122 4.69897 40.1122 9.11181 40.1122 13.6584C39.1385 13.6584 38.1648 13.6584 37.1616 13.6584C37.1616 9.24554 37.1616 4.8327 37.1616 0.286133Z" fill="#131313"/>
</g>
<defs>
<clipPath id="clip0_3028_37965">
<rect width="74" height="32" fill="white" transform="translate(0.947388)"/>
</clipPath>
</defs>
</svg>