<?xml version="1.0" encoding="utf-8"?>
<svg xmlns="http://www.w3.org/2000/svg" width="114" height="32" viewBox="0 0 114 32" fill="none">
<path d="M22.2317 4.41643C22.3293 4.46518 22.427 4.51394 22.5276 4.56417C23.2617 4.96221 23.8378 5.47522 24.4244 6.06092C24.5261 6.16109 24.5261 6.16109 24.6299 6.26327C25.9979 7.69799 26.4852 9.53499 26.4596 11.4698C26.3939 13.4636 25.4765 15.3486 24.0396 16.7187C23.5619 17.1202 23.0476 17.4474 22.5058 17.7551C22.3775 17.8281 22.3775 17.8281 22.2467 17.9025C21.3601 18.3531 20.3913 18.5878 19.4398 18.8625C17.2868 19.4856 15.6528 20.3625 14.5372 22.3768C14.1441 23.1107 13.8007 23.8671 13.4553 24.6243C12.6397 26.4111 11.8034 28.1897 9.89795 28.9925C8.84305 29.3617 7.7174 29.2444 6.70031 28.8098C6.40771 28.6477 6.14144 28.4674 5.87806 28.2616C5.80328 28.2055 5.72849 28.1493 5.65144 28.0914C3.23883 26.0454 2.92244 21.9304 2.68042 19.0342C2.36339 15.1066 2.40491 10.4586 4.97016 7.20293C5.08901 7.06497 5.20888 6.92788 5.32989 6.79181C5.38477 6.72397 5.43966 6.65614 5.4962 6.58625C7.41147 4.27831 10.6375 3.38998 13.5031 3.09205C16.4722 2.8344 19.5371 3.06949 22.2317 4.41643Z" fill="#131313"/>
<path d="M104.305 9.44071C105.126 10.0056 105.604 11.026 106.088 11.8667C106.256 12.1572 106.425 12.4469 106.594 12.7365C106.628 12.796 106.663 12.8556 106.699 12.9169C107.078 13.5667 107.467 14.211 107.857 14.8542C107.889 14.9073 107.922 14.9603 107.955 15.015C108.253 15.5085 108.555 16.0007 108.867 16.4859C108.927 16.5798 108.927 16.5798 108.989 16.6756C109.138 16.8651 109.279 16.9893 109.485 17.1154C109.813 17.1305 109.813 17.1305 110.124 17.024C110.404 16.6701 110.433 16.3904 110.433 15.9468C110.434 15.8863 110.434 15.8258 110.435 15.7634C110.436 15.6326 110.436 15.5018 110.436 15.371C110.435 15.1635 110.437 14.9561 110.438 14.7487C110.442 14.308 110.443 13.8674 110.444 13.4267C110.445 12.9164 110.447 12.4062 110.451 11.8959C110.452 11.6923 110.452 11.4888 110.452 11.2852C110.453 11.1592 110.453 11.0333 110.454 10.9074C110.455 10.7982 110.455 10.689 110.455 10.5765C110.503 10.1413 110.622 9.76864 110.935 9.44892C111.291 9.26706 111.655 9.30315 112.043 9.34971C112.318 9.4646 112.446 9.54596 112.614 9.78938C112.814 10.3736 112.787 10.9765 112.787 11.586C112.787 11.691 112.788 11.7959 112.788 11.9041C112.789 12.2505 112.789 12.597 112.789 12.9435C112.789 13.1847 112.79 13.4259 112.79 13.6671C112.791 14.1726 112.791 14.6781 112.791 15.1836C112.791 15.7666 112.791 16.3496 112.793 16.9326C112.794 17.495 112.795 18.0573 112.795 18.6196C112.795 18.8582 112.795 19.0968 112.796 19.3354C112.797 19.6693 112.796 20.0032 112.796 20.3371C112.796 20.4352 112.797 20.5334 112.797 20.6346C112.794 21.4107 112.744 22.0652 112.192 22.6509C111.833 22.9606 111.41 23.0062 110.947 22.9903C110.281 22.8892 109.87 22.3714 109.485 21.8662C109.239 21.4866 109.01 21.0988 108.783 20.7076C108.633 20.4486 108.482 20.1907 108.33 19.9327C108.252 19.7998 108.174 19.6669 108.096 19.5339C107.705 18.8665 107.306 18.2045 106.904 17.5436C106.842 17.4415 106.78 17.3394 106.716 17.2341C106.599 17.0421 106.482 16.8504 106.364 16.6591C106.25 16.4731 106.137 16.2864 106.026 16.0989C105.971 16.0091 105.916 15.9192 105.86 15.8267C105.813 15.7471 105.765 15.6674 105.716 15.5854C105.531 15.3476 105.372 15.2311 105.099 15.1054C104.759 15.1352 104.759 15.1352 104.46 15.2882C104.264 15.6454 104.254 15.9645 104.252 16.3668C104.252 16.4578 104.252 16.4578 104.251 16.5507C104.25 16.6818 104.249 16.8129 104.249 16.944C104.249 17.1518 104.247 17.3596 104.245 17.5674C104.24 18.158 104.238 18.7487 104.235 19.3393C104.234 19.7012 104.231 20.0631 104.228 20.4249C104.227 20.5624 104.226 20.6999 104.226 20.8374C104.226 21.0301 104.224 21.2226 104.222 21.4152C104.222 21.5793 104.222 21.5793 104.221 21.7467C104.174 22.1484 104.029 22.4458 103.782 22.7633C103.499 22.9747 103.159 22.9725 102.815 22.9625C102.435 22.8286 102.183 22.6833 101.993 22.323C101.885 21.7642 101.888 21.2117 101.888 20.6441C101.888 20.5412 101.888 20.4383 101.887 20.3323C101.887 19.9932 101.886 19.654 101.886 19.3148C101.886 19.0783 101.886 18.8417 101.885 18.6052C101.885 18.1096 101.885 17.614 101.885 17.1184C101.885 16.5475 101.884 15.9766 101.882 15.4057C101.881 14.8544 101.881 14.303 101.881 13.7516C101.881 13.518 101.88 13.2844 101.88 13.0509C101.879 12.7236 101.879 12.3963 101.879 12.069C101.879 11.9734 101.878 11.8777 101.878 11.7791C101.881 11.1055 101.892 10.4031 102.244 9.81222C102.806 9.2971 103.587 9.13063 104.305 9.44071Z" fill="#131313"/>
<path d="M96.8453 10.5597C98.2065 11.6508 99.1795 13.1583 99.4136 14.9071C99.5423 16.2022 99.481 17.4317 99.0679 18.6682C99.0404 18.7541 99.013 18.8399 98.9847 18.9284C98.3846 20.6093 97.0089 21.7063 95.4562 22.459C95.0238 22.647 94.5955 22.7757 94.1344 22.8708C94.0345 22.8916 93.9346 22.9123 93.8317 22.9336C91.8802 23.099 90.0807 22.6866 88.5613 21.4091C87.1632 20.1883 86.3971 18.4754 86.2623 16.6366C86.1663 14.7643 86.6388 13.1031 87.8304 11.6334C87.8811 11.5678 87.9317 11.5022 87.9839 11.4347C90.0774 8.8553 94.2567 8.62925 96.8453 10.5597ZM89.749 13.0039C88.9056 14.09 88.726 15.5059 88.8354 16.841C88.9582 17.7163 89.2245 18.4972 89.749 19.2164C89.815 19.3125 89.8809 19.4086 89.9489 19.5076C90.7885 20.3473 91.7379 20.6831 92.9067 20.7124C93.951 20.6871 94.8365 20.3833 95.6172 19.6696C96.5371 18.6928 96.9293 17.5044 96.9152 16.1786C96.914 16.0406 96.914 16.0406 96.9129 15.8998C96.8845 14.6441 96.5545 13.5852 95.7018 12.6331C94.9196 11.8878 93.9256 11.5999 92.8724 11.5135C91.6269 11.5563 90.5461 12.0453 89.749 13.0039Z" fill="#131313"/>
<path d="M64.6483 9.61134C64.749 9.61075 64.8497 9.61017 64.9535 9.60957C65.1178 9.60942 65.1178 9.60942 65.2854 9.60926C65.3981 9.60896 65.5108 9.60865 65.627 9.60834C65.8665 9.60788 66.1059 9.60766 66.3454 9.60768C66.7089 9.60769 67.0724 9.60583 67.4359 9.60409C67.6689 9.60382 67.9018 9.60364 68.1347 9.60355C68.2962 9.60257 68.2962 9.60257 68.461 9.60156C69.4068 9.60413 70.3048 9.66798 71.1503 10.1157C71.3056 10.1959 71.3056 10.1959 71.464 10.2777C72.3852 10.8228 72.8683 11.6191 73.171 12.6252C73.3676 13.5775 73.2044 14.5281 72.692 15.3461C72.2067 16.0247 71.6012 16.54 70.9369 17.0377C70.7359 17.2156 70.6398 17.317 70.5622 17.573C70.6286 18.5381 71.4925 19.4142 72.0506 20.1646C72.9749 21.4205 72.9749 21.4205 72.949 22.0269C72.8944 22.311 72.8293 22.4405 72.6635 22.6892C72.3001 22.9315 72.0019 22.9996 71.5672 22.9633C70.7406 22.5996 70.2167 21.5521 69.7285 20.8277C69.6696 20.7413 69.6106 20.6548 69.5499 20.5657C69.2559 20.1339 68.9656 19.7003 68.6818 19.2618C68.6301 19.183 68.5783 19.1043 68.525 19.0231C68.428 18.8754 68.3324 18.7268 68.2383 18.5771C67.933 18.1155 67.6277 17.8305 67.0905 17.6644C66.6758 17.6573 66.5119 17.7067 66.1883 17.967C65.9319 18.2912 65.8922 18.5423 65.8884 18.9477C65.887 19.0552 65.887 19.0552 65.8855 19.1648C65.8845 19.2798 65.8845 19.2798 65.8835 19.397C65.8809 19.5603 65.8783 19.7236 65.8757 19.8868C65.8719 20.1434 65.8685 20.4001 65.8661 20.6567C65.8636 20.9049 65.8594 21.1531 65.855 21.4012C65.8547 21.4777 65.8544 21.5541 65.8541 21.6329C65.8451 22.0589 65.8131 22.3435 65.5373 22.6892C65.1424 22.9713 64.8263 23.0014 64.3607 22.9315C64.0579 22.8384 63.9012 22.66 63.7101 22.4151C63.5935 22.1819 63.6065 22.0169 63.6053 21.7557C63.6043 21.6041 63.6043 21.6041 63.6033 21.4494C63.6031 21.338 63.6028 21.2267 63.6026 21.1119C63.602 20.995 63.6014 20.878 63.6008 20.7576C63.5992 20.4363 63.5982 20.115 63.5975 19.7937C63.597 19.593 63.5964 19.3923 63.5959 19.1916C63.5941 18.5638 63.5928 17.9359 63.592 17.3081C63.5912 16.5832 63.5888 15.8583 63.5851 15.1334C63.5823 14.5732 63.581 14.013 63.5806 13.4528C63.5804 13.1181 63.5796 12.7835 63.5773 12.4489C63.5748 12.0755 63.5752 11.7022 63.5758 11.3288C63.5746 11.2179 63.5735 11.1071 63.5723 10.9929C63.5769 10.2437 63.5769 10.2437 63.7927 9.87783C64.0925 9.62444 64.262 9.61285 64.6483 9.61134ZM66.2918 11.8572C65.764 12.5852 65.7397 13.406 65.8685 14.2897C65.9599 14.7097 66.0975 14.9367 66.4509 15.1976C66.9183 15.4823 67.439 15.414 67.9698 15.4146C68.1258 15.418 68.1258 15.418 68.2849 15.4214C69.0559 15.424 69.7215 15.3309 70.3313 14.829C70.3792 14.7678 70.4272 14.7067 70.4765 14.6437C70.5266 14.5824 70.5766 14.521 70.6282 14.4578C70.9362 13.9991 70.8735 13.4432 70.8363 12.9136C70.6788 12.4134 70.3604 12.0926 69.9227 11.8173C69.3048 11.5243 68.6521 11.5189 67.9812 11.5146C67.9034 11.5141 67.8256 11.5136 67.7455 11.5131C66.9697 11.5197 66.9697 11.5197 66.2918 11.8572Z" fill="#131313"/>
<path d="M77.2631 9.59762C77.3782 9.5967 77.3782 9.5967 77.4955 9.59576C77.749 9.59402 78.0024 9.59366 78.2558 9.59347C78.4322 9.59288 78.6086 9.59227 78.7849 9.59162C79.1546 9.59053 79.5244 9.59019 79.8941 9.5903C80.3674 9.59032 80.8407 9.58782 81.314 9.58468C81.6783 9.58264 82.0426 9.58227 82.4069 9.58237C82.5814 9.58216 82.7558 9.58135 82.9303 9.57994C83.1746 9.57814 83.4188 9.57867 83.663 9.57977C83.7707 9.57823 83.7707 9.57823 83.8805 9.57666C84.353 9.58206 84.6219 9.67817 84.9973 9.9896C85.1035 10.2021 85.1038 10.3356 85.1058 10.572C85.1071 10.6425 85.1084 10.7129 85.1097 10.7854C85.085 11.0309 85.0504 11.1588 84.9059 11.36C84.3756 11.7302 83.8046 11.6728 83.1843 11.6712C83.0141 11.6727 83.0141 11.6727 82.8403 11.6742C82.4169 11.6779 81.9934 11.6791 81.5699 11.6803C81.1544 11.6815 80.739 11.6847 80.3236 11.6883C80.2142 11.6881 80.1049 11.6878 79.9922 11.6875C79.2574 11.6896 79.2574 11.6896 78.602 11.9995C78.2442 12.4086 78.1813 12.7565 78.1966 13.2843C78.1959 13.3477 78.1953 13.4111 78.1946 13.4765C78.1996 13.8828 78.2655 14.1421 78.5106 14.4663C78.8425 14.7567 79.1225 14.8426 79.5584 14.8461C79.6407 14.8471 79.7231 14.848 79.8079 14.849C79.8967 14.8496 79.9855 14.8503 80.077 14.851C80.2651 14.8536 80.4532 14.8562 80.6414 14.8589C80.9379 14.8626 81.2344 14.866 81.5309 14.8684C81.8172 14.8709 82.1033 14.8751 82.3896 14.8796C82.4778 14.8799 82.566 14.8801 82.6569 14.8805C83.1384 14.8892 83.4858 14.9251 83.9009 15.1972C84.154 15.5549 84.1461 15.9631 84.0837 16.3849C83.8905 16.7045 83.7989 16.8148 83.4441 16.933C83.3148 16.9421 83.1852 16.9463 83.0556 16.9474C82.9384 16.9488 82.9384 16.9488 82.8189 16.9503C82.7347 16.9509 82.6505 16.9516 82.5637 16.9523C82.3847 16.9549 82.2058 16.9575 82.0268 16.9602C81.7451 16.9639 81.4635 16.9673 81.1818 16.9697C80.9096 16.9722 80.6375 16.9764 80.3653 16.9809C80.282 16.9812 80.1987 16.9814 80.1129 16.9818C79.5416 16.9926 78.9478 17.0403 78.5253 17.4691C78.2583 17.9513 78.2583 17.9513 78.1452 18.4862C78.1377 18.5842 78.1301 18.6821 78.1223 18.7831C78.1591 19.3342 78.2871 19.7754 78.6248 20.2163C79.234 20.6732 79.9311 20.6131 80.6612 20.6125C80.886 20.6143 81.1109 20.6162 81.3357 20.6182C81.6886 20.6202 82.0414 20.6217 82.3943 20.6223C82.7359 20.6231 83.0775 20.6262 83.4192 20.6296C83.5247 20.6291 83.6302 20.6287 83.739 20.6282C84.4705 20.6372 84.4705 20.6372 84.8332 20.8532C85.1141 21.1803 85.12 21.4236 85.114 21.843C85.0753 22.158 84.9599 22.3005 84.7232 22.506C84.2956 22.6856 83.9012 22.7154 83.4436 22.7139C83.3724 22.7143 83.3012 22.7148 83.2278 22.7153C82.9936 22.7165 82.7594 22.7165 82.5252 22.7163C82.3616 22.7166 82.198 22.717 82.0344 22.7174C81.6919 22.7181 81.3495 22.7181 81.0071 22.7176C80.5692 22.7171 80.1314 22.7186 79.6935 22.7207C79.3558 22.7221 79.0181 22.7222 78.6803 22.7219C78.5189 22.7219 78.3575 22.7224 78.1961 22.7233C77.9701 22.7245 77.7441 22.7238 77.518 22.7228C77.452 22.7235 77.3859 22.7242 77.3179 22.7249C76.8507 22.7201 76.5399 22.6345 76.1352 22.4147C75.8704 22.1342 75.8268 21.9422 75.8264 21.5609C75.8256 21.4619 75.8248 21.3629 75.824 21.2609C75.8246 21.1528 75.8251 21.0446 75.8257 20.9331C75.8252 20.8189 75.8247 20.7046 75.8242 20.5869C75.8232 20.2737 75.8235 19.9606 75.8243 19.6474C75.825 19.3195 75.8244 18.9916 75.824 18.6637C75.8235 18.1129 75.8241 17.5622 75.8254 17.0114C75.8269 16.3751 75.8264 15.7387 75.8249 15.1024C75.8237 14.5558 75.8235 14.0091 75.8242 13.4625C75.8247 13.1362 75.8247 12.8098 75.8238 12.4835C75.8229 12.1195 75.8242 11.7556 75.8257 11.3916C75.8251 11.2836 75.8246 11.1756 75.824 11.0644C75.8248 10.9651 75.8256 10.8659 75.8264 10.7636C75.8265 10.6776 75.8266 10.5916 75.8267 10.5029C75.876 10.1606 76.0127 9.90206 76.2874 9.68863C76.6099 9.59114 76.9293 9.59723 77.2631 9.59762Z" fill="#131313"/>
<path d="M46.6467 9.50918C47.153 9.92338 47.3681 10.3719 47.5946 10.9685C47.6256 11.0482 47.6567 11.1279 47.6886 11.2101C47.7913 11.4746 47.8928 11.7395 47.9943 12.0045C48.0664 12.191 48.1386 12.3776 48.2109 12.5641C48.4041 13.0633 48.5962 13.5629 48.7881 14.0625C48.949 14.4809 49.1104 14.899 49.2719 15.3171C49.7257 16.492 50.1789 17.6672 50.6275 18.8442C50.7401 19.1378 50.8542 19.4308 50.9685 19.7238C51.0438 19.9194 51.1192 20.1149 51.1944 20.3105C51.2296 20.3995 51.2647 20.4885 51.3009 20.5802C51.5359 21.1953 51.7557 21.8002 51.5517 22.4482C51.3287 22.7502 51.1856 22.849 50.8265 22.9621C50.3905 22.9874 50.1113 22.9591 49.768 22.6755C49.5275 22.3902 49.4046 22.1376 49.2677 21.7915C49.2211 21.6779 49.1745 21.5642 49.1278 21.4507C49.0854 21.3465 49.043 21.2422 48.9993 21.1349C48.7992 20.6683 48.6165 20.3202 48.177 20.0385C47.9201 19.9529 47.7594 19.9347 47.4933 19.9324C47.4106 19.9316 47.328 19.9307 47.2429 19.9298C47.1538 19.9294 47.0647 19.929 46.9729 19.9286C46.8811 19.9281 46.7893 19.9276 46.6947 19.927C46.5004 19.9262 46.3061 19.9256 46.1118 19.9252C45.8149 19.9243 45.5179 19.9215 45.221 19.9186C45.0322 19.918 44.8434 19.9175 44.6546 19.9172C44.5659 19.9161 44.4772 19.9149 44.3858 19.9138C43.9219 19.9153 43.6275 19.9332 43.2435 20.2212C43.1832 20.2212 43.1229 20.2212 43.0608 20.2212C42.9244 20.4857 42.8073 20.7532 42.6964 21.0292C42.662 21.113 42.6275 21.1967 42.592 21.283C42.5202 21.4579 42.4493 21.6333 42.3793 21.809C42.1527 22.3543 41.961 22.6897 41.4163 22.9621C40.9969 22.9662 40.675 22.923 40.32 22.6937C40.0011 22.3649 40.018 22.1049 40.0232 21.6634C40.061 21.2389 40.207 20.871 40.3646 20.4778C40.3984 20.3899 40.4322 20.3019 40.4671 20.2113C40.5784 19.9228 40.6918 19.6352 40.8053 19.3476C40.884 19.1451 40.9625 18.9425 41.0408 18.7399C41.2041 18.3184 41.3683 17.8973 41.5332 17.4765C41.7746 16.86 42.0134 16.2425 42.2514 15.6247C42.6101 14.6943 42.971 13.7649 43.3336 12.8361C43.4723 12.4806 43.6105 12.1247 43.7482 11.7688C43.8515 11.5026 43.9558 11.2368 44.0601 10.971C44.0939 10.883 44.1278 10.795 44.1627 10.7043C44.3862 10.1402 44.6041 9.66759 45.185 9.4064C45.732 9.18544 46.1192 9.22513 46.6467 9.50918ZM45.4333 13.5947C45.1903 13.9072 45.0688 14.2329 44.9337 14.6026C44.9063 14.6758 44.8788 14.7491 44.8505 14.8247C44.7706 15.0396 44.6922 15.255 44.6139 15.4705C44.5736 15.5781 44.5332 15.6858 44.4915 15.7967C44.3058 16.3136 44.17 16.7481 44.2485 17.2977C44.4523 17.6075 44.6945 17.7307 45.054 17.8173C45.769 17.9196 46.6221 17.9442 47.2577 17.5547C47.4603 17.209 47.4772 16.8894 47.3921 16.5066C47.3068 16.2249 47.2129 15.9478 47.115 15.6703C47.0835 15.5763 47.0521 15.4823 47.0197 15.3854C46.6894 14.2935 46.6894 14.2935 45.9844 13.4605C45.6301 13.4249 45.6301 13.4249 45.4333 13.5947Z" fill="#131313"/>
<path d="M31.9923 9.60852C32.0839 9.60764 32.1754 9.60676 32.2698 9.60586C32.4191 9.60528 32.4191 9.60528 32.5714 9.60468C32.674 9.60416 32.7766 9.60364 32.8823 9.6031C33.1002 9.60224 33.3182 9.60164 33.5362 9.60129C33.8666 9.60041 34.197 9.59758 34.5274 9.59469C34.7395 9.59409 34.9516 9.59361 35.1638 9.59326C35.3103 9.59157 35.3103 9.59157 35.4598 9.58984C36.9013 9.59403 38.1673 10.0565 39.2154 11.0575C39.9306 11.8304 40.1778 12.735 40.1601 13.7787C40.0739 14.8066 39.6958 15.6819 38.9531 16.4011C37.749 17.4038 36.45 17.5932 34.9389 17.6662C34.3554 17.7037 33.9284 17.7388 33.4714 18.1198C33.2352 18.6366 33.1579 19.0588 33.1602 19.6223C33.1592 19.6929 33.1583 19.7636 33.1572 19.8364C33.1531 20.1354 33.152 20.4343 33.1506 20.7333C33.1492 20.953 33.1462 21.1727 33.1431 21.3924C33.1434 21.4592 33.1437 21.526 33.1439 21.5949C33.1377 22.026 33.0613 22.3224 32.8319 22.6879C32.4422 22.9755 32.1191 22.9998 31.6553 22.9302C31.3524 22.837 31.1958 22.6586 31.0047 22.4138C30.8881 22.1806 30.9008 22.0154 30.8993 21.7543C30.8981 21.6027 30.8981 21.6027 30.8969 21.4481C30.8965 21.3367 30.8961 21.2253 30.8957 21.1105C30.895 20.9936 30.8942 20.8767 30.8934 20.7562C30.891 20.3679 30.8896 19.9796 30.8883 19.5912C30.8878 19.4576 30.8874 19.3239 30.8869 19.1903C30.8849 18.6344 30.8832 18.0785 30.8821 17.5226C30.8807 16.7257 30.8776 15.9288 30.8724 15.132C30.8689 14.5718 30.8671 14.0116 30.8666 13.4514C30.8663 13.1167 30.8652 12.7821 30.8622 12.4475C30.859 12.0741 30.8593 11.7008 30.86 11.3274C30.8585 11.2166 30.857 11.1057 30.8555 10.9915C30.8617 10.1577 30.8617 10.1577 31.1336 9.87646C31.4536 9.65745 31.6093 9.61148 31.9923 9.60852ZM33.4315 12.0215C33.0106 12.7621 33.0073 13.6113 33.1485 14.4407C33.2593 14.8324 33.4105 15.141 33.7534 15.385C34.5221 15.76 35.482 15.7226 36.2858 15.4864C36.9315 15.244 37.4033 14.9623 37.699 14.3205C37.8605 13.7839 37.8353 13.2257 37.6683 12.6953C37.1739 12.0254 36.568 11.7064 35.7555 11.5418C34.936 11.4888 34.0688 11.4332 33.4315 12.0215Z" fill="#131313"/>
<path d="M51.9418 9.61115C52.0207 9.61063 52.0996 9.61011 52.1809 9.60957C52.2672 9.60947 52.3535 9.60937 52.4424 9.60926C52.5335 9.60881 52.6246 9.60836 52.7184 9.60789C53.0202 9.60655 53.322 9.60593 53.6239 9.60543C53.8334 9.6049 54.0429 9.60437 54.2523 9.60385C54.6918 9.60289 55.1313 9.60235 55.5707 9.60204C56.1341 9.60153 56.6974 9.59934 57.2607 9.59674C57.6935 9.59504 58.1263 9.59456 58.5591 9.59442C58.7668 9.59415 58.9745 9.59341 59.1822 9.59221C59.4727 9.59066 59.7631 9.59082 60.0535 9.59142C60.1395 9.59058 60.2254 9.58973 60.3139 9.58887C60.757 9.59171 61.0653 9.60389 61.4217 9.89807C61.6404 10.2116 61.7188 10.4471 61.6901 10.8231C61.5993 11.1984 61.5501 11.3239 61.239 11.5426C60.6281 11.8166 59.9554 11.7607 59.299 11.769C58.7052 11.7841 58.2324 11.8083 57.7901 12.2506C57.4806 12.8077 57.4666 13.3597 57.4684 13.9815C57.4677 14.1113 57.4677 14.1113 57.4669 14.2437C57.466 14.4307 57.4655 14.6177 57.4653 14.8047C57.465 15.1008 57.4634 15.3969 57.4616 15.693C57.4565 16.5345 57.4537 17.376 57.4515 18.2176C57.45 18.7331 57.4473 19.2486 57.4437 19.7641C57.4427 19.9602 57.4421 20.1564 57.4421 20.3525C57.4421 20.6267 57.4404 20.9009 57.4384 21.1751C57.4388 21.2558 57.4392 21.3366 57.4397 21.4198C57.4343 21.8799 57.3845 22.1995 57.1277 22.5972C56.8313 22.8532 56.6494 22.9539 56.2598 23.0026C55.9026 22.958 55.6895 22.8915 55.3918 22.6886C55.0818 22.2155 55.0788 21.8053 55.0826 21.2595C55.0821 21.1724 55.0816 21.0853 55.0811 20.9955C55.0802 20.8069 55.08 20.6183 55.0802 20.4298C55.0807 20.1309 55.0794 19.8321 55.0777 19.5333C55.0743 18.8987 55.073 18.2641 55.0721 17.6295C55.071 16.8945 55.069 16.1596 55.0648 15.4246C55.0635 15.1309 55.0639 14.8372 55.0644 14.5435C55.0635 14.3624 55.0626 14.1813 55.0616 14.0003C55.0621 13.9192 55.0627 13.8381 55.0633 13.7545C55.0573 13.1517 54.9682 12.6294 54.5753 12.1478C54.2284 11.8745 53.9706 11.794 53.5286 11.7852C53.4337 11.7825 53.3389 11.7798 53.2411 11.777C53.1425 11.775 53.0439 11.773 52.9422 11.771C51.4471 11.7403 51.4471 11.7403 51.0179 11.4112C50.8076 11.1192 50.7881 10.8048 50.7913 10.4527C50.8499 10.1115 51.0335 9.95091 51.2806 9.71534C51.5324 9.63141 51.6823 9.61218 51.9418 9.61115Z" fill="#131313"/>
<path d="M6.61138 5.51221C6.67168 5.54236 6.73198 5.57251 6.79411 5.60357C6.34187 6.0558 5.88963 6.50804 5.42369 6.97398C5.36339 6.94383 5.30309 6.91368 5.24097 6.88262C5.67209 6.38922 6.09095 5.91254 6.61138 5.51221Z" fill="#131313"/>
<path d="M88.9249 10.5381C88.9852 10.5682 89.0455 10.5984 89.1077 10.6294C88.7459 10.9912 88.3841 11.353 88.0113 11.7258C87.951 11.6956 87.8907 11.6655 87.8286 11.6344C88.1688 11.2305 88.4951 10.8507 88.9249 10.5381Z" fill="#131313"/>
<path d="M102.724 9.43994C102.785 9.47009 102.845 9.50024 102.907 9.5313C102.666 9.7725 102.425 10.0137 102.176 10.2622C102.146 10.2019 102.116 10.1416 102.085 10.0795C102.287 9.81379 102.444 9.62695 102.724 9.43994Z" fill="#131313"/>
<path d="M44.9808 9.53223C45.0411 9.56238 45.1014 9.59252 45.1635 9.62359C44.9525 9.83463 44.7414 10.0457 44.524 10.2631C44.4938 10.2028 44.4637 10.1425 44.4326 10.0804C44.7752 9.63501 44.7752 9.63501 44.9808 9.53223Z" fill="#131313"/>
<path d="M31.364 9.71484C31.4243 9.74499 31.4846 9.77514 31.5468 9.8062C31.4752 9.87592 31.4035 9.94564 31.3298 10.0175C31.0833 10.2547 31.0833 10.2547 30.9072 10.5371C30.9522 10.0311 30.9522 10.0311 31.187 9.81762C31.2454 9.78371 31.3038 9.74979 31.364 9.71484Z" fill="#131313"/>
</svg>