<?xml version="1.0" encoding="utf-8"?>
<svg xmlns="http://www.w3.org/2000/svg" width="164" height="32" viewBox="0 0 164 32" fill="none">
<path d="M28.1459 7.46793C28.2217 7.46812 28.2217 7.46812 28.299 7.46831C30.9415 7.47937 33.2108 8.43437 35.0771 10.3039C36.4851 11.7596 37.1351 13.5953 37.4832 15.5477C37.5275 15.5335 37.5719 15.5194 37.6175 15.5049C37.6774 15.4863 37.7372 15.4678 37.7989 15.4487C37.8575 15.4303 37.9161 15.4119 37.9765 15.393C39.3921 15.023 40.82 15.3153 42.0677 16.0259C43.3077 16.7719 44.0342 17.9751 44.4029 19.3357C44.698 20.7254 44.3604 22.0633 43.6417 23.2615C43.4946 23.4839 43.337 23.6843 43.1574 23.8813C43.0947 23.9519 43.0947 23.9519 43.0308 24.0239C42.6801 24.3972 42.2859 24.6602 41.8426 24.9145C41.7894 24.9464 41.7363 24.9784 41.6815 25.0113C40.6886 25.5626 39.5729 25.5749 38.4678 25.5711C38.3203 25.5715 38.1727 25.5721 38.0252 25.5729C37.6282 25.5744 37.2313 25.5742 36.8343 25.5736C36.5022 25.5732 36.1701 25.5737 35.838 25.5742C35.055 25.5754 34.2721 25.5752 33.4891 25.574C32.6817 25.5728 31.8743 25.5739 31.0669 25.5762C30.3723 25.578 29.6776 25.5785 28.983 25.5779C28.5687 25.5776 28.1544 25.5777 27.74 25.5791C27.3513 25.5804 26.9626 25.58 26.5739 25.5783C26.4312 25.578 26.2885 25.5782 26.1458 25.5791C25.9513 25.5802 25.7568 25.5791 25.5623 25.5776C25.5057 25.5784 25.4491 25.5792 25.3907 25.5801C25.0925 25.5752 24.9908 25.5609 24.7522 25.3637C24.6831 25.2777 24.6831 25.2777 24.6126 25.1899C24.5897 25.1672 24.5669 25.1445 24.5434 25.1211C24.536 24.9058 24.5331 24.692 24.5332 24.4767C24.5329 24.4082 24.5327 24.3397 24.5324 24.2691C24.5317 24.0377 24.5314 23.8064 24.5311 23.575C24.5307 23.4098 24.5302 23.2447 24.5297 23.0796C24.5284 22.5827 24.5277 22.0857 24.5271 21.5888C24.5268 21.355 24.5264 21.1211 24.526 20.8873C24.5249 20.1103 24.5239 19.3333 24.5234 18.5563C24.5232 18.3546 24.5231 18.1528 24.523 17.9511C24.5229 17.9009 24.5229 17.8508 24.5228 17.7991C24.5223 16.9865 24.5205 16.1739 24.5183 15.3613C24.516 14.5276 24.5147 13.6939 24.5145 12.8602C24.5144 12.3919 24.5138 11.9235 24.512 11.4552C24.5103 11.0148 24.5101 10.5744 24.5108 10.1339C24.5108 9.972 24.5104 9.81008 24.5094 9.64816C24.5082 9.42761 24.5087 9.20714 24.5096 8.98659C24.5089 8.92205 24.5081 8.85752 24.5073 8.79102C24.5117 8.35841 24.5117 8.35841 24.6743 8.14046C24.8296 8.03397 24.9568 7.97785 25.1383 7.92799C25.1995 7.91085 25.2608 7.89372 25.3239 7.87606C25.3874 7.85928 25.451 7.8425 25.5165 7.82521C25.5781 7.8079 25.6398 7.79059 25.7034 7.77275C26.5228 7.54814 27.2971 7.46357 28.1459 7.46793Z" fill="#131313"/>
<path d="M84.9856 11.7192C87.2404 11.7192 87.2404 11.7192 87.8243 12.2755C87.9571 12.4686 87.9571 12.4686 88.0426 12.6423C88.0929 12.7402 88.0929 12.7402 88.1442 12.8402C88.1785 12.9072 88.2128 12.9742 88.2482 13.0433C88.3264 13.18 88.4055 13.3163 88.4854 13.452C88.6512 13.7346 88.813 14.0189 88.9728 14.3049C89.3338 14.941 89.7498 15.5395 90.1641 16.1413C90.3688 16.4389 90.5709 16.7383 90.7728 17.0378C90.8063 17.0871 90.8398 17.1363 90.8744 17.1871C91.2273 17.7097 91.5522 18.244 91.8866 18.7807C91.9091 16.4504 91.9317 14.1201 91.9549 11.7192C92.7215 11.7192 93.4881 11.7192 94.278 11.7192C94.278 15.5653 94.278 19.4114 94.278 23.3741C93.6016 23.3741 92.9251 23.3741 92.2282 23.3741C91.6009 22.5087 91.6009 22.5087 91.3541 22.1275C91.311 22.0615 91.311 22.0615 91.267 21.9941C91.173 21.8501 91.0793 21.7058 90.9855 21.5616C90.8469 21.3489 90.7081 21.1363 90.5694 20.9237C90.533 20.8679 90.4966 20.812 90.4591 20.7545C90.1717 20.3141 89.8827 19.8748 89.5931 19.4358C89.505 19.3021 89.4169 19.1684 89.3288 19.0347C89.2001 18.8395 89.0714 18.6443 88.9425 18.4493C88.8215 18.2663 88.7008 18.0831 88.5802 17.8999C88.5457 17.8479 88.5112 17.7959 88.4757 17.7423C88.0933 17.1605 87.74 16.5659 87.377 15.9698C87.3545 18.4132 87.3319 20.8566 87.3087 23.3741C86.5421 23.3741 85.7754 23.3741 84.9856 23.3741C84.9856 19.528 84.9856 15.6819 84.9856 11.7192Z" fill="#131313"/>
<path d="M97.4343 11.7192C102.754 11.7192 102.754 11.7192 103.692 12.0522C103.745 12.0707 103.798 12.0892 103.853 12.1082C105.051 12.5419 105.95 13.4194 106.494 14.5773C107.216 16.325 107.215 18.4282 106.544 20.1908C106.005 21.4411 104.953 22.4342 103.718 22.9656C101.68 23.7383 99.6264 23.4954 97.4343 23.4954C97.4343 19.6093 97.4343 15.7231 97.4343 11.7192ZM99.792 13.9623C99.792 16.3449 99.792 18.7275 99.792 21.1822C101.889 21.2435 101.889 21.2435 103.593 20.2622C104.306 19.487 104.558 18.4226 104.523 17.3812C104.443 16.3766 104.287 15.4532 103.534 14.7399C102.44 13.8192 101.176 13.9623 99.792 13.9623Z" fill="#131313"/>
<path d="M153.341 11.7192C159.984 11.7192 159.984 11.7192 161.483 13.1533C162.211 13.9356 162.758 14.9766 162.77 16.0713C162.771 16.1746 162.771 16.1746 162.773 16.28C162.773 16.3538 162.774 16.4275 162.774 16.5036C162.775 16.5805 162.775 16.6573 162.776 16.7366C162.777 16.8993 162.778 17.0621 162.778 17.2248C162.779 17.3902 162.78 17.5555 162.782 17.7208C162.785 17.9608 162.787 18.2008 162.787 18.4409C162.788 18.5136 162.79 18.5864 162.791 18.6614C162.787 19.8975 162.139 21.0209 161.304 21.8878C159.103 23.8919 156.148 23.5008 153.341 23.5008C153.341 19.6129 153.341 15.725 153.341 11.7192ZM155.695 13.9633C155.695 16.347 155.695 18.7306 155.695 21.1865C157.786 21.2462 157.786 21.2462 159.516 20.276C159.872 19.8766 160.117 19.3866 160.265 18.8723C160.279 18.824 160.294 18.7758 160.308 18.726C160.573 17.6414 160.479 16.2788 159.94 15.301C159.492 14.5796 158.872 14.2516 158.076 14.06C157.274 13.904 156.535 13.9633 155.695 13.9633Z" fill="#131313"/>
<path d="M68.4065 12.8116C69.6569 13.971 70.1106 15.7272 70.1785 17.378C70.2192 19.2228 69.7687 21.0446 68.4887 22.4152C67.3775 23.4638 66.0532 23.7081 64.5806 23.6894C63.2916 23.6492 62.2914 23.0562 61.4057 22.1521C60.24 20.8886 59.9265 19.0919 59.9443 17.4271C60.0201 15.6643 60.4866 13.9827 61.7866 12.7182C63.6464 11.1232 66.5866 11.2039 68.4065 12.8116ZM63.2649 14.7672C62.403 15.827 62.426 17.2737 62.5064 18.5632C62.6079 19.401 62.8997 20.2043 63.5235 20.7885C64.1414 21.2715 64.7742 21.3756 65.5406 21.3239C66.255 21.2028 66.7782 20.8012 67.1957 20.2196C67.908 19.1602 67.9037 17.5651 67.697 16.3562C67.5919 15.8577 67.4241 15.3899 67.1267 14.9743C67.0747 14.9011 67.0747 14.9011 67.0216 14.8265C66.681 14.3943 66.2632 14.1801 65.7475 14.008C64.746 13.9464 63.9889 14.0021 63.2649 14.7672Z" fill="#131313"/>
<path d="M136.618 12.5513C137.871 13.5743 138.459 15.0654 138.66 16.6321C138.81 18.4877 138.611 20.4905 137.405 21.9969C137.254 22.1678 137.098 22.3293 136.935 22.4888C136.899 22.5267 136.863 22.5645 136.826 22.6036C135.908 23.4858 134.59 23.6968 133.368 23.6902C132.072 23.6589 131.001 23.1974 130.088 22.2819C130.044 22.238 129.999 22.1941 129.953 22.1488C129.131 21.2811 128.694 20.0706 128.551 18.9026C128.543 18.8438 128.536 18.7851 128.528 18.7245C128.311 16.7812 128.637 14.7838 129.871 13.2097C131.532 11.2988 134.595 11.0133 136.618 12.5513ZM131.912 14.6598C131.195 15.5071 131.026 16.582 131.035 17.6526C131.036 17.7371 131.036 17.8216 131.037 17.9086C131.048 18.5322 131.11 19.0773 131.346 19.6612C131.371 19.7257 131.396 19.7901 131.422 19.8565C131.707 20.4925 132.156 20.8885 132.785 21.1846C133.383 21.409 134.077 21.3843 134.677 21.1811C135.269 20.9187 135.764 20.4169 136.03 19.8333C136.56 18.4527 136.599 16.7742 136.015 15.4001C135.935 15.2472 135.849 15.1108 135.747 14.9715C135.716 14.928 135.684 14.8844 135.651 14.8395C135.311 14.4116 134.881 14.1471 134.35 14.006C133.417 13.9046 132.613 13.9995 131.912 14.6598Z" fill="#131313"/>
<path d="M57.1331 12.593C57.4696 12.8561 57.7889 13.1388 58.1007 13.4311C57.7692 13.8347 57.4118 14.2045 57.0428 14.5732C56.9856 14.6306 56.9283 14.6881 56.8694 14.7473C56.7295 14.8877 56.5895 15.028 56.4493 15.1681C56.2343 15.0629 56.052 14.943 55.8601 14.799C54.9621 14.1618 54.0287 13.9402 52.9399 14.1259C52.6703 14.2136 52.4617 14.3331 52.2561 14.5341C52.1074 14.8343 52.0925 15.0282 52.1916 15.3505C52.416 15.7584 52.7002 15.8965 53.1334 16.0279C53.18 16.0421 53.2265 16.0563 53.2745 16.071C53.7139 16.2021 54.1591 16.3094 54.6043 16.4187C55.7989 16.7141 57.022 17.0831 57.7567 18.1556C58.243 19.1106 58.3548 20.2602 58.0577 21.2995C57.6927 22.2902 57.0991 22.9122 56.1697 23.3764C54.8975 23.9451 53.1576 23.9842 51.8389 23.5749C51.7731 23.5548 51.7073 23.5346 51.6394 23.5139C50.7134 23.2009 49.5892 22.5837 49.0864 21.699C49.1306 21.3785 49.3384 21.2256 49.5681 21.0216C49.6084 20.9852 49.6487 20.9488 49.6903 20.9112C49.7717 20.8377 49.8532 20.7644 49.935 20.6913C50.0375 20.5985 50.1375 20.5029 50.2371 20.4069C50.2903 20.3561 50.3434 20.3053 50.3981 20.253C50.4444 20.2081 50.4906 20.1633 50.5382 20.117C50.6691 20.0315 50.6691 20.0315 50.8067 20.0364C50.9788 20.1172 51.0816 20.2212 51.2153 20.3572C52.0615 21.1399 53.0905 21.2614 54.1852 21.2203C54.654 21.1931 55.0356 21.0732 55.4171 20.7958C55.6676 20.4532 55.6699 20.0942 55.6235 19.6842C55.555 19.4618 55.4814 19.3766 55.2862 19.2555C54.7962 18.9989 54.2986 18.8544 53.7656 18.7158C53.5879 18.6681 53.4104 18.6196 53.2329 18.5711C53.1473 18.5478 53.0617 18.5245 52.9735 18.5004C51.8012 18.1739 50.6125 17.8124 49.9318 16.7218C49.4818 15.8863 49.4587 14.8814 49.7068 13.9796C50.0161 13.0613 50.5786 12.43 51.4459 11.9984C53.2483 11.2666 55.5363 11.4523 57.1331 12.593Z" fill="#131313"/>
<path d="M79.621 11.563C80.3985 11.563 81.1761 11.563 81.9772 11.563C81.9819 12.5344 81.9857 13.5059 81.988 14.4773C81.989 14.9285 81.9905 15.3796 81.9929 15.8308C81.9952 16.267 81.9964 16.7031 81.9969 17.1393C81.9973 17.3049 81.998 17.4706 81.9992 17.6362C82.0103 19.3301 81.8601 21.0113 80.6431 22.3196C79.4556 23.4214 78.0592 23.5762 76.5134 23.5241C75.3785 23.4558 74.3465 22.8962 73.5917 22.0606C72.4686 20.6544 72.381 18.9746 72.3933 17.2518C72.3937 17.0909 72.394 16.93 72.3942 16.7691C72.395 16.3496 72.397 15.9301 72.3993 15.5106C72.4015 15.0809 72.4024 14.6512 72.4035 14.2215C72.4057 13.3814 72.4093 12.5413 72.4136 11.7011C73.2141 11.7011 74.0145 11.7011 74.8392 11.7011C74.8398 11.9203 74.8405 12.1394 74.8411 12.3652C74.8435 13.0919 74.8473 13.8185 74.8519 14.5451C74.8546 14.9854 74.8569 15.4256 74.8579 15.8659C74.859 16.2913 74.8614 16.7167 74.8647 17.1421C74.8657 17.3039 74.8663 17.4657 74.8663 17.6274C74.8672 18.843 74.9002 19.8789 75.7877 20.8045C76.4166 21.2184 77.059 21.3282 77.7983 21.1992C78.3551 21.0573 78.7623 20.7848 79.0839 20.3081C79.6174 19.3032 79.5935 18.2269 79.5939 17.1204C79.5949 16.9594 79.5961 16.7984 79.5974 16.6374C79.6004 16.2173 79.6018 15.7973 79.6028 15.3772C79.6042 14.947 79.6071 14.5169 79.6099 14.0868C79.615 13.2455 79.6184 12.4043 79.621 11.563Z" fill="#131313"/>
<path d="M147.963 11.563C148.74 11.563 149.517 11.563 150.318 11.563C150.324 12.5413 150.329 13.5196 150.332 14.4979C150.334 14.9523 150.336 15.4066 150.339 15.861C150.342 16.3004 150.343 16.7398 150.344 17.1792C150.345 17.346 150.346 17.5127 150.347 17.6794C150.362 19.3751 150.173 21.0594 148.95 22.3568C147.785 23.4429 146.386 23.5682 144.861 23.526C143.724 23.4645 142.692 22.8974 141.936 22.0632C141.547 21.5743 141.278 21.0684 141.074 20.4787C141.058 20.4319 141.042 20.385 141.025 20.3368C140.7 19.3067 140.739 18.225 140.745 17.1588C140.745 17.0007 140.745 16.8427 140.745 16.6846C140.746 16.2721 140.747 15.8595 140.749 15.4469C140.75 15.0246 140.751 14.6022 140.751 14.1798C140.753 13.3536 140.755 12.5274 140.758 11.7011C141.558 11.7011 142.358 11.7011 143.183 11.7011C143.184 11.9186 143.185 12.1361 143.186 12.3602C143.189 13.0809 143.194 13.8017 143.199 14.5224C143.202 14.9592 143.205 15.3959 143.207 15.8326C143.208 16.2546 143.211 16.6765 143.215 17.0984C143.216 17.2589 143.217 17.4194 143.217 17.5799C143.209 19.2376 143.209 19.2376 143.983 20.6687C144.409 21.0761 144.961 21.2473 145.542 21.2645C146.146 21.2396 146.655 21.0968 147.124 20.7054C147.772 19.9873 147.913 19.0656 147.915 18.1349C147.916 18.0634 147.917 17.9919 147.917 17.9182C147.92 17.6842 147.921 17.4502 147.922 17.2163C147.923 17.0531 147.925 16.8899 147.926 16.7267C147.93 16.299 147.932 15.8713 147.935 15.4436C147.938 15.0065 147.941 14.5693 147.945 14.1322C147.951 13.2758 147.957 12.4194 147.963 11.563Z" fill="#131313"/>
<path d="M117.172 12.542C117.707 12.9957 118.051 13.5229 118.384 14.135C118.119 14.4449 117.713 14.5781 117.349 14.7466C117.214 14.81 117.079 14.875 116.944 14.94C116.857 14.9804 116.771 15.0207 116.685 15.0608C116.606 15.0977 116.528 15.1346 116.447 15.1726C116.242 15.2358 116.242 15.2358 116.082 15.1844C115.956 15.0913 115.871 14.9985 115.775 14.8746C115.369 14.3855 114.924 14.1137 114.294 14.0146C113.644 13.9547 113.019 14.1206 112.507 14.5215C111.791 15.1703 111.458 16.1602 111.395 17.1043C111.348 18.2392 111.454 19.2894 112.096 20.2579C112.137 20.3217 112.179 20.3856 112.221 20.4514C112.746 20.9737 113.359 21.2217 114.095 21.2511C114.81 21.2274 115.299 20.9812 115.811 20.4914C116.022 20.2668 116.208 20.0316 116.38 19.7763C116.675 19.8647 116.921 19.9767 117.183 20.138C117.253 20.181 117.323 20.224 117.396 20.2683C117.468 20.3131 117.541 20.3579 117.615 20.4041C117.689 20.4494 117.763 20.4947 117.839 20.5414C118.021 20.6529 118.202 20.7648 118.384 20.877C118.077 21.85 117.201 22.703 116.317 23.1838C115.124 23.7481 113.589 23.8496 112.327 23.4445C110.941 22.9 110.019 22.0802 109.372 20.7346C108.615 18.9561 108.57 16.6531 109.293 14.8618C109.864 13.5326 110.745 12.5562 112.074 11.9507C113.735 11.3033 115.741 11.4444 117.172 12.542Z" fill="#131313"/>
<path d="M120.429 11.7192C121.255 11.7192 122.08 11.7192 122.931 11.7192C122.931 14.7735 122.931 17.8278 122.931 20.9746C124.444 20.9746 125.957 20.9746 127.517 20.9746C127.517 21.7664 127.517 22.5583 127.517 23.3741C125.178 23.3741 122.839 23.3741 120.429 23.3741C120.429 19.528 120.429 15.6819 120.429 11.7192Z" fill="#131313"/>
<path d="M23.4025 8.5708C23.6256 8.57516 23.7296 8.58427 23.9281 8.68756C24.2233 9.17641 24.1272 9.91019 24.1393 10.4587C24.1426 10.5897 24.1426 10.5897 24.1459 10.7233C24.1517 10.9615 24.1572 11.1996 24.1626 11.4378C24.1684 11.6901 24.1745 11.9425 24.1805 12.1948C24.1906 12.6203 24.2004 13.0458 24.2102 13.4712C24.22 13.903 24.2302 14.3348 24.2406 14.7666C24.3883 20.8949 24.3883 20.8949 24.2446 22.9249C24.2293 23.1428 24.2154 23.3608 24.2017 23.5789C24.1923 23.7205 24.1828 23.8622 24.1732 24.0039C24.1671 24.0994 24.1671 24.0994 24.1609 24.1969C24.1338 24.5688 24.087 24.9126 23.9647 25.268C23.6926 25.4396 23.5553 25.4385 23.2334 25.4064C22.9987 25.2428 22.9233 25.117 22.8678 24.8529C22.856 24.7546 22.8466 24.6561 22.8394 24.5574C22.835 24.4992 22.8306 24.4409 22.8261 24.3809C22.8217 24.3175 22.8172 24.2541 22.8127 24.1888C22.8079 24.121 22.8031 24.0531 22.7982 23.9833C22.7882 23.8378 22.7783 23.6923 22.7686 23.5468C22.7542 23.3364 22.7386 23.126 22.7228 22.9156C22.518 19.9993 22.6689 17.0592 22.7379 14.1398C22.748 13.709 22.7573 13.2782 22.7665 12.8474C22.7755 12.4261 22.7851 12.0049 22.795 11.5836C22.8009 11.3345 22.8066 11.0853 22.8117 10.8362C22.8174 10.5612 22.8242 10.2862 22.8311 10.0112C22.8326 9.93029 22.8341 9.84936 22.8357 9.76598C22.8679 8.58653 22.8679 8.58653 23.4025 8.5708Z" fill="#131313"/>
<path d="M21.9091 9.53227C22.0677 9.63576 22.0677 9.63576 22.1763 9.80824C22.2501 10.2604 22.259 10.7122 22.2691 11.1699C22.272 11.2893 22.272 11.2893 22.275 11.4112C22.2814 11.6744 22.2875 11.9375 22.2935 12.2006C22.2967 12.3389 22.3 12.4772 22.3033 12.6155C22.3137 13.0518 22.3238 13.4881 22.3338 13.9244C22.3428 14.319 22.352 14.7137 22.3615 15.1084C22.4997 20.8329 22.4997 20.8329 22.3652 22.9634C22.3512 23.1873 22.3386 23.4112 22.3261 23.6351C22.3175 23.78 22.3088 23.9248 22.3 24.0697C22.2944 24.1683 22.2944 24.1683 22.2888 24.2689C22.2641 24.6471 22.2314 24.995 22.0302 25.3231C21.83 25.4515 21.6703 25.4298 21.4414 25.4008C21.2271 25.2376 21.1579 25.1122 21.1074 24.8488C21.0965 24.7465 21.0881 24.644 21.0814 24.5413C21.0774 24.4805 21.0734 24.4197 21.0693 24.3571C21.0653 24.291 21.0612 24.225 21.0571 24.157C21.0527 24.0869 21.0484 24.0167 21.0439 23.9445C21.0347 23.7945 21.0257 23.6444 21.0168 23.4944C21.0036 23.2749 20.9893 23.0556 20.975 22.8363C20.8103 20.1803 20.9268 17.511 20.9887 14.8527C20.9979 14.4545 21.0065 14.0564 21.0149 13.6582C21.0231 13.269 21.0319 12.8797 21.0409 12.4905C21.0463 12.2602 21.0514 12.03 21.0562 11.7997C21.0615 11.5451 21.0676 11.2906 21.0739 11.036C21.0753 10.9614 21.0766 10.8867 21.0781 10.8098C21.0888 10.4102 21.1155 10.0502 21.241 9.67025C21.4896 9.49912 21.615 9.5003 21.9091 9.53227Z" fill="#131313"/>
<path d="M18.4373 10.9551C18.5967 11.0542 18.5967 11.0542 18.7058 11.2307C18.7897 11.6687 18.7876 12.1262 18.799 12.5711C18.802 12.6751 18.802 12.6751 18.805 12.7812C18.8114 13.0094 18.8175 13.2376 18.8235 13.4659C18.8279 13.6268 18.8323 13.7878 18.8368 13.9487C18.846 14.2866 18.8551 14.6244 18.864 14.9623C18.8731 15.3048 18.8824 15.6472 18.8919 15.9897C19.027 20.8329 19.027 20.8329 18.8956 22.9867C18.8816 23.2175 18.8689 23.4483 18.8563 23.6792C18.8476 23.8283 18.8389 23.9774 18.8301 24.1265C18.8245 24.2283 18.8245 24.2283 18.8188 24.3322C18.7681 25.1349 18.7681 25.1349 18.559 25.485C18.3567 25.6067 18.1957 25.587 17.9676 25.5582C17.7522 25.3954 17.6825 25.2702 17.632 25.0072C17.621 24.9029 17.6125 24.7984 17.6059 24.6938C17.6019 24.6318 17.5978 24.5697 17.5937 24.5057C17.5896 24.4383 17.5856 24.3708 17.5814 24.3014C17.5748 24.1941 17.5748 24.1941 17.5681 24.0846C17.5589 23.9316 17.5498 23.7785 17.5409 23.6255C17.5276 23.4014 17.5133 23.1774 17.4989 22.9535C17.3494 20.5031 17.4423 18.0456 17.5093 15.5937C17.5209 15.1666 17.5317 14.7395 17.5422 14.3123C17.5505 13.9801 17.5594 13.6479 17.5685 13.3157C17.5727 13.158 17.5767 13.0002 17.5805 12.8424C17.5858 12.6242 17.592 12.406 17.5983 12.1878C17.5997 12.1234 17.6011 12.0591 17.6025 11.9929C17.614 11.6285 17.647 11.3485 17.8459 11.0369C18.0458 10.9025 18.2057 10.9259 18.4373 10.9551Z" fill="#131313"/>
<path d="M20.4492 11.2094C20.7434 11.6387 20.662 12.302 20.6765 12.8014C20.6797 12.9036 20.6797 12.9036 20.683 13.0077C20.6901 13.2312 20.6968 13.4548 20.7034 13.6783C20.7083 13.836 20.7131 13.9936 20.718 14.1513C20.7282 14.482 20.7381 14.8126 20.748 15.1432C20.758 15.4787 20.7682 15.8141 20.7787 16.1495C20.9231 20.7662 20.9231 20.7662 20.7787 22.7989C20.7628 23.0229 20.7478 23.2469 20.733 23.471C20.7232 23.6157 20.7133 23.7603 20.7034 23.905C20.6989 23.9709 20.6945 24.0368 20.6899 24.1047C20.6256 25.0034 20.6256 25.0034 20.4954 25.2836C20.3065 25.4266 20.1426 25.4304 19.9045 25.4193C19.6861 25.3775 19.5929 25.2815 19.4659 25.1147C19.4011 24.9321 19.3771 24.8021 19.3633 24.6132C19.3589 24.5537 19.3545 24.4942 19.3499 24.433C19.3454 24.368 19.341 24.303 19.3364 24.2361C19.3316 24.1673 19.3267 24.0984 19.3218 24.0275C19.3116 23.8799 19.3016 23.7323 19.2918 23.5847C19.2773 23.3695 19.2615 23.1543 19.2456 22.9391C19.0765 20.5148 19.1805 18.0806 19.257 15.6547C19.2698 15.2477 19.2817 14.8407 19.2932 14.4336C19.3024 14.1163 19.3122 13.799 19.3222 13.4816C19.3268 13.3313 19.3312 13.1811 19.3354 13.0307C19.3413 12.8226 19.348 12.6146 19.3549 12.4065C19.3565 12.3456 19.358 12.2847 19.3596 12.222C19.3722 11.8763 19.4143 11.5791 19.5398 11.2527C19.8097 11.0446 20.1543 11.0448 20.4492 11.2094Z" fill="#131313"/>
<path d="M16.5688 10.7903C16.8008 10.9902 16.8741 11.1542 16.8978 11.4448C16.9024 11.5714 16.9055 11.698 16.9074 11.8246C16.9096 11.894 16.9117 11.9634 16.9139 12.0349C16.9206 12.2655 16.9254 12.496 16.9301 12.7266C16.9344 12.8892 16.9388 13.0518 16.9434 13.2145C16.9526 13.5573 16.9609 13.9001 16.9686 14.2429C16.9781 14.6734 16.9892 15.1039 17.0008 15.5343C17.1447 20.8744 17.1447 20.8744 16.99 23.2312C16.9754 23.4568 16.9629 23.6824 16.9504 23.9081C16.9414 24.0542 16.9324 24.2003 16.9232 24.3464C16.9178 24.4457 16.9178 24.4457 16.9123 24.547C16.8707 25.1402 16.8707 25.1402 16.6404 25.3937C16.3898 25.4324 16.3898 25.4324 16.1393 25.3937C15.9537 25.207 15.8965 25.0664 15.8804 24.8114C15.8761 24.7506 15.8718 24.6898 15.8674 24.6273C15.862 24.5281 15.862 24.5281 15.8565 24.4269C15.8498 24.321 15.8498 24.321 15.843 24.213C15.8337 24.0617 15.8249 23.9104 15.8165 23.7591C15.8042 23.5395 15.7901 23.3201 15.7756 23.1007C15.6137 20.4808 15.7172 17.8479 15.7936 15.2268C15.8061 14.7982 15.8175 14.3695 15.8287 13.9408C15.8376 13.6068 15.8471 13.2729 15.8567 12.939C15.8612 12.7806 15.8655 12.6222 15.8696 12.4638C15.8752 12.2453 15.8818 12.0268 15.8885 11.8083C15.89 11.7437 15.8915 11.6791 15.893 11.6126C15.895 11.5533 15.897 11.4941 15.8991 11.433C15.9006 11.3817 15.902 11.3304 15.9035 11.2776C15.9277 11.1129 15.9772 11.0006 16.0677 10.8592C16.2553 10.7689 16.3606 10.7617 16.5688 10.7903Z" fill="#131313"/>
<path d="M13.2707 11.7375C13.569 12.0445 13.4941 12.6896 13.5118 13.1034C13.5151 13.1764 13.5184 13.2495 13.5218 13.3247C13.5326 13.5653 13.5431 13.806 13.5535 14.0467C13.561 14.2149 13.5684 14.3832 13.5759 14.5514C13.5916 14.904 13.607 15.2566 13.6224 15.6093C13.6419 16.059 13.6619 16.5088 13.682 16.9585C13.6975 17.3061 13.7128 17.6538 13.728 18.0014C13.7353 18.1671 13.7427 18.3328 13.7501 18.4984C13.8017 19.6576 13.8379 20.7941 13.7414 21.9521C13.7343 22.0409 13.7271 22.1296 13.7197 22.221C13.7047 22.4067 13.6893 22.5923 13.6738 22.7779C13.6539 23.015 13.6349 23.2522 13.6162 23.4895C13.598 23.7178 13.579 23.946 13.5601 24.1742C13.5534 24.259 13.5467 24.3438 13.5399 24.4311C13.5331 24.51 13.5264 24.5888 13.5194 24.6701C13.5137 24.7392 13.508 24.8083 13.5022 24.8794C13.4599 25.1573 13.3978 25.3561 13.2033 25.5563C12.848 25.5952 12.848 25.5952 12.687 25.4687C12.5776 25.3234 12.5658 25.2429 12.5545 25.0607C12.5505 25.0022 12.5464 24.9438 12.5423 24.8836C12.5372 24.7878 12.5372 24.7878 12.532 24.6901C12.5278 24.623 12.5236 24.5559 12.5192 24.4867C12.5057 24.2631 12.4938 24.0396 12.4822 23.8159C12.478 23.7377 12.4738 23.6594 12.4694 23.5788C12.321 20.7819 12.3955 17.9929 12.4759 15.195C12.4822 14.971 12.4883 14.7471 12.4942 14.5232C12.5038 14.1679 12.5144 13.8127 12.5258 13.4574C12.5299 13.3244 12.5337 13.1913 12.5372 13.0582C12.5421 12.8745 12.5481 12.6909 12.5545 12.5072C12.5563 12.4259 12.5563 12.4259 12.558 12.343C12.5724 11.9825 12.5724 11.9825 12.6849 11.8079C12.8767 11.689 13.0538 11.7172 13.2707 11.7375Z" fill="#131313"/>
<path d="M14.7524 10.9326C14.9714 10.9587 14.9714 10.9587 15.0989 11.0977C15.1906 11.4318 15.1791 11.7879 15.1874 12.1339C15.1902 12.2377 15.1902 12.2377 15.193 12.3437C15.1992 12.5735 15.2049 12.8032 15.2106 13.033C15.2148 13.1948 15.219 13.3566 15.2232 13.5183C15.232 13.8591 15.2406 14.1999 15.2491 14.5407C15.2576 14.8852 15.2665 15.2298 15.2756 15.5744C15.4144 20.8248 15.4144 20.8248 15.2791 23.1366C15.2657 23.3672 15.2537 23.5979 15.2417 23.8287C15.2335 23.9777 15.2252 24.1267 15.2168 24.2756C15.2133 24.3435 15.2098 24.4114 15.2062 24.4814C15.1622 25.2059 15.1622 25.2059 14.9714 25.4139C14.5557 25.4304 14.5557 25.4304 14.398 25.3444C14.3424 25.1624 14.3214 25.0333 14.3095 24.8451C14.3057 24.7861 14.3019 24.7271 14.2979 24.6663C14.2941 24.6016 14.2902 24.5369 14.2863 24.4703C14.2821 24.4012 14.278 24.3321 14.2737 24.2609C14.2649 24.1123 14.2563 23.9637 14.2478 23.815C14.2354 23.601 14.2217 23.3871 14.208 23.1732C14.0472 20.4913 14.1427 17.7892 14.2143 15.1054C14.2251 14.7003 14.2346 14.2953 14.2438 13.8902C14.2512 13.5738 14.2595 13.2574 14.268 12.941C14.2718 12.7913 14.2754 12.6416 14.2787 12.4919C14.2833 12.2857 14.289 12.0796 14.295 11.8735C14.2961 11.8127 14.2972 11.7519 14.2984 11.6892C14.3065 11.4463 14.3149 11.2776 14.4181 11.0595C14.5254 10.9587 14.5254 10.9587 14.7524 10.9326Z" fill="#131313"/>
<path d="M11.5286 13.4631C11.7935 13.7312 11.7533 14.1029 11.7724 14.4643C11.7758 14.5234 11.7791 14.5825 11.7826 14.6434C11.7935 14.8391 11.8041 15.0348 11.8147 15.2305C11.8222 15.3671 11.8298 15.5038 11.8373 15.6405C11.8532 15.9275 11.8688 16.2144 11.8843 16.5014C11.9041 16.8668 11.9243 17.2322 11.9447 17.5976C11.9604 17.8803 11.9759 18.1629 11.9912 18.4456C11.9986 18.5802 12.006 18.7147 12.0135 18.8493C12.0728 19.9146 12.0968 20.958 12.0024 22.0226C11.995 22.1095 11.9876 22.1964 11.9799 22.286C11.9604 22.5137 11.9405 22.7414 11.9204 22.969C11.9041 23.1554 11.8883 23.3418 11.8725 23.5282C11.8534 23.7517 11.8341 23.9751 11.8147 24.1985C11.8076 24.2817 11.8005 24.3649 11.7931 24.4506C11.7863 24.5277 11.7795 24.6047 11.7724 24.6841C11.7665 24.7518 11.7606 24.8194 11.7545 24.8891C11.7357 25.048 11.7165 25.1929 11.6651 25.3442C11.4766 25.4396 11.3274 25.4265 11.1191 25.4133C10.9503 25.2425 10.9575 25.1716 10.9357 24.9351C10.9289 24.8639 10.9221 24.7927 10.9151 24.7193C10.9083 24.6415 10.9015 24.5637 10.8946 24.4835C10.8835 24.3619 10.8835 24.3619 10.8722 24.2378C10.8566 24.0646 10.8414 23.8915 10.8265 23.7183C10.804 23.4605 10.7801 23.2028 10.7559 22.9452C10.5786 20.9828 10.6483 19.049 10.7639 17.0867C10.7769 16.8639 10.7894 16.641 10.8019 16.4182C10.8171 16.1477 10.8325 15.8773 10.8479 15.6069C10.8508 15.5571 10.8536 15.5074 10.8565 15.4561C10.8699 15.2236 10.8838 14.9912 10.8984 14.7587C10.9091 14.5845 10.9184 14.4101 10.9264 14.2357C10.9308 14.1545 10.9352 14.0733 10.9398 13.9896C10.9431 13.9179 10.9465 13.8461 10.95 13.7722C10.9607 13.7158 10.9715 13.6594 10.9826 13.6012C11.2026 13.4528 11.2738 13.4366 11.5286 13.4631Z" fill="#131313"/>
<path d="M9.64343 16.1309C9.83808 16.1482 9.83808 16.1482 9.96785 16.2865C10.0039 16.4738 10.0039 16.4738 10.032 16.7193C10.0372 16.7647 10.0424 16.81 10.0478 16.8567C10.1145 17.4494 10.1697 18.0436 10.2219 18.638C10.2336 18.7705 10.2458 18.903 10.2583 19.0354C10.3383 19.8833 10.3738 20.6943 10.2923 21.5433C10.286 21.6103 10.2797 21.6772 10.2732 21.7462C10.2283 22.2158 10.1792 22.6847 10.1282 23.1535C10.1014 23.4005 10.0755 23.6476 10.0496 23.8946C10.0326 24.0523 10.0156 24.21 9.99852 24.3676C9.98706 24.4779 9.98706 24.4779 9.97536 24.5905C9.96779 24.6587 9.96021 24.7269 9.95241 24.7972C9.94598 24.8569 9.93954 24.9166 9.93292 24.9782C9.90211 25.1447 9.85105 25.2695 9.7732 25.4168C9.6191 25.4254 9.6191 25.4254 9.44878 25.4168C9.29728 25.2553 9.30019 25.2165 9.28744 24.997C9.28376 24.9387 9.28008 24.8803 9.2763 24.8202C9.27291 24.7565 9.26953 24.6929 9.26604 24.6273C9.26206 24.5608 9.25807 24.4943 9.25397 24.4258C9.24129 24.2114 9.22947 23.997 9.21763 23.7827C9.20944 23.644 9.20121 23.5054 9.19292 23.3668C9.17215 23.0143 9.15328 22.6617 9.13534 22.309C9.12809 22.1688 9.12051 22.0287 9.11258 21.8887C9.05202 20.8125 9.07758 19.7607 9.14869 18.6858C9.15789 18.5365 9.16701 18.3872 9.17606 18.2379C9.20053 17.8409 9.22602 17.4441 9.25413 17.0473C9.2606 16.9427 9.2606 16.9427 9.2672 16.8359C9.27197 16.7674 9.27674 16.6989 9.28166 16.6282C9.28571 16.5661 9.28977 16.5039 9.29395 16.4398C9.33496 16.189 9.41105 16.1515 9.64343 16.1309Z" fill="#131313"/>
<path d="M7.96363 15.8149C8.16805 15.9135 8.18154 16.0244 8.25234 16.2258C8.27436 16.3602 8.29069 16.4955 8.30264 16.631C8.30996 16.711 8.31729 16.791 8.32484 16.8735C8.33211 16.9594 8.33937 17.0454 8.34685 17.1339C8.35478 17.223 8.36271 17.3121 8.37088 17.4039C8.38762 17.5924 8.40397 17.7809 8.42003 17.9694C8.44047 18.2093 8.46167 18.4491 8.48314 18.6888C8.50373 18.9195 8.5238 19.1502 8.5439 19.3808C8.55146 19.4661 8.55902 19.5514 8.56681 19.6392C8.63243 20.4143 8.61636 21.1536 8.5439 21.9279C8.53611 22.0127 8.52832 22.0976 8.5203 22.185C8.50382 22.3633 8.48717 22.5415 8.47036 22.7197C8.45327 22.902 8.43641 23.0843 8.42003 23.2666C8.39621 23.5309 8.37163 23.7951 8.34685 24.0592C8.33959 24.1407 8.33233 24.2222 8.32484 24.3061C8.31385 24.42 8.31385 24.42 8.30264 24.5361C8.29645 24.6026 8.29026 24.6692 8.28389 24.7377C8.2511 24.9296 8.19019 25.0878 8.10569 25.2648C7.96052 25.2648 7.81534 25.2648 7.66577 25.2648C7.43461 24.4895 7.38289 23.6842 7.30375 22.8852C7.29487 22.7958 7.28599 22.7063 7.27684 22.6142C7.07889 20.5534 7.24824 18.5508 7.51913 16.4997C7.52545 16.4499 7.53178 16.4 7.53829 16.3486C7.58081 16.0369 7.58081 16.0369 7.68868 15.8834C7.81241 15.8149 7.81241 15.8149 7.96363 15.8149Z" fill="#131313"/>
<path d="M6.26042 15.8149C6.38319 15.8535 6.38319 15.8535 6.51481 15.9549C6.55328 16.1302 6.57338 16.2805 6.58562 16.4586C6.59017 16.5109 6.59472 16.5632 6.59941 16.6171C6.60929 16.7319 6.61864 16.8468 6.62754 16.9617C6.64233 17.149 6.6591 17.336 6.67639 17.523C6.70738 17.861 6.73606 18.1991 6.76379 18.5374C6.77533 18.6763 6.78723 18.8153 6.7995 18.9542C6.88114 19.8803 6.90415 20.7679 6.8328 21.6949C6.82361 21.8233 6.81445 21.9518 6.8053 22.0803C6.78079 22.4164 6.75406 22.7522 6.7263 23.088C6.70934 23.2947 6.69312 23.5013 6.67691 23.708C6.66607 23.841 6.65518 23.9739 6.64424 24.1068C6.63954 24.1679 6.63483 24.2289 6.62998 24.2918C6.60292 24.6098 6.56711 24.8981 6.45122 25.1948C6.40924 25.2179 6.36727 25.241 6.32402 25.2648C6.13323 25.1248 6.13323 25.1248 6.09166 24.9361C6.08333 24.8543 6.07499 24.7724 6.0664 24.6882C6.06156 24.6423 6.05672 24.5965 6.05174 24.5492C6.03547 24.3912 6.02068 24.2331 6.00603 24.0748C5.99763 23.9878 5.99763 23.9878 5.98905 23.899C5.95141 23.5085 5.91689 23.1178 5.88426 22.7267C5.87274 22.5907 5.86084 22.4546 5.84854 22.3186C5.76327 21.3749 5.74728 20.4699 5.81524 19.5249C5.82443 19.3875 5.83359 19.2502 5.84274 19.1128C5.86728 18.7527 5.894 18.3928 5.92174 18.0329C5.93872 17.8109 5.95493 17.5889 5.97113 17.3668C5.98197 17.2244 5.99286 17.082 6.0038 16.9396C6.0085 16.8738 6.01321 16.808 6.01806 16.7403C6.07548 16.0185 6.07548 16.0185 6.26042 15.8149Z" fill="#131313"/>
<path d="M4.51655 16.7598C4.58498 16.783 4.65341 16.8062 4.72391 16.8301C5.38218 20.5428 5.38218 20.5428 5.17383 21.6832C5.12664 21.9638 5.09027 22.2454 5.05358 22.5275C4.9938 22.984 4.93361 23.4404 4.87052 23.8964C4.86375 23.9464 4.85698 23.9965 4.85001 24.048C4.82152 24.2524 4.78826 24.4383 4.72391 24.6347C4.63267 24.6347 4.54143 24.6347 4.44743 24.6347C4.32237 23.9569 4.24874 23.276 4.18064 22.5905C4.16227 22.4062 4.14328 22.2221 4.12425 22.0379C4.11224 21.9189 4.10027 21.7998 4.08834 21.6808C4.08272 21.6267 4.07711 21.5726 4.07132 21.5169C4.00835 20.8719 4.03921 20.252 4.10346 19.6079C4.1108 19.5329 4.11814 19.4578 4.12571 19.3804C4.14123 19.2229 4.15693 19.0654 4.17278 18.9078C4.19694 18.6663 4.22015 18.4247 4.24331 18.183C4.25856 18.0296 4.27385 17.8761 4.28921 17.7227C4.29606 17.6504 4.30291 17.5781 4.30996 17.5037C4.31687 17.4367 4.32378 17.3698 4.33089 17.3009C4.33673 17.242 4.34256 17.1832 4.34857 17.1226C4.37831 16.9707 4.37831 16.9707 4.51655 16.7598Z" fill="#131313"/>
<path d="M2.94196 18.1768C3.03812 18.1768 3.13428 18.1768 3.23336 18.1768C3.65686 19.9432 3.69157 21.3834 3.23336 23.1457C3.09221 23.1856 3.09221 23.1856 2.94196 23.2167C2.52764 22.813 2.63549 21.2396 2.62324 20.6568C2.67009 18.4417 2.67009 18.4417 2.94196 18.1768Z" fill="#131313"/>
</svg>