<?xml version="1.0" encoding="utf-8"?>
<svg xmlns="http://www.w3.org/2000/svg" width="56" height="32" viewBox="0 0 56 32" fill="none">
<g clip-path="url(#clip0_3042_16121)">
<path d="M1.94739 2C19.6553 2 37.3632 2 55.6078 2C55.6078 10.91 55.6078 19.82 55.6078 29C37.8999 29 20.1919 29 1.94739 29C1.94739 20.09 1.94739 11.18 1.94739 2ZM3.6455 3.86792C3.6455 11.6011 3.6455 19.3343 3.6455 27.3019C20.0646 27.3019 36.4836 27.3019 53.4002 27.3019C53.4002 19.5687 53.4002 11.8355 53.4002 3.86792C36.9812 3.86792 20.5621 3.86792 3.6455 3.86792Z" fill="black"/>
<path d="M37.608 5.90527C39.9854 5.90527 39.9854 5.90527 40.4853 6.28515C40.5797 6.46165 40.6741 6.63815 40.7714 6.82C40.8261 6.9158 40.8808 7.0116 40.9372 7.1103C41.1132 7.42284 41.2759 7.74053 41.4394 8.05975C41.5608 8.27981 41.6832 8.49934 41.8065 8.71835C42.0531 9.15821 42.2955 9.59991 42.5346 10.0438C42.984 10.8724 43.4826 11.6681 43.9866 12.4642C44.162 12.7462 44.3371 13.0283 44.5119 13.3106C44.6017 13.4552 44.6914 13.5998 44.7839 13.7488C45.3079 14.594 45.8301 15.4403 46.3518 16.287C46.5289 16.5742 46.7061 16.8613 46.8834 17.1484C46.9924 17.3253 47.1014 17.5023 47.2137 17.6846C47.3099 17.8406 47.4061 17.9967 47.5052 18.1575C47.8379 18.7095 48.1562 19.2702 48.476 19.8298C48.532 15.2347 48.588 10.6396 48.6458 5.90527C49.4863 5.90527 50.3269 5.90527 51.193 5.90527C51.193 12.3496 51.193 18.7939 51.193 25.4336C50.4084 25.4336 49.6239 25.4336 48.8156 25.4336C48.2698 24.8366 48.0205 24.4726 47.6906 23.7673C47.5078 23.4201 47.3245 23.0732 47.1407 22.7265C47.0517 22.552 46.9627 22.3776 46.871 22.1978C46.4939 21.4807 46.0626 20.8055 45.621 20.127C44.685 18.6622 43.7734 17.1828 42.865 15.7008C41.9699 14.2415 41.0626 12.7911 40.1552 11.3392C40.0992 15.9343 40.0431 20.5294 39.9854 25.2638C39.2009 25.2638 38.4163 25.2638 37.608 25.2638C37.608 18.8754 37.608 12.4871 37.608 5.90527Z" fill="black"/>
<path d="M16.0748 6.45755C17.1938 7.20639 18.1155 8.36034 18.4933 9.6627C18.5248 9.8238 18.5563 9.985 18.5888 10.1509C18.321 10.27 18.0518 10.3862 17.7822 10.5012C17.6325 10.5662 17.4827 10.6312 17.3285 10.6982C16.8541 10.8412 16.6556 10.8763 16.2114 10.6604C16.0012 10.3453 16.0012 10.3453 15.8187 9.9493C15.3287 8.99802 14.6954 8.28712 13.6643 7.9434C11.4483 7.7981 11.4483 7.7981 9.53571 8.78184C8.89081 9.5701 8.83386 10.223 8.8578 11.2229C8.93319 11.8879 9.12836 12.2147 9.58878 12.6981C10.6374 13.5124 11.8117 13.8655 13.0699 14.237C17.1141 15.4455 17.1141 15.4455 18.2279 17.3892C18.94 18.7331 18.9876 20.2834 18.6166 21.7499C18.0089 23.3529 17.1187 24.3608 15.564 25.0837C14.4534 25.5458 13.574 25.6451 12.3801 25.6568C12.2184 25.6618 12.0568 25.6667 11.8902 25.6718C10.2089 25.6866 8.86503 25.1627 7.56895 24.096C6.6209 23.141 5.51331 21.565 5.51331 20.1698C6.2418 20.0017 6.97029 19.8336 7.72086 19.6604C7.79287 19.8079 7.86489 19.9555 7.93909 20.1075C8.64611 21.4966 9.27668 22.5563 10.7456 23.2052C12.2302 23.682 13.6522 23.4193 15.0228 22.717C15.4658 22.3233 15.4658 22.3233 15.702 21.8679C15.7916 21.7175 15.7916 21.7175 15.8831 21.5641C16.2047 20.8026 16.1294 19.9596 16.0416 19.1509C15.6293 18.2958 15.0354 17.6691 14.146 17.3007C13.7047 17.1483 13.2612 17.0071 12.8152 16.8691C12.4941 16.7653 12.173 16.6611 11.8521 16.5567C11.6967 16.5066 11.5414 16.4565 11.3814 16.4049C9.41214 15.7666 7.69037 15.1704 6.60647 13.2925C5.99025 11.9116 5.91472 10.5113 6.37563 9.0684C7.10374 7.46816 8.13509 6.52534 9.74532 5.85923C11.8007 5.14064 14.2066 5.39381 16.0748 6.45755Z" fill="black"/>
<path d="M33.0226 5.90527C33.8632 5.90527 34.7037 5.90527 35.5698 5.90527C35.5698 12.3496 35.5698 18.7939 35.5698 25.4336C34.7292 25.4336 33.8886 25.4336 33.0226 25.4336C33.0226 18.9892 33.0226 12.5449 33.0226 5.90527Z" fill="black"/>
<path fill-rule="evenodd" clip-rule="evenodd" d="M29.2454 6.62809C27.9964 5.90527 26.3291 5.90527 19.9474 5.90527V25.4336H22.4946V17.6222L24.5748 17.6329L25.2276 17.6375L25.7449 17.6388C26.2188 17.6412 26.6506 17.6408 27.1146 17.5444L27.4191 17.4524C28.3194 17.1836 29.1939 16.9119 29.9344 16.3168C31.3141 14.9967 32.0023 13.4179 32.0783 11.5196C32.0358 10.0823 31.6101 8.75006 30.6037 7.69824C30.0766 7.22979 29.6872 6.88374 29.2454 6.62809ZM24.3412 8.08069L22.4945 8.11252V15.4144L24.4685 15.4356C24.5731 15.4372 24.6767 15.4393 24.7795 15.4413C25.9218 15.4641 26.9563 15.4846 27.9676 14.8293C28.7609 14.1484 29.2706 13.5734 29.4568 12.5276C29.5989 11.1202 29.4551 10.148 28.5971 9.00401C27.5112 8.17227 26.2471 8.05563 24.9122 8.06663L24.3412 8.08069Z" fill="black"/>
</g>
<defs>
<clipPath id="clip0_3042_16121">
<rect width="55" height="32" fill="white" transform="translate(0.947388)"/>
</clipPath>
</defs>
</svg>