<svg xmlns="http://www.w3.org/2000/svg" width="710" height="112" viewBox="0 0 710 112" fill="none"><path d="M51.8034 4.94434L63.3149 40.3732H100.567L70.4294 62.2694L81.9409 97.6982L51.8034 75.802L21.6658 97.6982L33.1773 62.2694L3.03976 40.3732H40.2918L51.8034 4.94434Z" fill="#F0AD4E"></path><path d="M171.441 4.94434L182.953 40.3732H220.205L190.067 62.2694L201.579 97.6982L171.441 75.802L141.303 97.6982L152.815 62.2694L122.677 40.3732H159.93L171.441 4.94434Z" fill="#F0AD4E"></path><path d="M291.079 4.94434L302.59 40.3732H339.842L309.705 62.2694L321.216 97.6982L291.079 75.802L260.941 97.6982L272.453 62.2694L242.315 40.3732H279.567L291.079 4.94434Z" fill="#F0AD4E"></path><path d="M410.717 4.94434L422.229 40.3732H459.481L429.343 62.2694L440.855 97.6982L410.717 75.802L380.58 97.6982L392.091 62.2694L361.954 40.3732H399.206L410.717 4.94434Z" fill="#F0AD4E"></path><path d="M530.349 4.94434L541.861 40.3732H579.113L548.975 62.2694L560.487 97.6982L530.349 75.802L500.212 97.6982L511.723 62.2694L481.586 40.3732H518.838L530.349 4.94434Z" fill="#F0AD4E"></path><mask id="mask0_177_1174" style="mask-type:alpha" maskUnits="userSpaceOnUse" x="481" y="4" width="99" height="94"><path d="M530.354 4.94434L541.866 40.3732H579.118L548.98 62.2694L560.492 97.6982L530.354 75.802L500.217 97.6982L511.728 62.2694L481.591 40.3732H518.843L530.354 4.94434Z" fill="#F0AD4E"></path></mask><g mask="url(#mask0_177_1174)"><rect x="530.193" y="3.44043" width="51.9866" height="104.28" fill="#D9D9D9"></rect></g><g clip-path="url(#clip0_177_1174)"><path d="M583.739 69.4466V65.2294L602.344 35.7922H605.403V42.3246H603.336L589.279 64.5679V64.8987H614.334V69.4466H583.739ZM603.667 78.1289V68.1649V66.201V35.7922H608.546V78.1289H603.667ZM623.729 78.4597C622.709 78.4597 621.834 78.0945 621.104 77.364C620.374 76.6336 620.008 75.7585 620.008 74.7387C620.008 73.7188 620.374 72.8437 621.104 72.1133C621.834 71.3829 622.709 71.0177 623.729 71.0177C624.749 71.0177 625.624 71.3829 626.355 72.1133C627.085 72.8437 627.45 73.7188 627.45 74.7387C627.45 75.414 627.278 76.0341 626.933 76.5992C626.603 77.1642 626.155 77.619 625.59 77.9635C625.039 78.2943 624.418 78.4597 623.729 78.4597ZM648.5 78.7077C646.074 78.7077 643.89 78.2254 641.947 77.2607C640.004 76.296 638.446 74.9729 637.275 73.2916C636.103 71.6103 635.463 69.6946 635.352 67.5447H640.314C640.507 69.4604 641.375 71.0452 642.918 72.2993C644.476 73.5397 646.336 74.1598 648.5 74.1598C650.236 74.1598 651.78 73.7533 653.13 72.9402C654.495 72.1271 655.563 71.0108 656.335 69.5913C657.12 68.158 657.513 66.5387 657.513 64.7333C657.513 62.8866 657.106 61.2397 656.293 59.7926C655.494 58.3318 654.391 57.1811 652.986 56.3404C651.58 55.4997 649.974 55.0725 648.169 55.0587C646.874 55.0449 645.544 55.2448 644.179 55.6582C642.815 56.0579 641.692 56.5747 640.81 57.2086L636.014 56.6298L638.577 35.7922H660.572V40.3401H642.877L641.389 52.8261H641.637C642.505 52.137 643.594 51.5651 644.903 51.1103C646.212 50.6555 647.576 50.4281 648.996 50.4281C651.587 50.4281 653.895 51.0483 655.921 52.2886C657.961 53.5152 659.559 55.1965 660.717 57.3326C661.889 59.4688 662.474 61.9081 662.474 64.6506C662.474 67.3518 661.868 69.7635 660.655 71.8859C659.456 73.9945 657.802 75.662 655.694 76.8886C653.585 78.1013 651.187 78.7077 648.5 78.7077ZM683.172 70.6869V43.3996H687.803V70.6869H683.172ZM671.844 59.3585V54.7279H699.131V59.3585H671.844Z" fill="white"></path></g><defs><clipPath id="clip0_177_1174"><rect width="128.069" height="110.605" fill="white" transform="translate(581.628 0.915039)"></rect></clipPath></defs></svg>