<?xml version="1.0" encoding="utf-8"?>
<svg xmlns="http://www.w3.org/2000/svg" width="124" height="32" viewBox="0 0 124 32" fill="none">
<g clip-path="url(#clip0_2144_28560)">
<path d="M27.51 8.05225C28.1906 8.62224 28.5308 9.37215 28.9218 10.1504C28.9962 10.2959 29.0706 10.4414 29.1472 10.5914C29.3851 11.0573 29.6214 11.5241 29.8576 11.9909C30.0903 12.4486 30.3233 12.9062 30.5566 13.3636C30.7095 13.6636 30.8623 13.9638 31.0148 14.264C31.6167 15.4451 32.2458 16.6095 32.8888 17.7686C33.1441 18.2772 33.1441 18.2772 33.1441 18.6945C33.2819 18.6945 33.4196 18.6945 33.5615 18.6945C33.6115 18.5242 33.6616 18.354 33.7131 18.1785C34.0312 17.2974 34.4476 16.5049 34.8918 15.6818C35.0786 15.3322 35.2653 14.9825 35.4518 14.6328C35.5507 14.4475 35.6497 14.2621 35.7516 14.0712C36.0851 13.4407 36.4122 12.8072 36.738 12.1727C36.8497 11.9559 36.9614 11.7391 37.0764 11.5157C37.2951 11.0905 37.513 10.6649 37.7299 10.2389C37.8303 10.0445 37.9307 9.85014 38.0341 9.64989C38.1224 9.47733 38.2108 9.30478 38.3018 9.12699C38.5596 8.69498 38.8237 8.38788 39.1956 8.05225C39.2486 8.25157 39.3016 8.45089 39.3562 8.65625C39.3907 8.78564 39.4251 8.91502 39.4606 9.04833C39.5369 9.33495 39.6131 9.62161 39.6891 9.90829C39.9044 10.7177 40.1272 11.5244 40.3564 12.33C40.5971 13.2064 40.7829 14.0855 40.9563 14.9776C41.4377 17.4499 42.0767 19.8726 42.7985 22.2851C42.9517 22.868 42.9517 22.868 42.9517 23.494C42.1254 23.494 41.2991 23.494 40.4477 23.494C39.763 21.2972 39.1876 19.0939 38.6974 16.8453C38.6563 16.6575 38.6152 16.4696 38.5729 16.276C38.5369 16.1085 38.5009 15.9409 38.4639 15.7683C38.3738 15.3437 38.3738 15.3437 38.1523 14.9384C37.6995 15.8137 37.2469 16.6891 36.7946 17.5647C36.6413 17.8613 36.4879 18.158 36.3344 18.4546C35.3969 20.2671 34.4678 22.083 33.5615 23.9113C33.4238 23.9113 33.286 23.9113 33.1441 23.9113C33.0106 23.6406 33.0106 23.6406 32.8743 23.3644C31.946 21.4908 30.9972 19.6276 30.0402 17.7685C29.9209 17.5348 29.8017 17.3011 29.6789 17.0602C29.5662 16.8423 29.4536 16.6244 29.3375 16.3999C29.1863 16.1056 29.1863 16.1056 29.0319 15.8054C28.8002 15.3282 28.8002 15.3282 28.3447 15.1471C28.3022 15.3344 28.3022 15.3344 28.2588 15.5255C28.0308 16.5303 27.8025 17.535 27.5736 18.5396C27.4165 19.2294 27.2605 19.9194 27.1073 20.6101C27.0551 20.843 27.003 21.076 26.9492 21.316C26.8834 21.6133 26.8834 21.6133 26.8163 21.9167C26.6753 22.4506 26.6753 22.4506 26.258 23.494C25.4316 23.494 24.6053 23.494 23.7539 23.494C24.0295 22.0819 24.3313 20.6804 24.6668 19.2814C24.7127 19.0891 24.7586 18.8969 24.8059 18.6987C25.0613 17.6363 25.33 16.5793 25.6189 15.5253C26.093 13.7883 26.4849 12.0326 26.8803 10.2762C26.9318 10.0488 26.9833 9.8214 27.0364 9.58713C27.1055 9.27934 27.1055 9.27934 27.176 8.96534C27.3013 8.46959 27.3013 8.46959 27.51 8.05225Z" fill="#131313"/>
<path d="M86.7676 7.42676C87.6033 7.84461 88.0402 8.23145 88.6931 8.88756C88.7991 8.99346 88.905 9.09936 89.0142 9.20846C89.3629 9.5575 89.7102 9.90798 90.0574 10.2585C90.2994 10.5013 90.5415 10.744 90.7837 10.9866C91.4199 11.6244 92.0549 12.2635 92.6897 12.9028C93.452 13.6702 94.2159 14.436 94.9795 15.202C96.1386 16.3652 97.2957 17.5303 98.4532 18.695C98.5221 16.1472 98.5909 13.5993 98.6619 10.9742C98.0421 10.9742 97.4224 10.9742 96.7838 10.9742C96.7838 10.1478 96.7838 9.3215 96.7838 8.47012C98.2299 8.47012 99.676 8.47012 101.166 8.47012C101.166 13.8413 101.166 19.2126 101.166 24.7465C100.269 23.9774 99.4286 23.2437 98.6008 22.4138C98.5009 22.3138 98.4009 22.2139 98.2979 22.111C97.9734 21.7863 97.6497 21.4609 97.3259 21.1355C97.0988 20.908 96.8716 20.6806 96.6444 20.4532C96.0508 19.8588 95.4579 19.2638 94.8651 18.6686C94.1513 17.9524 93.4368 17.237 92.7225 16.5214C91.6411 15.438 90.5608 14.3537 89.4803 13.2696C89.4115 16.6438 89.3426 20.018 89.2716 23.4945C88.4453 23.4945 87.619 23.4945 86.7676 23.4945C86.7676 18.1921 86.7676 12.8898 86.7676 7.42676Z" fill="#131313"/>
<path d="M56.5117 8.46973C57.2692 8.46973 58.0267 8.46973 58.8071 8.46973C58.8071 10.5356 58.8071 12.6014 58.8071 14.7299C61.2173 14.7299 63.6274 14.7299 66.1106 14.7299C66.1106 13.4904 66.1106 12.2509 66.1106 10.9738C65.4909 10.9738 64.8711 10.9738 64.2326 10.9738C64.2326 10.1475 64.2326 9.32111 64.2326 8.46973C65.6098 8.46973 66.9871 8.46973 68.406 8.46973C68.406 13.4278 68.406 18.3858 68.406 23.4941C67.5797 23.4941 66.7533 23.4941 65.902 23.4941C65.902 21.3594 65.902 19.2247 65.902 17.0253C63.5607 17.0253 61.2194 17.0253 58.8071 17.0253C58.8071 19.16 58.8071 21.2947 58.8071 23.4941C58.0496 23.4941 57.2922 23.4941 56.5117 23.4941C56.5117 18.5361 56.5117 13.578 56.5117 8.46973Z" fill="#131313"/>
<path fill-rule="evenodd" clip-rule="evenodd" d="M85.1012 13.8952C84.4949 11.8794 83.2678 10.4476 81.5408 9.29547C78.1271 7.35201 74.3192 7.9347 71.5375 10.7651C70.2001 12.492 69.5203 14.4647 69.5853 16.6487C69.8814 18.9845 71.0808 20.7061 72.8254 22.216C74.6932 23.6195 76.5448 23.9099 78.8411 23.7028C80.666 23.3818 82.5529 22.2775 83.6405 20.7814C85.1203 18.6173 85.5326 16.4855 85.1012 13.8952ZM82.8029 14.7299C82.2536 13.0653 81.3478 12.0162 79.8611 11.1303C77.3405 9.84998 75.0628 10.6483 73.204 12.6432C72.2541 13.8386 72.0142 14.9129 72.0872 16.4286C72.3016 18.1724 73.0764 19.3855 74.4421 20.4782C75.7633 21.3411 77.0883 21.3824 78.6294 21.1987C80.053 20.8008 81.0874 20.2019 81.9356 18.971C82.7068 17.5686 83.1111 16.3246 82.8029 14.7299Z" fill="#131313"/>
<path d="M6.53619 8.209C6.70646 8.21007 6.87673 8.21115 7.05216 8.21226C8.04619 8.22502 8.99885 8.30643 9.97928 8.46984C10.2138 9.15936 10.1662 9.52377 9.88798 10.1914C9.798 10.4125 9.798 10.4125 9.70621 10.6381C9.6586 10.7489 9.61099 10.8597 9.56193 10.9739C9.42636 10.9405 9.29079 10.9072 9.15111 10.8728C8.34455 10.7356 7.56156 10.7187 6.74486 10.7131C6.58911 10.7088 6.43337 10.7045 6.2729 10.7C5.31769 10.6933 4.70542 10.7751 3.92779 11.3912C3.60958 12.0277 3.66994 12.5686 3.71911 13.2693C4.04102 13.7083 4.27858 13.862 4.76247 14.104C5.14905 14.1311 5.53608 14.1519 5.92321 14.1692C7.54825 14.2939 9.02891 14.7899 10.1879 15.982C11.0816 17.2196 11.2059 18.4535 11.0226 19.9468C10.6426 21.1668 10.0674 22.2548 8.93321 22.8976C7.4458 23.5427 6.13355 23.5949 4.52772 23.5464C4.28832 23.5426 4.04891 23.5389 3.80226 23.535C3.21801 23.5252 2.63385 23.5103 2.04974 23.4942C2.04974 22.6679 2.04974 21.8415 2.04974 20.9902C2.59646 20.9748 2.59646 20.9748 3.15423 20.9592C3.6338 20.9435 4.11337 20.9278 4.59293 20.9119C4.833 20.9055 5.07308 20.899 5.32043 20.8923C5.66843 20.8802 5.66843 20.8802 6.02347 20.8679C6.23656 20.8613 6.44966 20.8548 6.6692 20.848C7.28296 20.7797 7.75071 20.6202 8.3099 20.3641C8.3565 20.0342 8.39922 19.7037 8.44032 19.373C8.46453 19.189 8.48874 19.005 8.51368 18.8154C8.51917 18.211 8.44932 17.9339 8.10123 17.4427C7.42471 16.9649 6.79942 16.9787 5.98842 16.9602C4.43667 16.8557 3.17461 16.5011 2.06767 15.3625C1.22489 14.2921 0.925338 13.4312 0.948503 12.0491C1.09338 10.9247 1.6407 10.1309 2.42795 9.34365C3.82706 8.38348 4.87246 8.16694 6.53619 8.209Z" fill="#131313"/>
<path d="M122.242 9.30488C121.964 10.0548 121.624 10.7144 121.199 11.3916C121.052 11.3464 120.906 11.3012 120.755 11.2547C118.589 10.6189 117.332 10.5452 115.311 11.6158C114.3 12.3147 113.807 13.2375 113.269 14.313C113.137 15.9619 113.027 17.5595 114.104 18.9038C115.151 20.0243 116.103 20.686 117.666 20.8484C117.997 20.8582 117.997 20.8582 118.334 20.8682C118.696 20.8804 118.696 20.8804 119.064 20.8927C119.312 20.8992 119.561 20.9056 119.816 20.9123C120.069 20.9203 120.323 20.9284 120.583 20.9367C121.206 20.9563 121.828 20.9736 122.451 20.9905C122.451 21.8169 122.451 22.6432 122.451 23.4946C121.529 23.523 120.608 23.5436 119.686 23.5598C119.428 23.5685 119.171 23.5773 118.905 23.5863C116.514 23.6177 114.538 23.0504 112.785 21.3704C111.15 19.5982 110.487 17.7348 110.51 15.3246C110.58 14.4322 110.836 13.6721 111.183 12.8523C111.269 12.6414 111.355 12.4305 111.443 12.2132C112.562 10.3352 114.041 9.22478 116.047 8.39194C118.32 8.00677 120.186 8.27661 122.242 9.30488Z" fill="#131313"/>
<path d="M11.8584 8.46973C12.6847 8.46973 13.5111 8.46973 14.3625 8.46973C15.2845 10.2913 16.1916 12.1198 17.0752 13.9604C17.1582 14.131 17.2411 14.3017 17.3266 14.4775C17.4029 14.6374 17.4792 14.7974 17.5578 14.9622C17.6598 15.1746 17.6598 15.1746 17.764 15.3912C17.9099 15.7732 17.9099 15.7732 17.9099 16.3993C18.0476 16.3993 18.1853 16.3993 18.3272 16.3993C18.3444 16.2572 18.3617 16.1152 18.3794 15.9689C18.5403 15.3385 18.8063 14.8698 19.1399 14.3158C19.4899 13.6777 19.7341 13.0038 19.9966 12.3261C20.3001 11.5732 20.6669 10.8593 21.04 10.1391C21.1969 9.82631 21.3534 9.51331 21.5095 9.20008C21.63 8.95906 21.7505 8.71805 21.8747 8.46973C22.701 8.46973 23.5273 8.46973 24.3787 8.46973C24.1869 9.42878 23.8887 10.1883 23.4707 11.0569C23.4003 11.2055 23.33 11.3541 23.2575 11.5072C23.0324 11.982 22.8057 12.4561 22.5789 12.9301C22.4313 13.2406 22.2837 13.5512 22.1363 13.8618C21.9168 14.3241 21.6972 14.7865 21.4771 15.2486C20.7664 16.7411 20.0673 18.2389 19.3706 19.738C19.2477 20.0022 19.1249 20.2664 19.0021 20.5306C18.5456 21.5126 18.1036 22.4882 17.7012 23.4941C16.806 23.4941 15.9108 23.4941 14.9885 23.4941C15.3716 22.2441 15.8256 21.1683 16.4924 20.0421C16.8315 18.9913 16.0741 17.889 15.6121 16.9487C15.4876 16.6939 15.3632 16.4391 15.2388 16.1843C15.1744 16.0531 15.1099 15.9218 15.0435 15.7866C11.8584 9.29444 11.8584 9.29444 11.8584 8.46973Z" fill="#131313"/>
<path d="M103.462 8.46973C105.391 8.46973 107.319 8.46973 109.305 8.46973C109.305 9.29607 109.305 10.1224 109.305 10.9738C108.754 10.9738 108.203 10.9738 107.636 10.9738C107.636 14.2792 107.636 17.5845 107.636 20.9901C108.187 20.9901 108.738 20.9901 109.305 20.9901C109.305 21.8164 109.305 22.6427 109.305 23.4941C107.377 23.4941 105.449 23.4941 103.462 23.4941C103.462 22.6678 103.462 21.8414 103.462 20.9901C104.013 20.9901 104.564 20.9901 105.132 20.9901C105.132 17.6847 105.132 14.3793 105.132 10.9738C104.581 10.9738 104.03 10.9738 103.462 10.9738C103.462 10.1475 103.462 9.32111 103.462 8.46973Z" fill="#131313"/>
<path fill-rule="evenodd" clip-rule="evenodd" d="M46.0724 8.4243C44.8921 8.4343 43.712 8.44937 42.5317 8.47015V10.9742H44.4098V23.4945H46.9139V17.8604L48.8049 17.8865C51.0267 17.9301 52.5043 17.5527 54.1701 16.0704C55.0195 15.1532 55.1427 14.38 55.1694 13.1392C55.1478 11.7401 54.8789 10.8121 53.8913 9.80043C53.1766 9.26807 52.7199 8.92783 52.21 8.71423C51.3071 8.33592 50.2378 8.35481 47.2745 8.40718C46.8739 8.41445 46.4732 8.42012 46.0724 8.4243ZM48.9211 10.9352L46.9126 10.9743V15.3564C48.4563 15.7423 50.0305 15.7301 51.5278 15.1559C52.1934 14.7886 52.4523 14.3722 52.7554 13.687C52.8499 12.7579 52.8604 12.3838 52.3381 11.6003C51.409 10.9716 50.6325 10.9077 49.5468 10.9179L48.9211 10.9352Z" fill="#131313"/>
</g>
<defs>
<clipPath id="clip0_2144_28560">
<rect width="123" height="32" fill="white" transform="translate(0.947266)"/>
</clipPath>
</defs>
</svg>