<?xml version="1.0" encoding="utf-8"?>
<svg xmlns="http://www.w3.org/2000/svg" width="110" height="32" viewBox="0 0 110 32" fill="none">
<path d="M49.7749 10.9372C51.4753 12.3037 52.5505 14.2499 52.8067 16.4338C52.8301 16.7049 52.8484 16.9761 52.8646 17.2477C52.8687 17.316 52.8728 17.3842 52.877 17.4546C52.8854 17.6216 52.8886 17.7888 52.8909 17.9559C52.8067 18.0405 52.8067 18.0405 52.6043 18.0509C52.4684 18.0508 52.4684 18.0508 52.3298 18.0507C52.2262 18.0508 52.1226 18.0509 52.0159 18.051C51.9001 18.0507 51.7843 18.0504 51.6684 18.0501C51.5473 18.0501 51.4261 18.0501 51.305 18.0501C50.9751 18.0502 50.6452 18.0497 50.3153 18.0491C49.9709 18.0486 49.6265 18.0485 49.2821 18.0484C48.6295 18.0481 47.9769 18.0474 47.3243 18.0466C46.5815 18.0457 45.8388 18.0452 45.096 18.0448C43.5676 18.0439 42.0393 18.0424 40.5109 18.0405C40.5608 18.2401 40.6114 18.4395 40.6626 18.6387C40.6764 18.6944 40.6902 18.7501 40.7044 18.8074C40.9565 19.7811 41.4856 20.5513 42.1953 21.2539C42.2499 21.3096 42.3045 21.3653 42.3607 21.4227C42.7865 21.8293 43.2482 22.0618 43.7954 22.2687C43.8663 22.2958 43.9372 22.323 44.0102 22.3509C45.238 22.7531 46.5913 22.5762 47.7326 21.9991C48.3992 21.5881 48.8737 21.1453 49.2008 20.4284C49.3391 20.1739 49.4792 19.9483 49.7622 19.8429C50.214 19.7626 50.6674 19.8007 51.1224 19.8322C51.2613 19.8377 51.4002 19.8427 51.5392 19.8472C51.878 19.8593 52.2158 19.8782 52.5541 19.9009C52.4074 20.4357 52.2373 20.9343 51.9856 21.4283C51.956 21.4867 51.9264 21.5451 51.8959 21.6053C51.6557 22.0673 51.3883 22.474 51.0381 22.8606C50.9789 22.9289 50.9196 22.9971 50.8585 23.0674C49.5695 24.4643 47.7364 25.0791 45.8752 25.162C43.7069 25.2256 41.6914 24.515 40.0898 23.0298C38.631 21.6078 37.8287 19.6384 37.7804 17.6127C37.7699 15.4963 38.3827 13.6617 39.7529 12.0365C39.7915 11.9855 39.83 11.9345 39.8697 11.8819C40.9115 10.5374 42.6226 9.8164 44.2481 9.53493C46.2346 9.30494 48.1641 9.71134 49.7749 10.9372ZM41.6182 13.8212C41.2294 14.3472 40.9218 14.9525 40.7636 15.5882C43.7373 15.5882 46.711 15.5882 49.7749 15.5882C49.272 14.2753 48.5814 13.1053 47.3273 12.3989C45.2113 11.4693 43.1124 12.1077 41.6182 13.8212Z" fill="#131313"/>
<path d="M30.7374 9.40614C32.1296 9.36205 33.3978 9.70017 34.5255 10.5157C34.5791 10.5538 34.6326 10.5918 34.6877 10.631C35.8805 11.5644 36.454 13.0712 36.6754 14.5286C36.7307 14.9847 36.7263 15.4392 36.7248 15.8981C36.7248 15.9947 36.7248 16.0913 36.7248 16.1908C36.7247 16.5083 36.7241 16.8258 36.7234 17.1434C36.7233 17.3642 36.7232 17.5851 36.7231 17.806C36.7228 18.3267 36.7221 18.8475 36.7213 19.3683C36.7203 19.9616 36.7199 20.5549 36.7194 21.1482C36.7186 22.3678 36.717 23.5874 36.7152 24.807C35.8259 24.807 34.9365 24.807 34.0202 24.807C34.0177 24.3929 34.0177 24.3929 34.0152 23.9705C34.0095 23.0555 34.003 22.1405 33.996 21.2254C33.9918 20.671 33.9879 20.1166 33.9847 19.5621C33.9816 19.0264 33.9777 18.4907 33.9732 17.9551C33.9717 17.7513 33.9704 17.5476 33.9694 17.3439C34.0349 15.0496 34.0349 15.0496 33.0241 13.0843C32.9254 12.9681 32.9254 12.9681 32.9254 12.7989C32.8764 12.7745 32.8275 12.7501 32.777 12.7249C32.6605 12.6661 32.5444 12.6064 32.429 12.5452C32.3757 12.5173 32.3224 12.4894 32.2675 12.4607C32.2148 12.4328 32.1621 12.4049 32.1079 12.3761C31.1547 11.9587 30.0151 12.0021 29.0461 12.3487C28.1599 12.7498 27.5524 13.3665 27.1882 14.2713C26.9483 14.9829 26.9207 15.7372 26.9191 16.4818C26.9178 16.6194 26.9178 16.6194 26.9165 16.7597C26.9139 17.0589 26.9125 17.3581 26.9111 17.6574C26.9095 17.8664 26.9078 18.0754 26.9061 18.2844C26.9018 18.8315 26.8985 19.3787 26.8953 19.9259C26.8919 20.4854 26.8877 21.0449 26.8834 21.6044C26.8753 22.7001 26.8683 23.7958 26.8617 24.8915C25.9724 24.8915 25.083 24.8915 24.1667 24.8915C24.1667 19.9243 24.1667 14.957 24.1667 9.8392C25.0561 9.8392 25.9454 9.8392 26.8617 9.8392C26.9034 10.4252 26.9034 10.4252 26.9459 11.0231C27.0363 10.9376 27.1266 10.8522 27.2196 10.7641C28.2378 9.87807 29.4077 9.4862 30.7374 9.40614Z" fill="#131313"/>
<path d="M10.2731 9.83887C11.1624 9.83887 12.0517 9.83887 12.968 9.83887C12.9705 10.2522 12.9705 10.2522 12.9731 10.674C12.9787 11.588 12.9853 12.502 12.9922 13.416C12.9964 13.9698 13.0003 14.5235 13.0036 15.0773C13.0067 15.6125 13.0106 16.1476 13.015 16.6827C13.0166 16.8862 13.0178 17.0896 13.0188 17.293C12.9737 19.567 12.9737 19.567 13.826 21.6249C14.5435 22.2973 15.4016 22.5965 16.3788 22.6397C17.4424 22.5927 18.4195 22.2238 19.1501 21.4314C20.1654 20.0971 20.0812 18.4411 20.0854 16.8501C20.0868 16.6471 20.0884 16.4442 20.09 16.2412C20.094 15.7111 20.0965 15.1811 20.0987 14.651C20.1012 14.1084 20.1051 13.5659 20.1089 13.0234C20.1162 11.9619 20.1217 10.9004 20.1265 9.83887C21.0159 9.83887 21.9052 9.83887 22.8215 9.83887C22.8215 14.7782 22.8215 19.7176 22.8215 24.8066C21.9322 24.8066 21.0428 24.8066 20.1265 24.8066C20.0987 24.4439 20.071 24.0811 20.0423 23.7073C19.9259 23.8085 19.8096 23.9096 19.6897 24.0138C18.6069 24.8802 17.3626 25.1912 15.9999 25.1766C15.9085 25.1776 15.817 25.1786 15.7229 25.1796C14.2503 25.1743 12.9645 24.6514 11.9255 23.6069C10.6849 22.2703 10.2575 20.5406 10.2635 18.7574C10.2635 18.6608 10.2635 18.5642 10.2635 18.4647C10.2635 18.1467 10.2642 17.8287 10.2648 17.5107C10.265 17.2897 10.2651 17.0687 10.2652 16.8478C10.2654 16.3264 10.2661 15.805 10.267 15.2836C10.2679 14.6897 10.2684 14.0958 10.2688 13.5019C10.2697 12.2809 10.2712 11.0599 10.2731 9.83887Z" fill="#131313"/>
<path d="M2.94995 6.70996C3.83929 6.70996 4.72863 6.70996 5.64492 6.70996C5.64492 7.74248 5.64492 8.77501 5.64492 9.83882C6.7288 9.83882 7.81269 9.83882 8.92942 9.83882C8.92942 10.7039 8.92942 11.569 8.92942 12.4603C7.84553 12.4603 6.76165 12.4603 5.64492 12.4603C5.65013 13.7711 5.65013 13.7711 5.65841 15.0819C5.66247 15.6173 5.66618 16.1526 5.66774 16.688C5.66903 17.1201 5.67194 17.5521 5.67594 17.9842C5.67718 18.1483 5.67785 18.3123 5.67792 18.4764C5.66712 20.1846 5.66712 20.1846 6.49269 21.6282C7.05932 22.0948 7.64679 22.194 8.36095 22.2327C8.57633 22.2449 8.79172 22.2571 9.01363 22.2697C9.01363 23.1069 9.01363 23.944 9.01363 24.8066C5.81013 24.8605 5.81013 24.8605 4.49219 23.6227C3.36016 22.4227 2.9332 20.928 2.94039 19.2956C2.94038 19.2212 2.94036 19.1469 2.94035 19.0703C2.94041 18.8269 2.94106 18.5835 2.94173 18.3401C2.94188 18.1704 2.942 18.0008 2.94209 17.8311C2.94241 17.3862 2.94323 16.9414 2.94417 16.4965C2.94503 16.0419 2.94541 15.5873 2.94584 15.1326C2.94674 14.2418 2.94822 13.3511 2.94995 12.4603C2.31074 12.4603 1.67152 12.4603 1.01294 12.4603C1.01294 11.5952 1.01294 10.7301 1.01294 9.83882C1.65215 9.83882 2.29137 9.83882 2.94995 9.83882C2.94995 8.80629 2.94995 7.77377 2.94995 6.70996Z" fill="#131313"/>
<path d="M85.2317 9.83887C93.7832 9.83887 93.7832 9.83887 94.9167 10.5999C94.9917 10.6496 95.0666 10.6994 95.1437 10.7506C95.9749 11.3585 96.4713 12.2168 96.6853 13.2214C96.8857 14.5875 96.7811 15.9091 95.9524 17.0562C95.6478 17.4247 95.3151 17.6957 94.9167 17.957C94.9758 18.0128 95.0349 18.0686 95.0957 18.1261C95.825 18.8667 96.2763 19.727 96.2738 20.7842C96.2738 20.8739 96.2738 20.9636 96.2738 21.056C96.2733 21.1518 96.2729 21.2477 96.2725 21.3465C96.2723 21.4948 96.2723 21.4948 96.2721 21.6461C96.2716 21.9614 96.2706 22.2768 96.2695 22.5921C96.2691 22.8061 96.2687 23.0201 96.2683 23.2341C96.2674 23.7583 96.266 24.2825 96.2642 24.8066C95.764 24.8066 95.2637 24.8066 94.7483 24.8066C94.7475 24.6804 94.7467 24.5542 94.7459 24.4242C94.7425 23.9529 94.737 23.4817 94.7308 23.0105C94.7285 22.8071 94.7267 22.6037 94.7255 22.4003C94.7237 22.1068 94.7197 21.8134 94.7154 21.5199C94.7153 21.4299 94.7152 21.3399 94.7151 21.2472C94.7032 20.6268 94.6207 20.002 94.2113 19.5086C93.4413 18.8131 92.252 18.9558 91.2875 18.945C91.1563 18.9432 91.0251 18.9415 90.8939 18.9397C90.5505 18.935 90.2071 18.9308 89.8638 18.9267C89.5126 18.9225 89.1615 18.9178 88.8103 18.9131C88.1227 18.904 87.4352 18.8955 86.7476 18.8872C86.7478 18.9611 86.748 19.0351 86.7482 19.1113C86.7499 19.807 86.7511 20.5026 86.752 21.1982C86.7524 21.5559 86.753 21.9135 86.754 22.2712C86.7549 22.6161 86.7554 22.9609 86.7556 23.3058C86.7558 23.4377 86.7561 23.5696 86.7565 23.7014C86.7571 23.8855 86.7572 24.0696 86.7572 24.2536C86.7574 24.3586 86.7575 24.4636 86.7577 24.5717C86.7476 24.8066 86.7476 24.8066 86.6634 24.8912C86.1909 24.8912 85.7185 24.8912 85.2317 24.8912C85.2317 19.9239 85.2317 14.9567 85.2317 9.83887ZM86.6634 11.1919C86.6634 13.2848 86.6634 15.3778 86.6634 17.5342C87.9766 17.5446 87.9766 17.5446 89.3163 17.5553C89.5898 17.5584 89.8633 17.5615 90.1451 17.5646C90.3662 17.5656 90.5874 17.5665 90.8085 17.5672C90.8638 17.5681 90.9192 17.569 90.9762 17.5699C92.1996 17.5884 93.4469 17.4256 94.4114 16.604C95.1515 15.8433 95.2419 15.0174 95.2536 13.9825C95.209 13.2005 94.9506 12.5455 94.3674 12.0124C93.9073 11.6579 93.4618 11.4063 92.8955 11.2764C92.8344 11.2619 92.7733 11.2473 92.7104 11.2323C92.4341 11.185 92.1735 11.1818 91.8932 11.1823C91.8355 11.1823 91.7779 11.1823 91.7185 11.1823C91.533 11.1823 91.3476 11.183 91.1621 11.1836C91.0472 11.1838 90.9322 11.1838 90.8173 11.1839C90.3924 11.1843 89.9675 11.1855 89.5426 11.1866C88.5925 11.1883 87.6423 11.1901 86.6634 11.1919Z" fill="#131313"/>
<path d="M80.8964 11.0714C81.0239 11.1668 81.1503 11.2636 81.2753 11.3621C81.3615 11.4279 81.3615 11.4279 81.4494 11.4949C82.7929 12.5879 83.5204 14.2761 83.8861 15.9286C83.9067 16.017 83.9273 16.1054 83.9486 16.1965C84.3527 18.2116 83.8624 20.2869 82.7913 22.0172C82.5802 22.3119 82.3535 22.588 82.1175 22.8628C82.0719 22.9208 82.0263 22.9788 81.9793 23.0385C80.8875 24.3903 79.0987 25.2045 77.4013 25.3997C75.4097 25.5305 73.4118 25.0674 71.8721 23.7206C70.2077 22.2022 69.2357 20.2485 69.1239 17.9858C69.0618 15.8186 69.6672 13.8716 71.085 12.2078C71.151 12.1206 71.217 12.0334 71.285 11.9435C73.7621 9.21931 77.9647 9.07298 80.8964 11.0714ZM72.7693 12.546C72.7026 12.5964 72.6358 12.6467 72.567 12.6986C71.3528 13.729 70.6766 15.3942 70.4954 16.9433C70.4212 18.2049 70.6208 19.3527 71.1692 20.495C71.2045 20.5722 71.2398 20.6494 71.2761 20.7289C71.6099 21.405 72.0759 21.9105 72.6009 22.44C72.6812 22.525 72.6812 22.525 72.7631 22.6117C73.8373 23.6641 75.3393 24.0072 76.7878 23.9975C78.3821 23.9538 79.6559 23.3182 80.77 22.1863C80.8348 22.1231 80.8996 22.0598 80.9664 21.9947C82.0947 20.8289 82.6575 19.2486 82.6353 17.6344C82.553 15.8674 82.057 14.0129 80.7292 12.7669C79.4542 11.6297 77.988 11.0347 76.2608 11.0853C74.9586 11.1887 73.7658 11.697 72.7693 12.546Z" fill="#131313"/>
<path d="M98.1245 9.83887C101.654 9.83887 105.184 9.83887 108.82 9.83887C108.82 10.2854 108.82 10.7319 108.82 11.1919C105.791 11.1919 102.762 11.1919 99.6404 11.1919C99.6404 12.95 99.6404 14.708 99.6404 16.5194C102.392 16.5194 105.143 16.5194 107.978 16.5194C107.978 16.9938 107.978 17.4682 107.978 17.957C105.227 17.957 102.475 17.957 99.6404 17.957C99.6404 19.7709 99.6404 21.5848 99.6404 23.4536C102.67 23.4536 105.699 23.4536 108.82 23.4536C108.82 23.9001 108.82 24.3466 108.82 24.8066C105.291 24.8066 101.761 24.8066 98.1245 24.8066C98.1245 19.8673 98.1245 14.9279 98.1245 9.83887Z" fill="#131313"/>
<path d="M65.8549 11.0223C66.2065 11.3189 66.5385 11.6288 66.8655 11.9525C66.9221 12.0082 66.9786 12.0639 67.0369 12.1213C67.7258 12.854 68.1595 13.7952 68.4656 14.7431C67.9932 14.7431 67.5207 14.7431 67.0339 14.7431C66.9627 14.6053 66.8915 14.4675 66.8181 14.3255C66.5648 13.861 66.283 13.4526 65.9391 13.0518C65.891 12.9945 65.8429 12.9371 65.7934 12.878C64.9307 11.9288 63.5841 11.3433 62.3141 11.2654C60.5478 11.2034 59.1091 11.5851 57.77 12.7981C57.682 12.8746 57.682 12.8746 57.5923 12.9527C56.409 14.0488 55.754 15.7258 55.6648 17.3183C55.6629 19.1042 56.2618 20.6681 57.4331 22.0155C57.4778 22.0685 57.5225 22.1215 57.5686 22.1761C58.5511 23.2553 60.0503 23.8038 61.4752 23.8915C63.0166 23.9257 64.2943 23.3859 65.5391 22.4965C66.0563 21.9889 66.4154 21.4987 66.6918 20.8264C66.9216 20.3627 66.9216 20.3627 67.1994 20.2676C67.6222 20.1966 68.0394 20.2103 68.4656 20.2397C68.4123 20.6306 68.2566 20.9588 68.0814 21.3073C68.0514 21.367 68.0215 21.4267 67.9906 21.4881C67.218 22.989 65.9485 24.2408 64.339 24.8061C62.2861 25.4341 60.3141 25.3978 58.3595 24.4679C57.6885 24.1063 57.1391 23.6414 56.5909 23.1149C56.532 23.062 56.473 23.0091 56.4123 22.9547C55.0205 21.6607 54.3961 19.6438 54.317 17.7874C54.2782 15.6296 54.9463 13.6373 56.4001 12.0311C58.7894 9.54387 62.9987 8.87247 65.8549 11.0223Z" fill="#131313"/>
</svg>