<?xml version="1.0" encoding="utf-8"?>
<svg xmlns="http://www.w3.org/2000/svg" width="91" height="32" viewBox="0 0 91 32" fill="none">
<g clip-path="url(#clip0_2144_28575)">
<path d="M0.947266 4C2.5296 4 4.11194 4 5.74222 4C5.74222 11.8665 5.74222 19.7329 5.74222 27.8378C4.15989 27.8378 2.57755 27.8378 0.947266 27.8378C0.947266 19.9713 0.947266 12.1048 0.947266 4Z" fill="black"/>
<path d="M20.123 4C21.6828 4 23.2425 4 24.8495 4C24.8495 11.8665 24.8495 19.7329 24.8495 27.8378C23.2898 27.8378 21.73 27.8378 20.123 27.8378C20.123 19.9713 20.123 12.1048 20.123 4Z" fill="#010101"/>
<path d="M34.3059 16.7407C35.617 16.7407 36.9281 16.7407 38.2789 16.7407C38.4237 17.0787 38.544 17.3963 38.6428 17.7468C38.6724 17.8493 38.702 17.9518 38.7316 18.0543C38.7547 18.1346 38.7547 18.1346 38.7783 18.2166C39.0535 19.1886 39.0535 19.1886 39.3791 20.1443C39.5671 20.6445 39.7074 21.1593 39.8544 21.6727C39.9006 21.8334 39.9469 21.9941 39.9932 22.1548C40.0426 22.3266 40.0919 22.4984 40.1412 22.6702C40.1648 22.7525 40.1885 22.8348 40.2128 22.9196C40.3077 23.2513 40.4021 23.5824 40.4829 23.9179C40.5165 24.1274 40.5165 24.1274 40.6078 24.2071C40.6178 24.168 40.6277 24.1289 40.638 24.0886C40.6861 23.8997 40.7348 23.7109 40.7834 23.5222C40.799 23.4608 40.8145 23.3994 40.8306 23.3362C41.0147 22.6236 41.2249 21.9186 41.4323 21.2126C41.5201 20.9135 41.6073 20.6143 41.6945 20.315C41.7823 20.0141 41.8703 19.7133 41.9585 19.4125C42.0032 19.2595 42.0479 19.1064 42.0925 18.9533C42.1585 18.7269 42.2248 18.5005 42.2912 18.2742C42.3107 18.2068 42.3303 18.1395 42.3504 18.07C42.4835 17.6178 42.638 17.1857 42.7998 16.7407C44.0883 16.7407 45.3768 16.7407 46.7043 16.7407C46.7043 20.4027 46.7043 24.0647 46.7043 27.8376C45.8905 27.8376 45.0767 27.8376 44.2383 27.8376C44.2383 24.9894 44.2383 22.1412 44.2383 19.2067C44.0575 19.8848 43.8766 20.563 43.6903 21.2617C43.5698 21.6533 43.4498 22.0434 43.322 22.4324C43.1774 22.8755 43.044 23.3224 42.9117 23.7694C42.7325 24.3735 42.5464 24.9734 42.3431 25.5698C42.1655 26.0973 42.0123 26.6317 41.8595 27.1667C41.8402 27.2341 41.8209 27.3015 41.801 27.371C41.7839 27.4313 41.7667 27.4916 41.7491 27.5537C41.7038 27.7006 41.7038 27.7006 41.6353 27.8376C40.912 27.8376 40.1886 27.8376 39.4434 27.8376C39.1583 26.9972 38.8776 26.1598 38.6396 25.3049C38.521 24.8794 38.3953 24.4564 38.2658 24.034C38.2233 23.8951 38.1809 23.7561 38.1385 23.6172C38.1166 23.5455 38.0947 23.4738 38.0721 23.3999C37.8915 22.8082 37.7122 22.2161 37.5335 21.6238C37.4875 21.4717 37.4414 21.3197 37.3952 21.1676C37.3271 20.9436 37.2595 20.7195 37.192 20.4953C37.1714 20.4278 37.1507 20.3603 37.1295 20.2908C37.0279 19.9518 36.9468 19.6273 36.9089 19.2752C36.8637 19.2752 36.8185 19.2752 36.7719 19.2752C36.7719 22.1008 36.7719 24.9264 36.7719 27.8376C35.9581 27.8376 35.1443 27.8376 34.3059 27.8376C34.3059 24.1756 34.3059 20.5137 34.3059 16.7407Z" fill="#040404"/>
<path d="M10.4724 4C12.0774 4 13.6823 4 15.3359 4C15.3359 10.2841 15.3359 16.5682 15.3359 23.0428C13.7309 23.0428 12.126 23.0428 10.4724 23.0428C10.4724 16.7587 10.4724 10.4746 10.4724 4Z" fill="#020202"/>
<path d="M34.302 4.13721C35.1384 4.13721 35.9748 4.13721 36.8365 4.13721C36.8364 4.37189 36.8363 4.60658 36.8362 4.84837C36.8363 5.6254 36.8386 6.40241 36.842 7.17943C36.844 7.65035 36.8453 8.12126 36.8447 8.59219C36.8442 9.047 36.8458 9.50178 36.8487 9.95659C36.8495 10.1298 36.8495 10.3029 36.8488 10.4761C36.848 10.7194 36.8497 10.9626 36.852 11.206C36.8512 11.2769 36.8504 11.3479 36.8495 11.421C36.8584 11.9465 37.0061 12.3415 37.316 12.7681C37.8121 13.2063 38.3967 13.2733 39.0359 13.2605C39.5278 13.2286 40.0869 13.0951 40.4356 12.7242C40.677 12.3987 40.8258 12.0853 40.8285 11.6744C40.8293 11.6076 40.83 11.5409 40.8308 11.4721C40.831 11.3997 40.8311 11.3272 40.8313 11.2526C40.832 11.1757 40.8327 11.0989 40.8334 11.0196C40.8355 10.7658 40.8366 10.5119 40.8378 10.258C40.8391 10.0819 40.8404 9.90575 40.8418 9.72962C40.845 9.31358 40.8475 8.89754 40.8498 8.48149C40.8524 8.00771 40.8558 7.53394 40.8593 7.06016C40.8663 6.08585 40.8724 5.11153 40.8779 4.13721C41.7369 4.13721 42.5959 4.13721 43.4809 4.13721C43.4856 5.1275 43.4893 6.11779 43.4916 7.1081C43.4926 7.56803 43.4941 8.02795 43.4964 8.48788C43.4987 8.93247 43.4999 9.37705 43.5004 9.82165C43.5008 9.99052 43.5015 10.1594 43.5026 10.3283C43.5123 11.8532 43.4793 13.2038 42.4235 14.395C41.1569 15.5071 39.6383 15.6532 38.001 15.5766C37.1187 15.4954 36.2012 15.2171 35.535 14.6176C35.4886 14.5775 35.4423 14.5374 35.3945 14.4961C34.5895 13.7533 34.3223 12.7317 34.2782 11.6661C34.2671 11.1856 34.2711 10.7052 34.2752 10.2245C34.2758 10.0482 34.2761 9.87177 34.2764 9.69539C34.2774 9.28203 34.2795 8.8687 34.2823 8.45535C34.2854 7.98388 34.2868 7.5124 34.2882 7.04091C34.2911 6.073 34.2961 5.10511 34.302 4.13721Z" fill="#040404"/>
<path d="M50.7189 7.25865C51.3279 7.70778 51.7491 8.25164 51.9117 9.00003C51.9179 9.20379 51.9204 9.40589 51.9195 9.60963C51.9195 9.67114 51.9195 9.73264 51.9195 9.79601C51.9195 9.99912 51.919 10.2022 51.9184 10.4053C51.9183 10.5462 51.9182 10.6871 51.9181 10.828C51.9179 11.1987 51.9172 11.5695 51.9164 11.9402C51.9157 12.3185 51.9154 12.6969 51.9151 13.0752C51.9144 13.8175 51.9131 14.5597 51.9117 15.302C51.1432 15.302 50.3746 15.302 49.5828 15.302C49.5789 14.7416 49.5789 14.7416 49.575 14.1699C49.5729 13.9323 49.5708 13.6947 49.5684 13.4572C49.5647 13.0806 49.5612 12.7041 49.559 12.3275C49.5572 12.0237 49.5545 11.7199 49.551 11.4161C49.5499 11.3006 49.5491 11.185 49.5487 11.0695C49.5818 10.0815 49.5818 10.0815 49.1418 9.24406C49.0549 9.19108 49.0549 9.19108 48.9663 9.13703C48.9272 9.11257 48.8882 9.08811 48.848 9.06291C48.6334 8.97627 48.4478 8.98192 48.2171 8.9829C48.1345 8.98255 48.0519 8.9822 47.9669 8.98183C47.683 9.00394 47.4881 9.05175 47.2722 9.24084C47.2393 9.28005 47.2064 9.31925 47.1724 9.35965C47.139 9.39815 47.1055 9.43665 47.071 9.47631C46.8521 9.81269 46.8222 10.1605 46.8209 10.5521C46.8199 10.6283 46.8199 10.6283 46.8189 10.7061C46.8168 10.8729 46.8156 11.0397 46.8144 11.2065C46.8131 11.3226 46.8118 11.4387 46.8104 11.5548C46.8069 11.8596 46.8042 12.1643 46.8016 12.469C46.7984 12.8351 46.7942 13.2013 46.7901 13.5674C46.7841 14.1227 46.7793 14.6781 46.7743 15.2335C46.0057 15.2335 45.2372 15.2335 44.4453 15.2335C44.4453 12.5661 44.4453 9.89874 44.4453 7.15055C45.1461 7.15055 45.8468 7.15055 46.5688 7.15055C46.5688 7.4218 46.5688 7.69306 46.5688 7.97254C46.614 7.97254 46.6592 7.97254 46.7058 7.97254C46.724 7.93157 46.7422 7.89059 46.7609 7.84838C46.9843 7.43948 47.4443 7.17374 47.8703 7.01355C48.7911 6.74409 49.8819 6.74784 50.7189 7.25865Z" fill="#020202"/>
<path d="M90.2697 20.4784C90.3625 20.5548 90.4531 20.6341 90.5428 20.7141C90.4545 20.905 90.3583 21.057 90.2199 21.215C90.1842 21.2562 90.1484 21.2973 90.1116 21.3397C90.0745 21.3819 90.0374 21.4241 89.9991 21.4676C89.6766 21.8345 89.6766 21.8345 89.3784 22.2211C89.1736 22.1234 88.9868 22.0098 88.7961 21.8872C88.1962 21.5314 87.6498 21.3758 86.9552 21.3692C86.877 21.3681 86.877 21.3681 86.7972 21.367C86.4029 21.3732 86.1043 21.4537 85.8164 21.7416C85.7764 21.9442 85.7764 21.9442 85.8164 22.1526C86.244 22.525 86.9556 22.6092 87.4946 22.722C88.2037 22.8761 88.9311 23.0592 89.5839 23.3856C89.5839 23.4308 89.5839 23.476 89.5839 23.5226C89.6305 23.5353 89.6771 23.548 89.7251 23.5611C90.1851 23.7862 90.4672 24.1537 90.6346 24.6328C90.8082 25.3671 90.6738 26.126 90.3074 26.7811C89.7778 27.5323 88.9013 27.8907 88.0255 28.0607C86.3685 28.2971 84.8413 27.9153 83.4874 26.9476C83.3479 26.836 83.2121 26.7213 83.0764 26.6051C83.1879 26.3325 83.3778 26.1391 83.5773 25.9286C83.831 25.6587 84.0746 25.3847 84.3094 25.0981C84.5571 25.1408 84.7121 25.2457 84.9131 25.3935C85.7745 26.0093 86.5353 26.2469 87.5974 26.1256C87.8492 26.0558 88.094 25.9714 88.2824 25.7831C88.2873 25.6904 88.2881 25.5976 88.2866 25.5048C88.2852 25.4158 88.2838 25.3268 88.2824 25.2351C87.7579 24.9307 87.2525 24.8013 86.6598 24.6914C85.5581 24.4705 84.398 24.2145 83.706 23.2505C83.3909 22.7142 83.4066 22.0507 83.5345 21.4532C83.8022 20.6568 84.3112 20.181 85.0286 19.7765C86.6939 18.986 88.8541 19.3817 90.2697 20.4784Z" fill="#040404"/>
<path d="M62.9782 20.5306C63.0793 20.6454 63.0793 20.6454 63.0793 20.9194C62.9787 21.0569 62.9787 21.0569 62.8396 21.2019C62.5358 21.528 62.2584 21.8704 61.9833 22.2209C61.7786 22.1231 61.5918 22.0096 61.4011 21.8869C60.8011 21.5311 60.2548 21.3755 59.5602 21.3689C59.482 21.3679 59.482 21.3679 59.4022 21.3668C59.0079 21.373 58.7093 21.4534 58.4214 21.7414C58.3814 21.9439 58.3814 21.9439 58.4214 22.1524C58.7275 22.3973 59.1098 22.5033 59.4885 22.5837C59.5618 22.5997 59.6352 22.6157 59.7108 22.6322C59.7883 22.649 59.8657 22.6659 59.9455 22.6832C60.7064 22.853 61.4868 23.0343 62.1888 23.3853C62.1888 23.4306 62.1888 23.4758 62.1888 23.5223C62.2355 23.5351 62.2821 23.5478 62.3301 23.5609C62.7499 23.7663 63.0695 24.1255 63.2388 24.5613C63.4242 25.343 63.3208 25.9843 62.937 26.6765C62.4186 27.4731 61.7321 27.8081 60.8255 28.0216C59.3112 28.3164 57.7102 28.0203 56.4207 27.1793C56.1597 27.003 55.9203 26.8092 55.6814 26.6048C55.7902 26.3468 55.9537 26.1705 56.1438 25.9669C56.4072 25.6821 56.6641 25.3942 56.9144 25.0978C57.1621 25.1405 57.317 25.2454 57.518 25.3932C58.3819 26.0108 59.1384 26.2425 60.2024 26.1253C60.5489 26.0361 60.756 25.9457 60.9558 25.6458C60.9885 25.4412 60.9885 25.4412 60.8873 25.2348C60.4039 24.8923 59.8351 24.7968 59.2648 24.6911C58.3452 24.5072 57.4776 24.2926 56.7089 23.7278C56.7089 23.6826 56.7089 23.6374 56.7089 23.5908C56.6411 23.5682 56.5733 23.5456 56.5034 23.5223C56.4108 23.3904 56.4108 23.3904 56.3236 23.2269C56.2944 23.1735 56.2653 23.1201 56.2353 23.0651C56.0109 22.5848 56.0136 21.9792 56.144 21.4722C56.4313 20.7308 56.9425 20.1008 57.6679 19.7549C59.5034 19.0717 61.4237 19.3463 62.9782 20.5306Z" fill="#040404"/>
<path d="M64.8572 17.3569C65.6258 17.3569 66.3943 17.3569 67.1862 17.3569C67.1862 18.1255 67.1862 18.8941 67.1862 19.6859C67.7965 19.6859 68.4068 19.6859 69.0356 19.6859C69.0356 20.2736 69.0356 20.8614 69.0356 21.4669C68.4253 21.4669 67.815 21.4669 67.1862 21.4669C67.1879 21.9964 67.19 22.5258 67.1952 23.0553C67.1975 23.3019 67.1993 23.5485 67.1996 23.795C67.1999 24.0327 67.2018 24.2703 67.2049 24.5079C67.2062 24.6424 67.2058 24.7769 67.2054 24.9114C67.1947 25.3964 67.1947 25.3964 67.4167 25.8041C67.6313 25.9411 67.7468 25.9575 67.9996 25.945C68.0711 25.942 68.1426 25.939 68.2163 25.9359C68.4468 25.9171 68.6712 25.8922 68.8987 25.8508C68.9683 26.0598 68.9871 26.2319 69.0038 26.451C69.0098 26.5276 69.0157 26.6042 69.0219 26.6831C69.0278 26.7631 69.0338 26.8431 69.0399 26.9254C69.0462 27.0062 69.0524 27.0869 69.0588 27.1701C69.0741 27.3697 69.0893 27.5692 69.1041 27.7688C67.9721 28.0718 66.7343 28.3022 65.6578 27.7132C65.2326 27.3671 64.9971 26.9969 64.8572 26.4673C64.8209 26.0799 64.8251 25.6954 64.8304 25.3066C64.8309 25.1955 64.8313 25.0843 64.8316 24.9732C64.8326 24.6829 64.8353 24.3926 64.8384 24.1023C64.8412 23.8052 64.8424 23.5081 64.8438 23.2109C64.8467 22.6296 64.8515 22.0482 64.8572 21.4669C64.3825 21.4669 63.9078 21.4669 63.4187 21.4669C63.4187 20.8792 63.4187 20.2914 63.4187 19.6859C63.8934 19.6859 64.3681 19.6859 64.8572 19.6859C64.8572 18.9173 64.8572 18.1488 64.8572 17.3569Z" fill="#030303"/>
<path d="M57.4619 4.75342C58.2305 4.75342 58.999 4.75342 59.7909 4.75342C59.7909 5.54458 59.7909 6.33575 59.7909 7.15089C60.3786 7.15089 60.9664 7.15089 61.5719 7.15089C61.5719 7.71601 61.5719 8.28113 61.5719 8.86338C60.9842 8.86338 60.3964 8.86338 59.7909 8.86338C59.7937 9.40347 59.7976 9.94352 59.8035 10.4836C59.8062 10.7344 59.8084 10.9851 59.8095 11.2359C59.8105 11.478 59.8129 11.72 59.8161 11.9621C59.8176 12.0993 59.8178 12.2365 59.8179 12.3737C59.8193 12.4574 59.8206 12.541 59.822 12.6272C59.8226 12.7008 59.8232 12.7744 59.8239 12.8503C59.8678 13.0873 59.9457 13.169 60.1334 13.3158C60.2914 13.3531 60.2914 13.3531 60.4598 13.3426C60.5512 13.3413 60.5512 13.3413 60.6445 13.3399C60.7075 13.3376 60.7706 13.3353 60.8355 13.333C60.8996 13.3317 60.9637 13.3305 61.0298 13.3292C61.1877 13.326 61.3455 13.3215 61.5034 13.3158C61.538 13.5598 61.5721 13.8039 61.6061 14.0479C61.6159 14.1169 61.6257 14.1859 61.6358 14.257C61.6451 14.3239 61.6544 14.3908 61.6639 14.4597C61.6768 14.5517 61.6768 14.5517 61.69 14.6456C61.7086 14.8203 61.7122 14.9897 61.7089 15.1653C61.1004 15.4452 60.5368 15.4556 59.8722 15.4607C59.7878 15.4627 59.7033 15.4647 59.6163 15.4667C58.9554 15.4713 58.4283 15.3643 57.9414 14.8913C57.3803 14.1699 57.452 13.2623 57.4552 12.3954C57.4554 12.2933 57.4555 12.1911 57.4555 12.089C57.4558 11.8219 57.4565 11.5548 57.4572 11.2877C57.4579 11.0145 57.4582 10.7413 57.4586 10.468C57.4593 9.93314 57.4605 9.39826 57.4619 8.86338C56.9872 8.86338 56.5125 8.86338 56.0234 8.86338C56.0234 8.29826 56.0234 7.73314 56.0234 7.15089C56.4981 7.15089 56.9728 7.15089 57.4619 7.15089C57.4619 6.35973 57.4619 5.56856 57.4619 4.75342Z" fill="#020202"/>
<path d="M83.4167 19.8239C83.3742 20.2641 83.3047 20.6891 83.2112 21.1211C83.1929 21.2084 83.1929 21.2084 83.1743 21.2973C83.0834 21.7235 83.0834 21.7235 83.0057 21.8789C82.9585 21.874 82.9112 21.869 82.8626 21.8639C81.946 21.7462 81.946 21.7462 81.0877 22.0159C80.6108 22.413 80.3744 22.9482 80.308 23.559C80.2962 23.833 80.2927 24.1058 80.2925 24.3799C80.2915 24.4802 80.2903 24.5805 80.2891 24.6808C80.2861 24.9422 80.2847 25.2035 80.2837 25.4649C80.2821 25.7799 80.2785 26.0948 80.2753 26.4098C80.2706 26.886 80.2684 27.3621 80.2657 27.8384C79.4972 27.8384 78.7286 27.8384 77.9368 27.8384C77.9368 25.1484 77.9368 22.4584 77.9368 19.6869C78.6601 19.6869 79.3835 19.6869 80.1287 19.6869C80.1627 20.1616 80.1627 20.1616 80.1972 20.6459C80.2651 20.5513 80.3329 20.4566 80.4027 20.3591C81.1845 19.3546 82.3095 19.418 83.4167 19.8239Z" fill="#030303"/>
<path d="M53.0068 7.15137C53.7754 7.15137 54.544 7.15137 55.3358 7.15137C55.3358 9.84133 55.3358 12.5313 55.3358 15.3028C54.5673 15.3028 53.7987 15.3028 53.0068 15.3028C53.0068 12.6128 53.0068 9.92285 53.0068 7.15137Z" fill="#010101"/>
<path fill-rule="evenodd" clip-rule="evenodd" d="M78.484 4.13721H76.0866L76.0181 7.76767C75.8394 7.58902 75.7772 7.52685 75.7078 7.47422C75.6708 7.44612 75.6317 7.42075 75.5717 7.38183L75.3844 7.27961C75.0285 7.08104 74.6765 6.96769 74.272 6.92962C73.1439 6.87134 72.2421 6.99986 71.3601 7.76767C70.5584 8.5677 70.1482 9.73584 70.1132 10.8469C70.0932 12.162 70.3308 13.5576 71.2745 14.5424C72.0933 15.3058 72.8606 15.5317 73.9585 15.5342C74.7387 15.52 75.4058 15.2512 75.9581 14.6989L76.2236 14.4121L76.2921 15.3026C76.5426 15.304 76.793 15.3052 77.0435 15.3059L77.3495 15.3069C77.5003 15.3077 77.651 15.3086 77.8018 15.309L77.9443 15.3093C78.1014 15.3099 78.2586 15.3086 78.4155 15.3026C78.484 15.2341 78.484 15.2341 78.4925 15.0524L78.4923 14.8046C78.4925 14.6588 78.4925 14.5131 78.4922 14.3673C78.4919 14.2601 78.4918 14.1528 78.4918 14.0456C78.4919 13.7543 78.4917 13.463 78.4913 13.1718C78.4908 12.8619 78.4906 12.5521 78.4905 12.2422C78.4903 11.6574 78.4899 11.0726 78.4892 10.4878C78.4884 9.81662 78.4879 9.14542 78.4876 8.47422C78.4868 7.02855 78.4856 5.58288 78.484 4.13721ZM76.0907 10.2332C75.8778 9.70091 75.4839 9.25123 74.9723 8.98925C74.1449 8.72917 73.5876 8.9808 73.0082 9.54821C72.6564 9.99512 72.5038 10.4435 72.5073 11.0046L72.5116 11.1751C72.5118 11.1963 72.5119 11.2175 72.512 11.2387C72.513 11.429 72.514 11.6188 72.5288 11.8087C72.6464 12.3452 72.8455 12.8931 73.2822 13.2472C73.7412 13.519 74.1955 13.5766 74.7207 13.5212C75.2959 13.3852 75.6616 12.9716 75.977 12.4907C76.2872 11.8671 76.2684 10.9012 76.0907 10.2332Z" fill="#040404"/>
<path d="M53.0068 4.13721C53.7754 4.13721 54.544 4.13721 55.3358 4.13721C55.3358 4.79275 55.3358 5.44828 55.3358 6.12369C54.5673 6.12369 53.7987 6.12369 53.0068 6.12369C53.0068 5.46815 53.0068 4.81261 53.0068 4.13721Z" fill="#070707"/>
<path fill-rule="evenodd" clip-rule="evenodd" d="M53.0611 19.5641L52.9113 19.5315C50.8688 19.0854 49.0696 19.7308 47.7311 21.3296C47.7626 21.3594 47.794 21.3893 47.8255 21.4191C48.2777 21.8478 48.7257 22.2724 49.2381 22.6311C49.557 22.3373 49.881 22.065 50.2484 21.8335L50.4025 21.7406C50.5403 21.6509 50.6716 21.5782 50.8229 21.5137C51.3511 21.3869 52.1051 21.3409 52.5945 21.6036C52.9188 21.9131 52.9826 22.1185 53.0055 22.5626C51.9305 22.6737 50.8503 22.8296 49.8203 23.1649L49.5806 23.2476C49.1407 23.3991 48.7931 23.6193 48.4364 23.9189C47.9605 24.3746 47.6986 24.9238 47.6457 25.5803C47.6303 26.3083 47.8029 26.8246 48.2895 27.3733C48.905 27.9628 49.6838 28.128 50.5096 28.1325C51.3715 28.1212 52.2427 28.0053 52.8814 27.3704L53.074 27.1521L53.1425 27.837H55.266C55.2688 27.1225 55.2712 26.4079 55.2727 25.6934L55.2729 25.6079C55.2735 25.2718 55.2741 24.9357 55.2754 24.5996C55.2769 24.2428 55.2783 23.8859 55.2788 23.529L55.2794 23.121C55.2805 22.9257 55.2815 22.7304 55.2816 22.5351L55.2816 22.3547C55.2863 21.8262 55.2283 21.3944 54.9578 20.9272C54.5159 20.2203 53.8657 19.7589 53.0611 19.5641ZM52.7383 25.658C53.0295 25.1789 53.103 24.7626 53.0765 24.2067C52.9732 24.2067 52.9038 24.2067 52.8347 24.2114C52.6928 24.221 52.5523 24.2502 52.1234 24.3394L51.8607 24.3951C51.8125 24.4048 51.7643 24.4144 51.7161 24.4239C51.3204 24.5023 50.9276 24.5801 50.5621 24.7587C50.233 24.9528 50.0362 25.0978 49.9213 25.4697C49.9268 25.7817 49.9845 25.8991 50.1996 26.1247C50.6016 26.2885 51.0274 26.2987 51.459 26.2922C51.94 26.2329 52.403 26.0143 52.7383 25.658Z" fill="#030303"/>
<path fill-rule="evenodd" clip-rule="evenodd" d="M69.7158 10.4396C69.6075 9.41133 69.3056 8.47775 68.5384 7.74675C66.9183 6.41352 64.3399 6.57423 62.8447 7.98597C62.0377 8.81609 61.6824 9.85574 61.6658 11.0013L61.6671 11.2445C61.6708 12.1574 61.7915 12.8741 62.2279 13.6848C62.822 14.5865 63.7434 15.2587 64.8048 15.4824C66.3449 15.701 67.7853 15.496 69.0451 14.5685L69.1678 14.4768C69.1769 14.4701 69.186 14.4634 69.1951 14.4568C69.3757 14.3244 69.5437 14.2012 69.6558 14.0008C69.6522 13.9435 69.6501 13.9104 69.6407 13.8794C69.6276 13.8368 69.6005 13.7985 69.5359 13.7073L69.3733 13.5392L69.2015 13.3586C69.0495 13.1992 68.9069 13.0357 68.7653 12.8671C68.6176 12.6897 68.5712 12.6383 68.3458 12.5631L68.1922 12.6643C67.9367 12.8727 67.6785 13.0629 67.3905 13.224C66.6931 13.5326 65.8759 13.6035 65.144 13.3728C64.3548 12.8376 64.3548 12.8376 63.9618 11.8781H69.7158V10.4396ZM66.429 8.77635C66.1732 8.69321 65.8873 8.70258 65.1221 8.72765V8.86465C64.962 8.86465 64.8954 8.86465 64.8353 8.8843C64.7925 8.89828 64.753 8.92219 64.6854 8.96312C64.2803 9.35853 64.1071 9.66718 64.0261 10.2346H67.4511C67.4511 9.75873 67.2789 9.38669 66.9501 9.04018C66.7236 8.90845 66.5817 8.82594 66.429 8.77635Z" fill="#030303"/>
<path fill-rule="evenodd" clip-rule="evenodd" d="M77.0521 22.4953C76.8382 21.6398 76.5353 20.7471 75.8108 20.1847C74.1573 19.0675 71.7578 19.0605 70.2725 20.4933C69.3887 21.4639 69.1039 22.5345 69.0856 23.8237L69.0848 24.045C69.0847 24.0581 69.0846 24.0711 69.0845 24.0841C69.0826 24.4151 69.0808 24.729 69.1666 25.0517L69.2432 25.2352C69.6332 26.3863 70.2258 27.1761 71.3233 27.7325C72.6913 28.3136 74.1757 28.2303 75.5451 27.7012C76.1106 27.4307 76.7886 27.0668 77.0521 26.4682C76.8327 26.2036 76.6111 25.9411 76.3873 25.6802L76.2772 25.552L75.8876 25.0982C75.7339 25.1704 75.5933 25.2485 75.4509 25.3415C75.1348 25.5536 74.8144 25.7518 74.4705 25.9159C73.8682 26.1525 73.1663 26.1656 72.5568 25.9416C71.8892 25.6224 71.6253 25.1714 71.3666 24.4817H77.0521V22.4953ZM74.7595 22.2347C74.6616 21.8678 74.4189 21.6705 74.1088 21.4684C73.3768 21.0917 72.5296 21.1617 71.927 21.7236L71.8055 21.8537C71.7385 21.923 71.6925 21.9707 71.6561 22.0248C71.5766 22.1432 71.5433 22.2928 71.4373 22.7699H74.7938C74.7938 22.6302 74.7938 22.5617 74.7892 22.4935C74.7849 22.428 74.7763 22.3627 74.7595 22.2347Z" fill="#040404"/>
</g>
<defs>
<clipPath id="clip0_2144_28575">
<rect width="90" height="32" fill="white" transform="translate(0.947266)"/>
</clipPath>
</defs>
</svg>