<?xml version="1.0" encoding="utf-8"?>
<svg xmlns="http://www.w3.org/2000/svg" width="98" height="34" viewBox="0 0 98 34" fill="none">
<path d="M41.6096 31.1011C44.4096 29.5011 46.1096 25.7678 46.6096 24.1011C46.6096 26.1008 50.2763 27.6013 52.1096 28.1016C54.9096 28.1016 72.943 27.7682 81.6096 27.6016C86.8096 28.0016 90.7763 27.1016 92.1096 26.6016C92.9096 23.4016 95.443 10.9349 96.6096 5.10156C96.2096 2.30175 91.443 1.93497 89.1096 2.10156C85.1096 2.10156 83.7763 5.10128 83.6096 6.60114H77.6096C78.8096 4.6008 76.443 2.43446 75.1096 1.60133L67.1096 1.10133C58.7096 0.301332 56.6096 4.43454 56.6096 6.60114C53.4096 5.80099 50.2763 7.6012 49.1096 8.60133C48.3096 8.60133 46.7763 7.26787 46.1096 6.60114C44.9096 6.20099 37.2763 6.43441 33.6096 6.60114C34.1096 2.60095 31.1096 1.60133 30.6096 1.60133C30.2096 1.60133 22.1096 1.268 18.1096 1.10133C13.7096 1.50133 12.943 4.93454 13.1096 6.60114C8.70962 6.20114 5.60962 8.10114 4.60962 9.10114C1.00962 12.3011 0.776286 17.4345 1.10962 19.6011C1.50962 26.0011 5.94295 27.9345 8.10962 28.1011L25.1096 27.6011C25.6096 30.1011 26.1096 32.1011 30.6096 33.1011C35.1096 34.1011 38.1096 33.1011 41.6096 31.1011Z" fill="#131313" stroke="#131313"/>
<path fill-rule="evenodd" clip-rule="evenodd" d="M22.1856 5.02637H17.1899C17.184 5.07333 17.1782 5.1203 17.1723 5.16728C17.0627 6.04529 16.953 6.92423 16.7894 7.79369L16.61 8.62444C16.387 9.6731 16.1178 10.6755 15.7626 11.6873C15.0926 11.0173 14.519 10.5595 13.6216 10.2599C11.6969 10.0346 9.77621 9.95336 8.10922 11.0795C6.43004 12.5076 5.38044 14.2386 5.05755 16.4451C4.89231 18.7213 5.01012 20.4964 6.39567 22.3477C7.36865 23.3999 8.51531 23.7496 9.91941 23.8689C11.2026 23.8921 12.2137 23.851 13.2053 22.9721L13.8595 22.3923V23.3438H18.6172C18.6361 23.2121 18.6545 23.0803 18.673 22.9484C18.7567 22.3506 18.8404 21.7525 18.9582 21.1607L19.0614 20.7215L19.178 20.2154C19.5157 18.7646 19.8315 17.3151 20.08 15.8462C20.2991 14.531 20.5359 13.2355 20.8728 11.9448C21.4792 9.65566 21.8408 7.37057 22.1856 5.02637ZM11.0855 14.7092C11.0689 14.7296 11.0532 14.7507 11.0377 14.7735C10.9506 14.8495 10.8607 14.9308 10.767 15.0176C10.4498 15.5646 10.2327 16.1021 10.1047 16.6525L10.0533 16.6828V16.8997C9.9281 17.5822 9.93507 18.2891 10.0533 19.0617C10.2468 19.3868 10.3396 19.5426 10.4658 19.6635C10.5821 19.7748 10.7269 19.8565 11.0049 20.0133C11.1192 20.0324 11.2264 20.0485 11.3277 20.0613C11.449 20.1026 11.5914 20.1399 11.7631 20.1769C11.9818 20.1375 12.1777 20.0911 12.3577 20.0361C12.5479 19.9888 12.7349 19.9125 12.94 19.8023C13.0835 19.7288 13.2197 19.6458 13.3543 19.5521C13.3834 19.5329 13.4131 19.5132 13.4432 19.4929L13.4589 19.4769C13.6936 19.3029 13.9279 19.0948 14.1922 18.8453C14.645 18.2544 14.7666 17.7599 14.7992 17.1393C14.8763 16.7115 14.901 16.23 14.9059 15.6412C14.795 14.9118 14.615 14.5871 14.0974 14.0661C14.0695 14.0597 14.0418 14.0535 14.0145 14.0475C13.2721 13.8803 12.6635 13.7623 11.9118 13.977C11.6689 14.1613 11.4468 14.352 11.2493 14.5552L11.2427 14.5419C11.1781 14.6066 11.129 14.6556 11.0855 14.7092Z" fill="#FAFAFA"/>
<path d="M30.036 9.54688C30.193 9.62538 30.35 9.70388 30.5118 9.78476C30.3682 9.87247 30.2247 9.96017 30.0769 10.0505C28.0971 11.4874 27.8796 13.1616 27.5077 15.4403C27.3837 16.1824 27.2238 16.9152 27.0624 17.65C27.0069 17.9109 26.9514 18.1719 26.8942 18.4408C26.5344 20.0801 26.1421 21.7116 25.754 23.3445C24.1839 23.3445 22.6138 23.3445 20.9962 23.3445C21.088 21.7477 21.2373 20.426 21.7638 18.9246C22.0819 17.9289 22.2547 16.9082 22.4384 15.8807C22.4788 15.6623 22.5192 15.4438 22.5609 15.2188C22.8104 13.8664 23.0531 12.5126 23.2812 11.1563C23.3751 10.7363 23.3751 10.7363 23.613 10.4984C23.9615 10.4778 24.3111 10.473 24.6602 10.4752C24.9779 10.4764 24.9779 10.4764 25.3019 10.4775C25.5247 10.4795 25.7475 10.4815 25.977 10.4836C26.1989 10.4846 26.4207 10.4857 26.6493 10.4868C27.2231 10.4897 27.7969 10.494 28.3708 10.4984C29.1161 10.4984 29.4841 10.0116 30.036 9.54688Z" fill="#F9F9F9"/>
<path d="M24.8024 5.50195C26.294 5.50195 27.7855 5.50195 29.3223 5.50195C29.0844 7.64296 29.0844 7.64296 28.6086 9.07029C27.1171 9.07029 25.6255 9.07029 24.0887 9.07029C24.1976 7.70962 24.2902 6.78255 24.8024 5.50195Z" fill="#F8F8F8"/>
<path fill-rule="evenodd" clip-rule="evenodd" d="M39.7578 11.7659C39.7068 11.6001 39.5733 11.4597 39.2244 11.0924C37.3709 9.62616 35.2013 9.97821 33.1071 10.6593C31.4102 11.365 30.0152 12.8156 29.2665 14.4814C28.6042 16.6839 28.5643 18.8642 29.5601 20.9648C30.4058 22.2831 31.398 22.9424 32.8906 23.3437C34.2999 23.4791 35.7925 23.5685 36.9942 22.7341L37.4105 22.3921C37.2724 23.1574 37.0642 23.5766 36.5035 24.1168C35.5012 24.9372 34.5938 24.9021 33.3394 24.836L32.6527 24.771C32.0824 24.7185 31.5502 24.6457 30.9875 24.5331C30.918 24.4636 30.8665 24.4122 30.8081 24.3704C30.6416 24.2514 30.4187 24.2114 29.5601 24.0573C29.0592 25.3723 28.7564 26.4529 28.8464 27.8636C30.2395 28.5018 31.3969 28.6692 32.9263 28.6748L33.7083 28.6664C35.8023 28.6889 37.6443 28.6024 39.4623 27.477L40.0272 26.912C40.6062 26.3882 40.9927 26.0386 41.2871 25.6237C41.8781 24.7907 42.0981 23.6944 42.7598 20.3972C43.0616 18.8599 43.3679 17.3251 43.7138 15.7971C44.1137 14.0367 44.4799 12.2774 44.785 10.4976H40.503L40.2651 12.1629H39.7894C39.7894 11.9809 39.7894 11.8686 39.7578 11.7659ZM39.0163 16.1631C38.9902 16.0304 38.9642 15.9079 38.9373 15.7938L38.9354 15.7494C38.7516 14.8198 38.3715 14.4441 37.6484 13.8287L37.6469 13.8285C37.1427 13.7476 36.713 13.727 36.3143 13.7907C36.2206 13.8007 36.113 13.8134 35.9832 13.8287L35.9832 13.8287L35.9754 13.8676C35.5777 13.9861 35.1999 14.2021 34.7937 14.5424C33.8447 15.8762 33.7144 16.7552 33.9016 18.3933C34.167 19.0345 34.4788 19.3577 35.0316 19.776C36.0088 19.8957 36.3421 19.8539 37.1726 19.3002L37.1737 19.2991C37.5236 18.9602 37.7569 18.7341 37.9264 18.4889C38.5003 17.8187 38.9613 17.0836 39.0163 16.1631Z" fill="#FBFBFB"/>
<path fill-rule="evenodd" clip-rule="evenodd" d="M62.2635 5.00378L61.6632 5C61.0641 5.03489 61.0003 5.09576 60.8677 5.6747C60.5699 7.12636 60.4209 7.85228 60.2542 8.57411C60.0875 9.29611 59.9031 10.014 59.5343 11.45C59.4413 11.3571 59.3766 11.2923 59.3056 11.2354C59.1425 11.1049 58.9464 11.0156 58.3002 10.7215C56.582 10.0441 54.5613 9.85162 52.8343 10.5765C50.7666 11.7955 49.7766 13.175 49.0077 15.4049C48.5541 17.4458 48.4921 19.8873 49.6172 21.709C50.589 22.7888 51.6711 23.5373 53.1112 23.8203C54.537 23.8813 55.969 23.9247 57.1108 22.9728L57.6311 22.3929L57.869 23.3445H62.3889C62.9634 19.9762 63.5657 16.6262 64.3218 13.2937C64.9463 10.5484 65.4991 7.80524 65.9573 5.02701C65.3974 5.02212 64.8375 5.0182 64.2776 5.01539L63.5932 5.01214L62.9116 5.0061L62.2635 5.00378ZM58.5829 15.021C58.663 15.6331 58.6678 16.2102 58.588 16.7693C58.5861 16.82 58.5843 16.8708 58.5827 16.9218L58.5651 16.9159C58.5121 17.2268 58.4326 17.5325 58.3247 17.836L58.3448 17.8733L58.2917 17.9264C58.1792 18.2268 58.0388 18.5254 57.8689 18.825C57.3595 19.4625 56.8869 19.8136 56.2038 20.0054V20.0143L56.1607 20.0172C55.9784 20.066 55.7811 20.104 55.5644 20.1333L55.5643 20.1333L55.5643 20.1333L55.5642 20.1333C55.3276 20.0976 55.162 20.0726 55.0341 20.0463C54.9487 20.0348 54.8766 20.0161 54.8082 19.9885C54.7727 19.9741 54.7382 19.9573 54.7033 19.9379C54.627 19.8986 54.5513 19.8477 54.4525 19.7765H54.3006C54.0778 19.4144 53.9506 19.0881 53.8819 18.754C53.877 18.7344 53.8725 18.7148 53.8681 18.695C53.6801 17.9904 53.7397 17.2555 53.8248 16.4461C54.1336 15.444 54.5379 14.7438 55.3414 14.0672C56.1093 13.7746 56.5784 13.6935 57.3931 13.8293C57.9545 14.2198 58.0551 14.2898 58.3527 14.697C58.4253 14.7898 58.5009 14.8959 58.5827 15.0187L58.5829 15.021Z" fill="#FBFBFB"/>
<path d="M67.1467 10.498C68.7168 10.498 70.2869 10.498 71.9045 10.498C71.9045 12.8769 71.9045 12.8769 71.5923 13.7096C71.2431 14.7669 71.0307 15.8247 70.8489 16.9211C70.4887 19.0828 70.0135 21.2074 69.5256 23.3441C67.877 23.3441 66.2285 23.3441 64.5299 23.3441C65.091 20.5181 65.663 17.6951 66.2543 14.8753C66.5597 13.4177 66.8567 11.9588 67.1467 10.498Z" fill="#FAFAFA"/>
<path d="M68.3362 5.50195C69.9062 5.50195 71.4763 5.50195 73.0939 5.50195C72.9805 6.71742 72.8579 7.87189 72.6182 9.07029C71.0481 9.07029 69.478 9.07029 67.8604 9.07029C67.8604 7.16718 67.8604 7.16718 68.3362 5.50195Z" fill="#F6F6F6"/>
<path d="M79.6359 10.1705C79.8239 10.1677 80.0119 10.165 80.2055 10.1621C81.5934 10.1689 82.7486 10.4666 84.0368 10.9733C83.9064 12.0608 83.6997 13.0369 83.3232 14.0659C81.9825 13.8477 81.9825 13.8477 81.3383 13.7016C80.6535 13.5808 80.0185 13.5669 79.3237 13.5753C79.0915 13.5774 78.8594 13.5796 78.6202 13.5818C78.4451 13.5845 78.27 13.5873 78.0896 13.5901C78.0896 13.9041 78.0896 14.2182 78.0896 14.5417C78.3533 14.668 78.6171 14.7944 78.8888 14.9245C79.237 15.0942 79.5851 15.2639 79.9333 15.4338C80.1936 15.558 80.1936 15.558 80.4592 15.6847C82.5674 16.7196 82.5674 16.7196 83.0258 17.8275C83.1948 19.3064 83.1133 20.3624 82.3716 21.6784C81.2891 22.8702 80.1815 23.5006 78.5501 23.6468C77.7225 23.6535 76.8952 23.658 76.0676 23.6558C75.6356 23.6616 75.6356 23.6616 75.195 23.6674C74.9162 23.6676 74.6375 23.6677 74.3503 23.6679C73.9715 23.669 73.9715 23.669 73.585 23.6701C72.7435 23.5678 72.1619 23.2832 71.4287 22.8678C71.5421 22.4414 71.6562 22.0153 71.7707 21.5892C71.8342 21.3518 71.8976 21.1145 71.963 20.8699C72.1424 20.251 72.1424 20.251 72.3803 19.7753C72.5161 19.7924 72.652 19.8096 72.7919 19.8273C74.4824 20.0208 76.1515 20.0371 77.8517 20.0131C77.8517 19.6991 77.8517 19.3851 77.8517 19.0616C77.6622 18.9895 77.4727 18.9175 77.2774 18.8432C73.9687 17.535 73.9687 17.535 73.2426 15.9839C72.9098 14.3531 73.1459 13.3068 74.0455 11.9249C75.5058 10.3812 77.6115 10.1408 79.6359 10.1705Z" fill="#F9F9F9"/>
<path d="M87.6052 6.21582C89.2538 6.21582 90.9023 6.21582 92.6009 6.21582C92.4161 7.69406 92.2387 8.96407 91.6558 10.3241C91.3686 11.0873 91.2132 11.8391 91.0546 12.6388C90.8546 13.6473 90.6084 14.5437 90.222 15.4935C90.1282 15.9078 90.0437 16.3243 89.9692 16.7424C89.7715 17.8471 89.7715 17.8471 89.5083 18.1103C88.8668 18.1277 88.2316 18.1323 87.5903 18.1252C87.3196 18.1235 87.3196 18.1235 87.0435 18.1219C86.5963 18.1191 86.1492 18.1148 85.7021 18.1103C85.8106 16.5541 86.0596 15.0463 86.3606 13.5163C86.6763 11.8777 86.9063 10.229 87.1288 8.57537C87.1566 8.3717 87.1844 8.16802 87.2131 7.95817C87.2372 7.77685 87.2613 7.59552 87.2861 7.40869C87.3673 6.92949 87.3673 6.92949 87.6052 6.21582Z" fill="#F7F7F7"/>
<path d="M84.9884 19.5381C86.48 19.5381 87.9716 19.5381 89.5083 19.5381C89.2704 21.2033 89.2704 21.2033 88.7946 23.3443C87.3031 23.3443 85.8115 23.3443 84.2747 23.3443C84.5103 22.0883 84.7458 20.8322 84.9884 19.5381Z" fill="#F9F9F9"/>
</svg>